{
.appVersion = "1330";
DisplayStrings = (
$,
"/exclamdbl HH"
);
classes = (
{
automatic = 1;

glyphs = (
{
glyphname = A;
layers = (
{
background = {
paths = (
{
closed = 1;
nodes = (
"145 0 LINE",
"194 141 LINE",
"520 141 LINE",
"567 0 LINE",
"724 0 LINE",
"495 623 LINE SMOOTH",
"473 684 OFFCURVE",
"420 712 OFFCURVE",
"359 712 CURVE SMOOTH",
"298 712 OFFCURVE",
"245 682 OFFCURVE",
"223 622 CURVE SMOOTH",
"-5 0 LINE"
);
},
{
closed = 1;
nodes = (
"344 574 LINE SMOOTH",
"347 582 OFFCURVE",
"352 587 OFFCURVE",
"360 587 CURVE SMOOTH",
"368 587 OFFCURVE",
"374 583 OFFCURVE",
"377 574 CURVE SMOOTH",
"478 267 LINE",
"237 267 LINE"
);
}
);
};
hints = (
{
horizontal = 1;
place = "{141, 126}";
type = Stem;
},
{
horizontal = 1;
place = "{0, 21}";
target = up;
type = BottomGhost;
},
{
horizontal = 1;
place = "{712, -20}";
target = down;
type = TopGhost;
}
);
layerId = "5dd0c03f-0ac1-43be-b978-266741ffc02a";
paths = (
{
closed = 1;
nodes = (
"32 0 LINE",
"115 212 LINE",
"539 212 LINE",
"623 0 LINE",
"650 0 LINE",
"394 651 LINE SMOOTH",
"376 696 OFFCURVE",
"358 713 OFFCURVE",
"326 713 CURVE SMOOTH",
"295 713 OFFCURVE",
"277 696 OFFCURVE",
"259 650 CURVE SMOOTH",
"5 0 LINE"
);
},
{
closed = 1;
nodes = (
"283 642 LINE SMOOTH",
"295 672 OFFCURVE",
"303 690 OFFCURVE",
"326 690 CURVE SMOOTH",
"349 690 OFFCURVE",
"358 671 OFFCURVE",
"370 642 CURVE SMOOTH",
"530 235 LINE",
"124 235 LINE"
);
}
);
width = 655;
},
{
hints = (
{
horizontal = 1;
place = "{141, 126}";
type = Stem;
},
{
horizontal = 1;
place = "{0, 21}";
target = up;
type = BottomGhost;
},
{
horizontal = 1;
place = "{712, -20}";
target = down;
type = TopGhost;
}
);
layerId = "41AFA816-2F69-4745-BF67-F6DEA15443A0";
paths = (
{
closed = 1;
nodes = (
"150 0 LINE",
"199 141 LINE",
"525 141 LINE",
"572 0 LINE",
"729 0 LINE",
"500 623 LINE SMOOTH",
"478 684 OFFCURVE",
"425 712 OFFCURVE",
"364 712 CURVE SMOOTH",
"303 712 OFFCURVE",
"250 682 OFFCURVE",
"228 622 CURVE SMOOTH",
"0 0 LINE"
);
},
{
closed = 1;
nodes = (
"349 574 LINE SMOOTH",
"352 582 OFFCURVE",
"357 587 OFFCURVE",
"365 587 CURVE SMOOTH",
"373 587 OFFCURVE",
"379 583 OFFCURVE",
"382 574 CURVE SMOOTH",
"483 267 LINE",
"242 267 LINE"
);
}
);
width = 729;
},
{
hints = (
{
horizontal = 1;
place = "{141, 126}";
type = Stem;
},
{
horizontal = 1;
place = "{0, 21}";
target = up;
type = BottomGhost;
},
{
horizontal = 1;
place = "{712, -20}";
target = down;
type = TopGhost;
}
);
layerId = "32E5C913-0890-451E-8980-44FAA246AB8A";
paths = (
{
closed = 1;
nodes = (
"224 0 LINE",
"264 122 LINE",
"503 122 LINE",
"541 0 LINE",
"770 0 LINE",
"546 613 LINE SMOOTH",
"521 680 OFFCURVE",
"458 713 OFFCURVE",
"385 713 CURVE SMOOTH",
"311 713 OFFCURVE",
"249 678 OFFCURVE",
"224 612 CURVE SMOOTH",
"0 0 LINE"
);
},
{
closed = 1;
nodes = (
"378 512 LINE SMOOTH",
"379 516 OFFCURVE",
"382 518 OFFCURVE",
"385 518 CURVE SMOOTH",
"389 518 OFFCURVE",
"392 516 OFFCURVE",
"393 512 CURVE SMOOTH",
"458 287 LINE",
"309 287 LINE"
);
}
);
width = 770;
}
);
leftKerningGroup = A_2nd;
rightKerningGroup = A_1st;
unicode = 0041;
},
{
glyphname = Aogonek;
layers = (
{
components = (
{
name = A;
}
);
hints = (
{
horizontal = 1;
place = "{141, 126}";
type = Stem;
},
{
horizontal = 1;
place = "{0, 21}";
target = up;
type = BottomGhost;
},
{
horizontal = 1;
place = "{712, -20}";
target = down;
type = TopGhost;
},
{
place = "{546, 85}";
type = Stem;
},
{
place = "{546, 183}";
type = Stem;
},
{
horizontal = 1;
place = "{-218, 21}";
target = up;
type = BottomGhost;
},
{
place = "{526, 85}";
type = Stem;
},
{
place = "{526, 183}";
type = Stem;
},
{
place = "{531.421, 63.518}";
type = Stem;
},
{
place = "{531.421, 136.75}";
type = Stem;
},
{
horizontal = 1;
place = "{-217.905, 21}";
target = up;
type = BottomGhost;
}
);
layerId = "5dd0c03f-0ac1-43be-b978-266741ffc02a";
paths = (
{
closed = 1;
nodes = (
"623 -215 OFFCURVE",
"636 -213 OFFCURVE",
"649 -208 CURVE",
"649 -187 LINE",
"636 -192 OFFCURVE",
"623 -194 OFFCURVE",
"611 -194 CURVE SMOOTH",
"579 -194 OFFCURVE",
"553 -177 OFFCURVE",
"553 -142 CURVE SMOOTH",
"553 -83 OFFCURVE",
"642 -7 OFFCURVE",
"649.85 0.298 CURVE",
"631 13 LINE",
"624 7 OFFCURVE",
"528 -76 OFFCURVE",
"528 -141 CURVE SMOOTH",
"528 -185 OFFCURVE",
"565 -215 OFFCURVE",
"610 -215 CURVE SMOOTH"
);
}
);
width = 655;
},
{
background = {
components = (
{
alignment = -1;
name = A;
},
{
alignment = -1;
name = ogonek;
transform = "{1, 0, 0, 1, 519, 0}";
}
);
};
components = (
{
alignment = -1;
name = A;
}
);
hints = (
{
horizontal = 1;
place = "{141, 126}";
type = Stem;
},
{
horizontal = 1;
place = "{0, 21}";
target = up;
type = BottomGhost;
},
{
horizontal = 1;
place = "{712, -20}";
target = down;
type = TopGhost;
},
{
place = "{546, 85}";
type = Stem;
},
{
place = "{546, 183}";
type = Stem;
},
{
place = "{526, 85}";
type = Stem;
},
{
place = "{526, 183}";
type = Stem;
},
{
horizontal = 1;
place = "{-218, 21}";
target = up;
type = BottomGhost;
}
);
layerId = "41AFA816-2F69-4745-BF67-F6DEA15443A0";
paths = (
{
closed = 1;
nodes = (
"671 -218 OFFCURVE",
"695 -215 OFFCURVE",
"709 -211 CURVE",
"709 -126 LINE",
"695 -131 OFFCURVE",
"681 -134 OFFCURVE",
"666 -134 CURVE SMOOTH",
"635 -134 OFFCURVE",
"611 -112 OFFCURVE",
"611 -80 CURVE SMOOTH",
"611 -29 OFFCURVE",
"670 57 OFFCURVE",
"676 66 CURVE",
"641 86 LINE",
"634 78 OFFCURVE",
"526 -33 OFFCURVE",
"526 -104 CURVE SMOOTH",
"526 -181 OFFCURVE",
"585 -218 OFFCURVE",
"657 -218 CURVE SMOOTH"
);
}
);
width = 729;
},
{
components = (
{
alignment = -1;
name = A;
}
);
hints = (
{
horizontal = 1;
place = "{141, 126}";
type = Stem;
},
{
horizontal = 1;
place = "{0, 21}";
target = up;
type = BottomGhost;
},
{
horizontal = 1;
place = "{712, -20}";
target = down;
type = TopGhost;
},
{
place = "{546, 85}";
type = Stem;
},
{
place = "{546, 183}";
type = Stem;
},
{
place = "{526, 85}";
type = Stem;
},
{
place = "{526, 183}";
type = Stem;
},
{
horizontal = 1;
place = "{-218, 21}";
target = up;
type = BottomGhost;
}
);
layerId = "32E5C913-0890-451E-8980-44FAA246AB8A";
paths = (
{
closed = 1;
nodes = (
"653 -219 OFFCURVE",
"685 -215 OFFCURVE",
"703 -210 CURVE",
"703 -117 LINE",
"691 -121 OFFCURVE",
"675 -124 OFFCURVE",
"659 -124 CURVE SMOOTH",
"625 -124 OFFCURVE",
"607 -104 OFFCURVE",
"607 -77 CURVE SMOOTH",
"607 -29 OFFCURVE",
"672 62 OFFCURVE",
"676 69 CURVE",
"619 95 LINE",
"612 87 OFFCURVE",
"497 -26 OFFCURVE",
"496 -106 CURVE SMOOTH",
"495 -186 OFFCURVE",
"554 -219 OFFCURVE",
"632 -219 CURVE SMOOTH"
);
}
);
width = 770;
}
);
leftKerningGroup = A_2nd;
rightKerningGroup = A_1st;
unicode = 0104;
},
{
glyphname = AE;
layers = (
{
background = {
paths = (
{
closed = 1;
nodes = (
"501 345 LINE",
"877 345 LINE",
"877 368 LINE",
"492 368 LINE"
);
},
{
closed = 1;
nodes = (
"445 700 OFFCURVE",
"393 585 OFFCURVE",
"452 436 CURVE SMOOTH",
"592 81 LINE SMOOTH",
"611 34 OFFCURVE",
"659 0 OFFCURVE",
"720 0 CURVE SMOOTH",
"919 0 LINE",
"919 23 LINE",
"721 23 LINE SMOOTH",
"668 23 OFFCURVE",
"630 54 OFFCURVE",
"615 92 CURVE SMOOTH",
"469 460 LINE SMOOTH",
"424 573 OFFCURVE",
"467 677 OFFCURVE",
"602 677 CURVE SMOOTH",
"919 677 LINE",
"919 700 LINE",
"609 700 LINE SMOOTH"
);
},
{
closed = 1;
nodes = (
"544 235 LINE",
"110 235 LINE",
"103 212 LINE",
"552 212 LINE"
);
},
{
closed = 1;
nodes = (
"574 127 LINE",
"600 129 LINE",
"394 651 LINE SMOOTH",
"376 696 OFFCURVE",
"358 713 OFFCURVE",
"326 713 CURVE SMOOTH",
"295 713 OFFCURVE",
"277 696 OFFCURVE",
"259 650 CURVE SMOOTH",
"5 0 LINE",
"32 0 LINE",
"283 642 LINE SMOOTH",
"295 672 OFFCURVE",
"303 690 OFFCURVE",
"326 690 CURVE SMOOTH",
"349 690 OFFCURVE",
"358 671 OFFCURVE",
"370 642 CURVE SMOOTH"
);
}
);
};
hints = (
{
horizontal = 1;
place = "{0, 126}";
type = Stem;
},
{
horizontal = 1;
place = "{141, 126}";
type = Stem;
},
{
horizontal = 1;
place = "{293, 126}";
type = Stem;
},
{
horizontal = 1;
place = "{574, 126}";
type = Stem;
},
{
horizontal = 1;
place = "{712, -20}";
target = down;
type = TopGhost;
},
{
horizontal = 1;
place = "{141, 126}";
type = Stem;
},
{
horizontal = 1;
place = "{0, 21}";
target = up;
type = BottomGhost;
},
{
horizontal = 1;
place = "{712, -20}";
target = down;
type = TopGhost;
},
{
horizontal = 1;
place = "{141, 126}";
type = Stem;
},
{
horizontal = 1;
place = "{0, 21}";
target = up;
type = BottomGhost;
},
{
horizontal = 1;
place = "{712, -20}";
target = down;
type = TopGhost;
}
);
layerId = "5dd0c03f-0ac1-43be-b978-266741ffc02a";
paths = (
{
closed = 1;
nodes = (
"32 0 LINE",
"115 212 LINE",
"540 212 LINE",
"592 81 LINE SMOOTH",
"611 34 OFFCURVE",
"659 0 OFFCURVE",
"720 0 CURVE SMOOTH",
"919 0 LINE",
"919 23 LINE",
"721 23 LINE SMOOTH",
"668 23 OFFCURVE",
"630 54 OFFCURVE",
"615 92 CURVE SMOOTH",
"515 345 LINE",
"877 345 LINE",
"877 368 LINE",
"506 368 LINE",
"464 474 LINE SMOOTH",
"428 581 OFFCURVE",
"473 677 OFFCURVE",
"602 677 CURVE SMOOTH",
"919 677 LINE",
"919 700 LINE",
"609 700 LINE SMOOTH",
"490 700 OFFCURVE",
"428 634 OFFCURVE",
"432 556 CURVE",
"394 651 LINE",
"378 696 OFFCURVE",
"358 713 OFFCURVE",
"326 713 CURVE SMOOTH",
"295 713 OFFCURVE",
"277 696 OFFCURVE",
"259 650 CURVE SMOOTH",
"5 0 LINE"
);
},
{
closed = 1;
nodes = (
"283 642 LINE SMOOTH",
"295 672 OFFCURVE",
"303 690 OFFCURVE",
"326 690 CURVE SMOOTH",
"349 690 OFFCURVE",
"358 671 OFFCURVE",
"370 642 CURVE SMOOTH",
"531 235 LINE",
"124 235 LINE"
);
}
);
width = 934;
},
{
hints = (
{
horizontal = 1;
place = "{0, 126}";
type = Stem;
},
{
horizontal = 1;
place = "{141, 126}";
type = Stem;
},
{
horizontal = 1;
place = "{293, 126}";
type = Stem;
},
{
horizontal = 1;
place = "{574, 126}";
type = Stem;
},
{
horizontal = 1;
place = "{712, -20}";
target = down;
type = TopGhost;
}
);
layerId = "41AFA816-2F69-4745-BF67-F6DEA15443A0";
paths = (
{
closed = 1;
nodes = (
"150 0 LINE",
"199 141 LINE",
"525 141 LINE",
"540 98 LINE SMOOTH",
"559 44 OFFCURVE",
"612 0 OFFCURVE",
"688 0 CURVE",
"942 0 LINE",
"942 126 LINE",
"730 126 LINE SMOOTH",
"693 126 OFFCURVE",
"675 143 OFFCURVE",
"662 180 CURVE SMOOTH",
"620 293 LINE",
"908 293 LINE",
"908 419 LINE",
"574 419 LINE",
"556 470 LINE SMOOTH",
"540 511 OFFCURVE",
"569 574 OFFCURVE",
"629 574 CURVE SMOOTH",
"942 574 LINE",
"942 700 LINE",
"610 700 LINE SMOOTH",
"562 700 OFFCURVE",
"515 682 OFFCURVE",
"485 645 CURVE",
"482 649 LINE SMOOTH",
"448 692 OFFCURVE",
"412 712 OFFCURVE",
"364 712 CURVE SMOOTH",
"303 712 OFFCURVE",
"250 682 OFFCURVE",
"228 622 CURVE SMOOTH",
"0 0 LINE"
);
},
{
closed = 1;
nodes = (
"349 574 LINE SMOOTH",
"352 582 OFFCURVE",
"357 587 OFFCURVE",
"365 587 CURVE SMOOTH",
"373 587 OFFCURVE",
"379 583 OFFCURVE",
"382 574 CURVE SMOOTH",
"483 267 LINE",
"242 267 LINE"
);
}
);
width = 982;
},
{
hints = (
{
horizontal = 1;
place = "{219.75, 126}";
type = Stem;
},
{
horizontal = 1;
place = "{255, 126}";
type = Stem;
},
{
horizontal = 1;
place = "{503.75, 126}";
type = Stem;
},
{
horizontal = 1;
place = "{574, 126}";
type = Stem;
},
{
horizontal = 1;
place = "{712, -20}";
target = down;
type = TopGhost;
}
);
layerId = "32E5C913-0890-451E-8980-44FAA246AB8A";
paths = (
{
closed = 1;
nodes = (
"214 0 LINE",
"260 131 LINE",
"508 131 LINE",
"512 118 LINE SMOOTH",
"541 46 OFFCURVE",
"614 0 OFFCURVE",
"704 0 CURVE",
"974 0 LINE",
"974 170 LINE",
"753 169 LINE SMOOTH",
"718 169 OFFCURVE",
"697 196 OFFCURVE",
"684 239 CURVE SMOOTH",
"673 270 LINE",
"941 270 LINE",
"941 434 LINE",
"612 434 LINE",
"606 449 LINE SMOOTH",
"588 497 OFFCURVE",
"604 533 OFFCURVE",
"647 533 CURVE SMOOTH",
"974 533 LINE",
"974 700 LINE",
"640 700 LINE SMOOTH",
"588 700 OFFCURVE",
"548 684 OFFCURVE",
"521 653 CURVE",
"519 656 LINE SMOOTH",
"486 694 OFFCURVE",
"439 713 OFFCURVE",
"385 713 CURVE SMOOTH",
"311 713 OFFCURVE",
"249 678 OFFCURVE",
"224 612 CURVE SMOOTH",
"0 0 LINE"
);
},
{
closed = 1;
nodes = (
"379 511 LINE SMOOTH",
"381 515 OFFCURVE",
"383 520 OFFCURVE",
"385 520 CURVE SMOOTH",
"388 520 OFFCURVE",
"390 516 OFFCURVE",
"392 511 CURVE SMOOTH",
"463 296 LINE",
"304 296 LINE"
);
}
);
width = 996;
}
);
leftKerningGroup = A_2nd;
rightKerningGroup = E_1st;
unicode = 00C6;
},
{
glyphname = B;
layers = (
{
background = {
paths = (
{
closed = 1;
nodes = (
"225 574 LINE",
"449 574 LINE SMOOTH",
"493 574 OFFCURVE",
"528 539 OFFCURVE",
"528 495 CURVE SMOOTH",
"528 451 OFFCURVE",
"493 416 OFFCURVE",
"449 416 CURVE SMOOTH",
"225 416 LINE",
"225 296 LINE",
"462 296 LINE SMOOTH",
"509 296 OFFCURVE",
"547 258 OFFCURVE",
"547 211 CURVE SMOOTH",
"547 164 OFFCURVE",
"509 126 OFFCURVE",
"462 126 CURVE SMOOTH",
"225 126 LINE",
"225 0 LINE",
"503 0 LINE SMOOTH",
"606 0 OFFCURVE",
"690 73 OFFCURVE",
"690 186 CURVE SMOOTH",
"690 268 OFFCURVE",
"636 338 OFFCURVE",
"563 363 CURVE",
"626 388 OFFCURVE",
"671 449 OFFCURVE",
"671 520 CURVE SMOOTH",
"671 629 OFFCURVE",
"590 700 OFFCURVE",
"491 700 CURVE SMOOTH",
"225 700 LINE"
);
},
{
closed = 1;
nodes = (
"98 700 LINE",
"98 0 LINE",
"241 0 LINE",
"241 110 LINE",
"241 700 LINE"
);
},
{
closed = 1;
nodes = (
"443 0 LINE SMOOTH",
"579 0 OFFCURVE",
"641 95 OFFCURVE",
"641 187 CURVE SMOOTH",
"641 270 OFFCURVE",
"584 345 OFFCURVE",
"493 360 CURVE",
"574 380 OFFCURVE",
"620 455 OFFCURVE",
"620 526 CURVE SMOOTH",
"620 615 OFFCURVE",
"556 700 OFFCURVE",
"441 700 CURVE SMOOTH",
"94 700 LINE",
"94 677 LINE",
"437 677 LINE SMOOTH",
"537 677 OFFCURVE",
"595 604 OFFCURVE",
"595 526 CURVE SMOOTH",
"595 447 OFFCURVE",
"534 369 OFFCURVE",
"426 369 CURVE SMOOTH",
"94 369 LINE",
"94 345 LINE",
"441 345 LINE SMOOTH",
"556 345 OFFCURVE",
"616 267 OFFCURVE",
"616 187 CURVE SMOOTH",
"616 105 OFFCURVE",
"560 24 OFFCURVE",
"449 24 CURVE SMOOTH",
"94 24 LINE",
"94 0 LINE"
);
},
{
closed = 1;
nodes = (
"110 0 LINE",
"110 700 LINE",
"85 700 LINE",
"85 0 LINE"
);
}
);
};
hints = (
{
place = "{70, 143}";
type = Stem;
},
{
place = "{500, 143}";
type = Stem;
},
{
place = "{519, 143}";
type = Stem;
},
{
horizontal = 1;
place = "{0, 126}";
type = Stem;
},
{
horizontal = 1;
place = "{296, 120}";
type = Stem;
},
{
horizontal = 1;
place = "{574, 126}";
type = Stem;
}
);
layerId = "5dd0c03f-0ac1-43be-b978-266741ffc02a";
paths = (
{
closed = 1;
nodes = (
"443 0 LINE SMOOTH",
"579 0 OFFCURVE",
"641 95 OFFCURVE",
"641 187 CURVE SMOOTH",
"641 270 OFFCURVE",
"584 345 OFFCURVE",
"493 360 CURVE",
"574 380 OFFCURVE",
"624 455 OFFCURVE",
"624 526 CURVE SMOOTH",
"624 615 OFFCURVE",
"560 700 OFFCURVE",
"445 700 CURVE SMOOTH",
"85 700 LINE",
"85 0 LINE"
);
},
{
closed = 1;
nodes = (
"110 345 LINE",
"441 345 LINE SMOOTH",
"556 345 OFFCURVE",
"616 267 OFFCURVE",
"616 187 CURVE SMOOTH",
"616 105 OFFCURVE",
"560 24 OFFCURVE",
"449 24 CURVE SMOOTH",
"110 24 LINE"
);
},
{
closed = 1;
nodes = (
"110 677 LINE",
"441 677 LINE SMOOTH",
"541 677 OFFCURVE",
"599 604 OFFCURVE",
"599 526 CURVE SMOOTH",
"599 447 OFFCURVE",
"534 369 OFFCURVE",
"426 369 CURVE SMOOTH",
"110 369 LINE"
);
}
);
width = 686;
},
{
hints = (
{
place = "{70, 143}";
type = Stem;
},
{
place = "{500, 143}";
type = Stem;
},
{
place = "{519, 143}";
type = Stem;
},
{
horizontal = 1;
place = "{0, 126}";
type = Stem;
},
{
horizontal = 1;
place = "{296, 120}";
type = Stem;
},
{
horizontal = 1;
place = "{574, 126}";
type = Stem;
}
);
layerId = "41AFA816-2F69-4745-BF67-F6DEA15443A0";
paths = (
{
closed = 1;
nodes = (
"475 0 LINE SMOOTH",
"578 0 OFFCURVE",
"662 73 OFFCURVE",
"662 186 CURVE SMOOTH",
"662 268 OFFCURVE",
"608 338 OFFCURVE",
"535 363 CURVE",
"598 388 OFFCURVE",
"643 449 OFFCURVE",
"643 520 CURVE SMOOTH",
"643 629 OFFCURVE",
"562 700 OFFCURVE",
"463 700 CURVE SMOOTH",
"70 700 LINE",
"70 0 LINE"
);
},
{
closed = 1;
nodes = (
"213 296 LINE",
"434 296 LINE SMOOTH",
"481 296 OFFCURVE",
"519 258 OFFCURVE",
"519 211 CURVE SMOOTH",
"519 164 OFFCURVE",
"481 126 OFFCURVE",
"434 126 CURVE SMOOTH",
"213 126 LINE"
);
},
{
closed = 1;
nodes = (
"213 574 LINE",
"421 574 LINE SMOOTH",
"465 574 OFFCURVE",
"500 539 OFFCURVE",
"500 495 CURVE SMOOTH",
"500 451 OFFCURVE",
"465 416 OFFCURVE",
"421 416 CURVE SMOOTH",
"213 416 LINE"
);
}
);
width = 702;
},
{
hints = (
{
place = "{70, 143}";
type = Stem;
},
{
place = "{500, 143}";
type = Stem;
},
{
place = "{519, 143}";
type = Stem;
},
{
horizontal = 1;
place = "{0, 126}";
type = Stem;
},
{
horizontal = 1;
place = "{296, 120}";
type = Stem;
},
{
horizontal = 1;
place = "{574, 126}";
type = Stem;
}
);
layerId = "32E5C913-0890-451E-8980-44FAA246AB8A";
paths = (
{
closed = 1;
nodes = (
"486 0 LINE SMOOTH",
"602 0 OFFCURVE",
"697 78 OFFCURVE",
"697 197 CURVE SMOOTH",
"697 267 OFFCURVE",
"656 328 OFFCURVE",
"597 363 CURVE",
"646 396 OFFCURVE",
"680 450 OFFCURVE",
"680 508 CURVE SMOOTH",
"680 624 OFFCURVE",
"588 700 OFFCURVE",
"474 700 CURVE SMOOTH",
"44 700 LINE",
"44 0 LINE"
);
},
{
closed = 1;
nodes = (
"260 270 LINE",
"437 270 LINE SMOOTH",
"468 270 OFFCURVE",
"488 247 OFFCURVE",
"488 218 CURVE SMOOTH",
"488 187 OFFCURVE",
"468 164 OFFCURVE",
"437 164 CURVE SMOOTH",
"260 164 LINE"
);
},
{
closed = 1;
nodes = (
"260 531 LINE",
"412 531 LINE SMOOTH",
"443 531 OFFCURVE",
"461 508 OFFCURVE",
"461 481 CURVE SMOOTH",
"461 455 OFFCURVE",
"442 430 OFFCURVE",
"412 430 CURVE SMOOTH",
"260 430 LINE"
);
}
);
width = 726;
}
);
leftKerningGroup = H_2nd;
rightKerningGroup = S_1st;
unicode = 0042;
},
{
glyphname = C;
layers = (
{
background = {
paths = (
{
closed = 1;
nodes = (
"498 0 LINE",
"498 126 LINE",
"392 126 LINE",
"265 128 OFFCURVE",
"173 222 OFFCURVE",
"173 350 CURVE SMOOTH",
"173 477 OFFCURVE",
"265 572 OFFCURVE",
"392 574 CURVE",
"498 574 LINE",
"498 700 LINE",
"389 700 LINE",
"171 696 OFFCURVE",
"30 542 OFFCURVE",
"30 350 CURVE SMOOTH",
"30 158 OFFCURVE",
"171 4 OFFCURVE",
"389 0 CURVE"
);
}
);
};
hints = (
{
place = "{30, 143}";
type = Stem;
},
{
horizontal = 1;
place = "{0, 126}";
type = Stem;
},
{
horizontal = 1;
place = "{574, 126}";
type = Stem;
}
);
layerId = "5dd0c03f-0ac1-43be-b978-266741ffc02a";
paths = (
{
closed = 1;
nodes = (
"449 0 LINE",
"449 24 LINE",
"390 24 LINE SMOOTH",
"203 24 OFFCURVE",
"58 165 OFFCURVE",
"58 351 CURVE SMOOTH",
"58 535 OFFCURVE",
"203 677 OFFCURVE",
"390 677 CURVE SMOOTH",
"449 677 LINE",
"449 700 LINE",
"387 700 LINE SMOOTH",
"178 700 OFFCURVE",
"30 542 OFFCURVE",
"30 351 CURVE SMOOTH",
"30 159 OFFCURVE",
"178 0 OFFCURVE",
"387 0 CURVE SMOOTH"
);
}
);
width = 479;
},
{
hints = (
{
place = "{30, 143}";
type = Stem;
},
{
horizontal = 1;
place = "{0, 126}";
type = Stem;
},
{
horizontal = 1;
place = "{574, 126}";
type = Stem;
}
);
layerId = "41AFA816-2F69-4745-BF67-F6DEA15443A0";
paths = (
{
closed = 1;
nodes = (
"498 0 LINE",
"498 126 LINE",
"392 126 LINE",
"265 128 OFFCURVE",
"173 222 OFFCURVE",
"173 350 CURVE SMOOTH",
"173 477 OFFCURVE",
"265 572 OFFCURVE",
"392 574 CURVE",
"498 574 LINE",
"498 700 LINE",
"389 700 LINE",
"171 696 OFFCURVE",
"30 542 OFFCURVE",
"30 350 CURVE SMOOTH",
"30 158 OFFCURVE",
"171 4 OFFCURVE",
"389 0 CURVE"
);
}
);
width = 538;
},
{
hints = (
{
place = "{30, 143}";
type = Stem;
},
{
horizontal = 1;
place = "{0, 126}";
type = Stem;
},
{
horizontal = 1;
place = "{574, 126}";
type = Stem;
}
);
layerId = "32E5C913-0890-451E-8980-44FAA246AB8A";
paths = (
{
closed = 1;
nodes = (
"530 0 LINE",
"530 169 LINE",
"431 169 LINE",
"307 169 OFFCURVE",
"246 248 OFFCURVE",
"246 350 CURVE SMOOTH",
"246 452 OFFCURVE",
"307 531 OFFCURVE",
"431 531 CURVE",
"530 531 LINE",
"530 700 LINE",
"424 700 LINE",
"174 699 OFFCURVE",
"26 558 OFFCURVE",
"26 350 CURVE SMOOTH",
"26 142 OFFCURVE",
"173 1 OFFCURVE",
"424 0 CURVE"
);
}
);
width = 552;
}
);
leftKerningGroup = O_2nd;
rightKerningGroup = C_1st;
unicode = 0043;
},
{
glyphname = D;
layers = (
{
background = {
paths = (
{
closed = 1;
nodes = (
"321 0 LINE SMOOTH",
"544 0 OFFCURVE",
"688 146 OFFCURVE",
"688 350 CURVE SMOOTH",
"688 554 OFFCURVE",
"544 700 OFFCURVE",
"321 700 CURVE SMOOTH",
"85 700 LINE",
"85 0 LINE"
);
},
{
closed = 1;
nodes = (
"228 574 LINE",
"321 574 LINE SMOOTH",
"450 574 OFFCURVE",
"545 489 OFFCURVE",
"545 350 CURVE SMOOTH",
"545 211 OFFCURVE",
"450 126 OFFCURVE",
"321 126 CURVE SMOOTH",
"228 126 LINE"
);
}
);
};
hints = (
{
place = "{70, 143}";
type = Stem;
},
{
place = "{530, 143}";
type = Stem;
},
{
horizontal = 1;
place = "{0, 126}";
type = Stem;
},
{
horizontal = 1;
place = "{574, 126}";
type = Stem;
}
);
layerId = "5dd0c03f-0ac1-43be-b978-266741ffc02a";
paths = (
{
closed = 1;
nodes = (
"292 0 LINE SMOOTH",
"512 0 OFFCURVE",
"654 147 OFFCURVE",
"654 351 CURVE SMOOTH",
"654 554 OFFCURVE",
"512 700 OFFCURVE",
"292 700 CURVE SMOOTH",
"85 700 LINE",
"85 0 LINE"
);
},
{
closed = 1;
nodes = (
"110 677 LINE",
"294 677 LINE SMOOTH",
"486 677 OFFCURVE",
"629 553 OFFCURVE",
"629 351 CURVE SMOOTH",
"629 147 OFFCURVE",
"486 23 OFFCURVE",
"294 23 CURVE SMOOTH",
"110 23 LINE"
);
}
);
width = 714;
},
{
hints = (
{
place = "{70, 143}";
type = Stem;
},
{
place = "{530, 143}";
type = Stem;
},
{
horizontal = 1;
place = "{0, 126}";
type = Stem;
},
{
horizontal = 1;
place = "{574, 126}";
type = Stem;
}
);
layerId = "41AFA816-2F69-4745-BF67-F6DEA15443A0";
paths = (
{
closed = 1;
nodes = (
"306 0 LINE SMOOTH",
"529 0 OFFCURVE",
"673 146 OFFCURVE",
"673 350 CURVE SMOOTH",
"673 554 OFFCURVE",
"529 700 OFFCURVE",
"306 700 CURVE SMOOTH",
"70 700 LINE",
"70 0 LINE"
);
},
{
closed = 1;
nodes = (
"213 574 LINE",
"306 574 LINE SMOOTH",
"435 574 OFFCURVE",
"530 489 OFFCURVE",
"530 350 CURVE SMOOTH",
"530 211 OFFCURVE",
"435 126 OFFCURVE",
"306 126 CURVE SMOOTH",
"213 126 LINE"
);
}
);
width = 703;
},
{
hints = (
{
place = "{70, 143}";
type = Stem;
},
{
place = "{530, 143}";
type = Stem;
},
{
horizontal = 1;
place = "{0, 126}";
type = Stem;
},
{
horizontal = 1;
place = "{574, 126}";
type = Stem;
}
);
layerId = "32E5C913-0890-451E-8980-44FAA246AB8A";
paths = (
{
closed = 1;
nodes = (
"341 0 LINE SMOOTH",
"561 0 OFFCURVE",
"702 145 OFFCURVE",
"702 350 CURVE SMOOTH",
"702 554 OFFCURVE",
"561 700 OFFCURVE",
"341 700 CURVE SMOOTH",
"44 700 LINE",
"44 0 LINE"
);
},
{
closed = 1;
nodes = (
"260 531 LINE",
"329 531 LINE SMOOTH",
"418 531 OFFCURVE",
"484 462 OFFCURVE",
"484 350 CURVE SMOOTH",
"484 237 OFFCURVE",
"418 169 OFFCURVE",
"329 169 CURVE SMOOTH",
"260 169 LINE"
);
}
);
width = 728;
}
);
leftKerningGroup = H_2nd;
rightKerningGroup = O_1st;
unicode = 0044;
},
{
glyphname = Eth;
layers = (
{
background = {
components = (
{
name = D;
}
);
paths = (
{
closed = 1;
nodes = (
"318 346 LINE",
"318 369 LINE",
"0 369 LINE",
"0 346 LINE"
);
}
);
};
hints = (
{
place = "{70, 143}";
type = Stem;
},
{
place = "{530, 143}";
type = Stem;
},
{
horizontal = 1;
place = "{0, 126}";
type = Stem;
},
{
horizontal = 1;
place = "{290, 125}";
type = Stem;
},
{
horizontal = 1;
place = "{574, 126}";
type = Stem;
},
{
place = "{70, 143}";
type = Stem;
},
{
place = "{530, 143}";
type = Stem;
},
{
horizontal = 1;
place = "{0, 126}";
type = Stem;
},
{
horizontal = 1;
place = "{574, 126}";
type = Stem;
}
);
layerId = "5dd0c03f-0ac1-43be-b978-266741ffc02a";
paths = (
{
closed = 1;
nodes = (
"292 0 LINE SMOOTH",
"512 0 OFFCURVE",
"654 147 OFFCURVE",
"654 351 CURVE SMOOTH",
"654 554 OFFCURVE",
"512 700 OFFCURVE",
"292 700 CURVE SMOOTH",
"85 700 LINE",
"85 369 LINE",
"0 369 LINE",
"0 346 LINE",
"85 346 LINE",
"85 0 LINE"
);
},
{
closed = 1;
nodes = (
"110 346 LINE",
"318 346 LINE",
"318 369 LINE",
"110 369 LINE",
"110 677 LINE",
"294 677 LINE SMOOTH",
"486 677 OFFCURVE",
"629 553 OFFCURVE",
"629 351 CURVE SMOOTH",
"629 147 OFFCURVE",
"486 23 OFFCURVE",
"294 23 CURVE SMOOTH",
"110 23 LINE"
);
}
);
width = 714;
},
{
background = {
paths = (
{
closed = 1;
nodes = (
"306 0 LINE SMOOTH",
"529 0 OFFCURVE",
"673 146 OFFCURVE",
"673 350 CURVE SMOOTH",
"673 554 OFFCURVE",
"529 700 OFFCURVE",
"306 700 CURVE SMOOTH",
"70 700 LINE",
"70 0 LINE"
);
},
{
closed = 1;
nodes = (
"213 574 LINE",
"306 574 LINE SMOOTH",
"435 574 OFFCURVE",
"530 489 OFFCURVE",
"530 350 CURVE SMOOTH",
"530 211 OFFCURVE",
"435 126 OFFCURVE",
"306 126 CURVE SMOOTH",
"213 126 LINE"
);
},
{
closed = 1;
nodes = (
"318 290 LINE",
"318 415 LINE",
"0 415 LINE",
"0 290 LINE"
);
}
);
};
hints = (
{
place = "{70, 143}";
type = Stem;
},
{
place = "{530, 143}";
type = Stem;
},
{
horizontal = 1;
place = "{0, 126}";
type = Stem;
},
{
horizontal = 1;
place = "{290, 125}";
type = Stem;
},
{
horizontal = 1;
place = "{574, 126}";
type = Stem;
}
);
layerId = "41AFA816-2F69-4745-BF67-F6DEA15443A0";
paths = (
{
closed = 1;
nodes = (
"306 0 LINE SMOOTH",
"529 0 OFFCURVE",
"673 146 OFFCURVE",
"673 350 CURVE SMOOTH",
"673 554 OFFCURVE",
"529 700 OFFCURVE",
"306 700 CURVE SMOOTH",
"70 700 LINE",
"70 415 LINE",
"0 415 LINE",
"0 290 LINE",
"70 290 LINE",
"70 0 LINE"
);
},
{
closed = 1;
nodes = (
"213 290 LINE",
"318 290 LINE",
"318 415 LINE",
"213 415 LINE",
"213 574 LINE",
"306 574 LINE SMOOTH",
"435 574 OFFCURVE",
"530 489 OFFCURVE",
"530 350 CURVE SMOOTH",
"530 211 OFFCURVE",
"435 126 OFFCURVE",
"306 126 CURVE SMOOTH",
"213 126 LINE"
);
}
);
width = 703;
},
{
hints = (
{
place = "{414.25, 143}";
type = Stem;
},
{
place = "{530, 143}";
type = Stem;
},
{
horizontal = 1;
place = "{0, 126}";
type = Stem;
},
{
horizontal = 1;
place = "{290, 125}";
type = Stem;
},
{
horizontal = 1;
place = "{574, 126}";
type = Stem;
}
);
layerId = "32E5C913-0890-451E-8980-44FAA246AB8A";
paths = (
{
closed = 1;
nodes = (
"340 0 LINE SMOOTH",
"560 0 OFFCURVE",
"701 145 OFFCURVE",
"701 350 CURVE SMOOTH",
"701 554 OFFCURVE",
"560 700 OFFCURVE",
"340 700 CURVE SMOOTH",
"43 700 LINE",
"43 415 LINE",
"-4 415 LINE",
"-4 290 LINE",
"43 290 LINE",
"43 0 LINE"
);
},
{
closed = 1;
nodes = (
"259 290 LINE",
"349 290 LINE",
"349 415 LINE",
"259 415 LINE",
"259 531 LINE",
"329 531 LINE SMOOTH",
"417 531 OFFCURVE",
"483 462 OFFCURVE",
"483 350 CURVE SMOOTH",
"483 237 OFFCURVE",
"417 169 OFFCURVE",
"329 169 CURVE SMOOTH",
"259 169 LINE"
);
}
);
width = 727;
}
);
leftKerningGroup = H_2nd;
rightKerningGroup = O_1st;
unicode = 00D0;
},
{
glyphname = E;
layers = (
{
background = {
paths = (
{
closed = 1;
nodes = (
"553 0 LINE",
"553 126 LINE",
"287 126 LINE SMOOTH",
"241 126 OFFCURVE",
"204 163 OFFCURVE",
"204 209 CURVE SMOOTH",
"204 255 OFFCURVE",
"241 293 OFFCURVE",
"287 293 CURVE SMOOTH",
"519 293 LINE",
"519 419 LINE",
"281 419 LINE SMOOTH",
"238 419 OFFCURVE",
"204 453 OFFCURVE",
"204 496 CURVE SMOOTH",
"204 539 OFFCURVE",
"238 574 OFFCURVE",
"281 574 CURVE SMOOTH",
"553 574 LINE",
"553 700 LINE",
"265 700 LINE SMOOTH",
"152 700 OFFCURVE",
"61 609 OFFCURVE",
"61 496 CURVE SMOOTH",
"61 441 OFFCURVE",
"87 390 OFFCURVE",
"128 353 CURVE",
"87 316 OFFCURVE",
"61 265 OFFCURVE",
"61 209 CURVE SMOOTH",
"61 93 OFFCURVE",
"154 0 OFFCURVE",
"270 0 CURVE SMOOTH"
);
}
);
};
hints = (
{
place = "{40, 143}";
type = Stem;
},
{
horizontal = 1;
place = "{0, 126}";
type = Stem;
},
{
horizontal = 1;
place = "{293, 126}";
type = Stem;
},
{
horizontal = 1;
place = "{574, 126}";
type = Stem;
}
);
layerId = "5dd0c03f-0ac1-43be-b978-266741ffc02a";
paths = (
{
closed = 1;
nodes = (
"499 0 LINE",
"499 23 LINE",
"245 23 LINE SMOOTH",
"138 23 OFFCURVE",
"84 101 OFFCURVE",
"84 181 CURVE SMOOTH",
"84 263 OFFCURVE",
"140 345 OFFCURVE",
"255 345 CURVE SMOOTH",
"459 345 LINE",
"459 368 LINE",
"248 368 LINE SMOOTH",
"158 368 OFFCURVE",
"90 437 OFFCURVE",
"90 518 CURVE SMOOTH",
"90 606 OFFCURVE",
"152 676 OFFCURVE",
"242 676 CURVE SMOOTH",
"499 676 LINE",
"499 699 LINE",
"239 699 LINE SMOOTH",
"141 699 OFFCURVE",
"65 618 OFFCURVE",
"65 518 CURVE SMOOTH",
"65 452 OFFCURVE",
"100 388 OFFCURVE",
"180 356 CURVE",
"99 330 OFFCURVE",
"59 256 OFFCURVE",
"59 182 CURVE SMOOTH",
"59 91 OFFCURVE",
"121 0 OFFCURVE",
"238 0 CURVE SMOOTH"
);
}
);
width = 549;
},
{
hints = (
{
place = "{40, 143}";
type = Stem;
},
{
horizontal = 1;
place = "{0, 126}";
type = Stem;
},
{
horizontal = 1;
place = "{293, 126}";
type = Stem;
},
{
horizontal = 1;
place = "{574, 126}";
type = Stem;
}
);
layerId = "41AFA816-2F69-4745-BF67-F6DEA15443A0";
paths = (
{
closed = 1;
nodes = (
"532 0 LINE",
"532 126 LINE",
"266 126 LINE SMOOTH",
"220 126 OFFCURVE",
"183 163 OFFCURVE",
"183 209 CURVE SMOOTH",
"183 255 OFFCURVE",
"220 293 OFFCURVE",
"266 293 CURVE SMOOTH",
"498 293 LINE",
"498 419 LINE",
"260 419 LINE SMOOTH",
"217 419 OFFCURVE",
"183 453 OFFCURVE",
"183 496 CURVE SMOOTH",
"183 539 OFFCURVE",
"217 574 OFFCURVE",
"260 574 CURVE SMOOTH",
"532 574 LINE",
"532 700 LINE",
"244 700 LINE SMOOTH",
"131 700 OFFCURVE",
"40 609 OFFCURVE",
"40 496 CURVE SMOOTH",
"40 441 OFFCURVE",
"66 390 OFFCURVE",
"107 353 CURVE",
"66 316 OFFCURVE",
"40 265 OFFCURVE",
"40 209 CURVE SMOOTH",
"40 93 OFFCURVE",
"133 0 OFFCURVE",
"249 0 CURVE SMOOTH"
);
}
);
width = 572;
},
{
hints = (
{
place = "{-13.25, 35.75}";
type = Stem;
},
{
horizontal = 1;
place = "{0, 126}";
type = Stem;
},
{
horizontal = 1;
place = "{293, 126}";
type = Stem;
},
{
horizontal = 1;
place = "{574, 126}";
type = Stem;
}
);
layerId = "32E5C913-0890-451E-8980-44FAA246AB8A";
paths = (
{
closed = 1;
nodes = (
"560 0 LINE",
"560 170 LINE",
"298 170 LINE SMOOTH",
"264 170 OFFCURVE",
"240 187 OFFCURVE",
"240 218 CURVE SMOOTH",
"240 250 OFFCURVE",
"264 268 OFFCURVE",
"298 268 CURVE SMOOTH",
"525 268 LINE",
"525 436 LINE",
"297 436 LINE SMOOTH",
"264 436 OFFCURVE",
"240 453 OFFCURVE",
"240 483 CURVE SMOOTH",
"240 514 OFFCURVE",
"264 531 OFFCURVE",
"297 531 CURVE SMOOTH",
"560 530 LINE",
"560 700 LINE",
"249 700 LINE SMOOTH",
"132 700 OFFCURVE",
"37 619 OFFCURVE",
"37 502 CURVE SMOOTH",
"37 448 OFFCURVE",
"66 396 OFFCURVE",
"110 361 CURVE",
"59 323 OFFCURVE",
"29 266 OFFCURVE",
"29 203 CURVE SMOOTH",
"29 83 OFFCURVE",
"126 0 OFFCURVE",
"246 0 CURVE SMOOTH"
);
}
);
width = 596;
}
);
leftKerningGroup = H_2nd;
rightKerningGroup = E_1st;
unicode = 0045;
},
{
glyphname = Eogonek;
layers = (
{
background = {
paths = (
{
closed = 1;
nodes = (
"398 14 LINE",
"373 -23 OFFCURVE",
"349 -69 OFFCURVE",
"349 -111 CURVE SMOOTH",
"349 -181 OFFCURVE",
"398 -218 OFFCURVE",
"471 -218 CURVE SMOOTH",
"497 -218 OFFCURVE",
"516 -212 OFFCURVE",
"522 -210 CURVE",
"522 -185 LINE",
"501 -191 OFFCURVE",
"484 -194 OFFCURVE",
"468 -194 CURVE SMOOTH",
"410 -194 OFFCURVE",
"375 -164 OFFCURVE",
"375 -113 CURVE SMOOTH",
"375 -71 OFFCURVE",
"401 -23 OFFCURVE",
"427 14 CURVE"
);
},
{
closed = 1;
nodes = (
"427 14 LINE",
"450 46 OFFCURVE",
"472 70 OFFCURVE",
"476 74 CURVE",
"457 86 LINE",
"453 82 OFFCURVE",
"425 53 OFFCURVE",
"398 14 CURVE"
);
}
);
};
components = (
{
name = E;
}
);
hints = (
{
place = "{40, 143}";
type = Stem;
},
{
horizontal = 1;
place = "{0, 126}";
type = Stem;
},
{
horizontal = 1;
place = "{293, 126}";
type = Stem;
},
{
horizontal = 1;
place = "{574, 126}";
type = Stem;
},
{
place = "{349, 85}";
type = Stem;
},
{
place = "{349, 183}";
type = Stem;
},
{
horizontal = 1;
place = "{-218, 21}";
target = up;
type = BottomGhost;
},
{
place = "{349, 85}";
type = Stem;
},
{
place = "{349, 183}";
type = Stem;
},
{
horizontal = 1;
place = "{-218, 21}";
target = up;
type = BottomGhost;
}
);
layerId = "5dd0c03f-0ac1-43be-b978-266741ffc02a";
paths = (
{
closed = 1;
nodes = (
"497 -218 OFFCURVE",
"516 -212 OFFCURVE",
"522 -210 CURVE",
"522 -185 LINE",
"501 -191 OFFCURVE",
"484 -194 OFFCURVE",
"468 -194 CURVE SMOOTH",
"410 -194 OFFCURVE",
"375 -164 OFFCURVE",
"375 -113 CURVE SMOOTH",
"375 -71 OFFCURVE",
"401 -23 OFFCURVE",
"427 14 CURVE",
"398 14 LINE",
"373 -23 OFFCURVE",
"349 -69 OFFCURVE",
"349 -111 CURVE SMOOTH",
"349 -181 OFFCURVE",
"398 -218 OFFCURVE",
"471 -218 CURVE SMOOTH"
);
}
);
width = 549;
},
{
background = {
components = (
{
alignment = -1;
name = E;
},
{
alignment = -1;
name = ogonek;
transform = "{1, 0, 0, 1, 342, 0}";
}
);
};
components = (
{
alignment = -1;
name = E;
}
);
hints = (
{
place = "{40, 143}";
type = Stem;
},
{
horizontal = 1;
place = "{0, 126}";
type = Stem;
},
{
horizontal = 1;
place = "{293, 126}";
type = Stem;
},
{
horizontal = 1;
place = "{574, 126}";
type = Stem;
},
{
place = "{349, 85}";
type = Stem;
},
{
place = "{349, 183}";
type = Stem;
},
{
horizontal = 1;
place = "{-218, 21}";
target = up;
type = BottomGhost;
},
{
place = "{349, 85}";
type = Stem;
},
{
place = "{349, 183}";
type = Stem;
},
{
horizontal = 1;
place = "{-218, 21}";
target = up;
type = BottomGhost;
}
);
layerId = "41AFA816-2F69-4745-BF67-F6DEA15443A0";
paths = (
{
closed = 1;
nodes = (
"494 -218 OFFCURVE",
"518 -215 OFFCURVE",
"532 -211 CURVE",
"532 -126 LINE",
"518 -131 OFFCURVE",
"504 -134 OFFCURVE",
"489 -134 CURVE SMOOTH",
"458 -134 OFFCURVE",
"434 -112 OFFCURVE",
"434 -80 CURVE SMOOTH",
"434 -29 OFFCURVE",
"493 57 OFFCURVE",
"499 66 CURVE",
"464 86 LINE",
"457 78 OFFCURVE",
"349 -33 OFFCURVE",
"349 -104 CURVE SMOOTH",
"349 -181 OFFCURVE",
"408 -218 OFFCURVE",
"480 -218 CURVE SMOOTH"
);
}
);
width = 572;
},
{
components = (
{
alignment = -1;
name = E;
}
);
hints = (
{
place = "{10, 35.75}";
type = Stem;
},
{
horizontal = 1;
place = "{0, 126}";
type = Stem;
},
{
horizontal = 1;
place = "{293, 126}";
type = Stem;
},
{
horizontal = 1;
place = "{574, 126}";
type = Stem;
},
{
place = "{87.25, 21.25}";
type = Stem;
},
{
place = "{349, 109.5}";
type = Stem;
},
{
horizontal = 1;
place = "{-54.5, 5.25}";
target = up;
type = BottomGhost;
},
{
place = "{117.25, 128.5}";
type = Stem;
},
{
place = "{349, 183}";
type = Stem;
},
{
horizontal = 1;
place = "{-218, 21}";
target = up;
type = BottomGhost;
}
);
layerId = "32E5C913-0890-451E-8980-44FAA246AB8A";
paths = (
{
closed = 1;
nodes = (
"494 -219 OFFCURVE",
"526 -215 OFFCURVE",
"544 -210 CURVE",
"544 -117 LINE",
"532 -121 OFFCURVE",
"516 -124 OFFCURVE",
"500 -124 CURVE SMOOTH",
"466 -124 OFFCURVE",
"448 -104 OFFCURVE",
"448 -77 CURVE SMOOTH",
"448 -29 OFFCURVE",
"513 62 OFFCURVE",
"517 69 CURVE",
"460 95 LINE",
"453 87 OFFCURVE",
"338 -26 OFFCURVE",
"337 -106 CURVE SMOOTH",
"336 -186 OFFCURVE",
"395 -219 OFFCURVE",
"473 -219 CURVE SMOOTH"
);
}
);
width = 596;
}
);
leftKerningGroup = H_2nd;
rightKerningGroup = E_1st;
unicode = 0118;
},
{
glyphname = F;
layers = (
{
background = {
paths = (
{
closed = 1;
nodes = (
"228 0 LINE",
"228 257 LINE",
"508 257 LINE",
"508 383 LINE",
"228 383 LINE",
"228 496 LINE SMOOTH",
"228 539 OFFCURVE",
"262 574 OFFCURVE",
"305 574 CURVE SMOOTH",
"542 574 LINE",
"542 700 LINE",
"289 700 LINE SMOOTH",
"176 700 OFFCURVE",
"85 609 OFFCURVE",
"85 496 CURVE SMOOTH",
"85 0 LINE"
);
}
);
};
hints = (
{
place = "{58, 143}";
type = Stem;
},
{
horizontal = 1;
place = "{257, 126}";
type = Stem;
},
{
horizontal = 1;
place = "{574, 126}";
type = Stem;
},
{
horizontal = 1;
place = "{0, 21}";
target = up;
type = BottomGhost;
},
{
place = "{-135, -143}";
type = Stem;
},
{
place = "{350, -143}";
type = Stem;
},
{
horizontal = 1;
place = "{700, -126}";
type = Stem;
},
{
horizontal = 1;
place = "{127, -127}";
type = Stem;
}
);
layerId = "5dd0c03f-0ac1-43be-b978-266741ffc02a";
paths = (
{
closed = 1;
nodes = (
"110 0 LINE",
"110 342 LINE",
"437 342 LINE",
"437 365 LINE",
"110 365 LINE",
"110 551 LINE SMOOTH",
"110 626 OFFCURVE",
"156 677 OFFCURVE",
"237 677 CURVE SMOOTH",
"477 677 LINE",
"477 700 LINE",
"235 700 LINE SMOOTH",
"141 700 OFFCURVE",
"87 643 OFFCURVE",
"85 551 CURVE SMOOTH",
"85 0 LINE"
);
}
);
width = 512;
},
{
hints = (
{
place = "{58, 143}";
type = Stem;
},
{
horizontal = 1;
place = "{257, 126}";
type = Stem;
},
{
horizontal = 1;
place = "{574, 126}";
type = Stem;
},
{
horizontal = 1;
place = "{0, 21}";
target = up;
type = BottomGhost;
}
);
layerId = "41AFA816-2F69-4745-BF67-F6DEA15443A0";
paths = (
{
closed = 1;
nodes = (
"201 0 LINE",
"201 257 LINE",
"481 257 LINE",
"481 383 LINE",
"201 383 LINE",
"201 496 LINE SMOOTH",
"201 539 OFFCURVE",
"235 574 OFFCURVE",
"278 574 CURVE SMOOTH",
"515 574 LINE",
"515 700 LINE",
"262 700 LINE SMOOTH",
"149 700 OFFCURVE",
"58 609 OFFCURVE",
"58 496 CURVE SMOOTH",
"58 0 LINE"
);
}
);
width = 550;
},
{
hints = (
{
place = "{58, 143}";
type = Stem;
},
{
horizontal = 1;
place = "{257, 126}";
type = Stem;
},
{
horizontal = 1;
place = "{574, 126}";
type = Stem;
},
{
horizontal = 1;
place = "{0, 21}";
target = up;
type = BottomGhost;
}
);
layerId = "32E5C913-0890-451E-8980-44FAA246AB8A";
paths = (
{
closed = 1;
nodes = (
"257 0 LINE",
"257 240 LINE",
"518 240 LINE",
"518 405 LINE",
"257 405 LINE",
"257 482 LINE SMOOTH",
"257 510 OFFCURVE",
"278 531 OFFCURVE",
"306 531 CURVE SMOOTH",
"550 531 LINE",
"550 700 LINE",
"273 700 LINE SMOOTH",
"139 700 OFFCURVE",
"41 608 OFFCURVE",
"41 486 CURVE SMOOTH",
"41 0 LINE"
);
}
);
width = 570;
}
);
leftKerningGroup = H_2nd;
leftMetricsKey = F;
rightKerningGroup = F_1st;
unicode = 0046;
},
{
glyphname = G;
layers = (
{
background = {
paths = (
{
closed = 1;
nodes = (
"708 -224 OFFCURVE",
"778 -174 OFFCURVE",
"778 -60 CURVE SMOOTH",
"778 347 LINE",
"753 347 LINE",
"753 299 LINE",
"527 188 OFFCURVE",
"480 43 OFFCURVE",
"480 -60 CURVE SMOOTH",
"480 -168 OFFCURVE",
"555 -224 OFFCURVE",
"631 -224 CURVE SMOOTH"
);
},
{
closed = 1;
nodes = (
"566 -199 OFFCURVE",
"507 -150 OFFCURVE",
"507 -59 CURVE SMOOTH",
"507 29 OFFCURVE",
"547 168 OFFCURVE",
"753 269 CURVE",
"753 -63 LINE SMOOTH",
"753 -156 OFFCURVE",
"695 -199 OFFCURVE",
"629 -199 CURVE SMOOTH"
);
},
{
closed = 1;
nodes = (
"508 22 LINE",
"469 12 OFFCURVE",
"451 10 OFFCURVE",
"419 10 CURVE SMOOTH",
"226 10 OFFCURVE",
"85 156 OFFCURVE",
"85 350 CURVE SMOOTH",
"85 544 OFFCURVE",
"226 690 OFFCURVE",
"419 690 CURVE SMOOTH",
"612 690 OFFCURVE",
"753 544 OFFCURVE",
"753 350 CURVE SMOOTH",
"753 338 OFFCURVE",
"755 326 OFFCURVE",
"754 314 CURVE",
"776 313 LINE",
"777 325 OFFCURVE",
"778 337 OFFCURVE",
"778 350 CURVE SMOOTH",
"778 551 OFFCURVE",
"637 713 OFFCURVE",
"419 713 CURVE SMOOTH",
"202 713 OFFCURVE",
"60 551 OFFCURVE",
"60 350 CURVE SMOOTH",
"60 149 OFFCURVE",
"202 -13 OFFCURVE",
"419 -13 CURVE SMOOTH",
"451 -13 OFFCURVE",
"473 -10 OFFCURVE",
"500 -5 CURVE"
);
}
);
};
hints = (
{
place = "{384, 133}";
type = Stem;
},
{
place = "{601, 143}";
type = Stem;
},
{
horizontal = 1;
place = "{8, 126}";
type = Stem;
},
{
place = "{475, 133}";
type = Stem;
},
{
place = "{693, 142}";
type = Stem;
},
{
horizontal = 1;
place = "{-218, 128}";
type = Stem;
},
{
horizontal = 1;
place = "{574, 126}";
type = Stem;
},
{
place = "{30, 143}";
type = Stem;
},
{
place = "{621, 143}";
type = Stem;
},
{
horizontal = 1;
place = "{-12, 126}";
type = Stem;
},
{
horizontal = 1;
place = "{586, 126}";
type = Stem;
},
{
place = "{30, 143}";
type = Stem;
},
{
place = "{621, 143}";
type = Stem;
},
{
horizontal = 1;
place = "{-12, 126}";
type = Stem;
},
{
horizontal = 1;
place = "{586, 126}";
type = Stem;
}
);
layerId = "5dd0c03f-0ac1-43be-b978-266741ffc02a";
paths = (
{
closed = 1;
nodes = (
"708 -224 OFFCURVE",
"778 -174 OFFCURVE",
"778 -60 CURVE SMOOTH",
"778 350 LINE SMOOTH",
"778 551 OFFCURVE",
"637 713 OFFCURVE",
"419 713 CURVE SMOOTH",
"202 713 OFFCURVE",
"60 551 OFFCURVE",
"60 350 CURVE SMOOTH",
"60 97 OFFCURVE",
"266 -41 OFFCURVE",
"484 -8 CURVE",
"481 -26 OFFCURVE",
"480 -44 OFFCURVE",
"480 -60 CURVE SMOOTH",
"480 -168 OFFCURVE",
"555 -224 OFFCURVE",
"631 -224 CURVE SMOOTH"
);
},
{
closed = 1;
nodes = (
"566 -199 OFFCURVE",
"507 -150 OFFCURVE",
"507 -59 CURVE SMOOTH",
"507 29 OFFCURVE",
"547 168 OFFCURVE",
"753 269 CURVE",
"753 -63 LINE SMOOTH",
"753 -156 OFFCURVE",
"695 -199 OFFCURVE",
"629 -199 CURVE SMOOTH"
);
},
{
closed = 1;
nodes = (
"226 10 OFFCURVE",
"85 156 OFFCURVE",
"85 350 CURVE SMOOTH",
"85 544 OFFCURVE",
"226 690 OFFCURVE",
"419 690 CURVE SMOOTH",
"612 690 OFFCURVE",
"753 544 OFFCURVE",
"753 350 CURVE SMOOTH",
"753 299 LINE",
"579 214 OFFCURVE",
"511 108 OFFCURVE",
"489 17 CURVE",
"462 11 OFFCURVE",
"445 10 OFFCURVE",
"419 10 CURVE SMOOTH"
);
}
);
width = 863;
},
{
hints = (
{
place = "{30, 143}";
type = Stem;
},
{
place = "{384, 133}";
type = Stem;
},
{
place = "{601, 143}";
type = Stem;
},
{
horizontal = 1;
place = "{-218, 128}";
type = Stem;
},
{
horizontal = 1;
place = "{8, 126}";
type = Stem;
},
{
horizontal = 1;
place = "{586, 126}";
type = Stem;
}
);
layerId = "41AFA816-2F69-4745-BF67-F6DEA15443A0";
paths = (
{
closed = 1;
nodes = (
"687 -218 OFFCURVE",
"744 -133 OFFCURVE",
"744 -28 CURVE SMOOTH",
"744 370 LINE SMOOTH",
"744 558 OFFCURVE",
"604 712 OFFCURVE",
"387 712 CURVE SMOOTH",
"170 712 OFFCURVE",
"30 554 OFFCURVE",
"30 360 CURVE SMOOTH",
"30 167 OFFCURVE",
"170 8 OFFCURVE",
"388 8 CURVE",
"385 -11 OFFCURVE",
"384 -29 OFFCURVE",
"384 -46 CURVE SMOOTH",
"384 -153 OFFCURVE",
"451 -218 OFFCURVE",
"568 -218 CURVE SMOOTH"
);
},
{
closed = 1;
nodes = (
"536 -90 OFFCURVE",
"517 -69 OFFCURVE",
"517 -30 CURVE SMOOTH",
"517 -9 OFFCURVE",
"510 67 OFFCURVE",
"601 146 CURVE",
"601 -30 LINE SMOOTH",
"601 -66 OFFCURVE",
"587 -90 OFFCURVE",
"559 -90 CURVE SMOOTH"
);
},
{
closed = 1;
nodes = (
"264 134 OFFCURVE",
"173 231 OFFCURVE",
"173 360 CURVE SMOOTH",
"173 489 OFFCURVE",
"264 586 OFFCURVE",
"387 586 CURVE SMOOTH",
"510 586 OFFCURVE",
"601 493 OFFCURVE",
"601 370 CURVE SMOOTH",
"601 291 LINE",
"525 245 OFFCURVE",
"474 192 OFFCURVE",
"440 140 CURVE",
"423 136 OFFCURVE",
"405 134 OFFCURVE",
"387 134 CURVE SMOOTH"
);
}
);
width = 794;
},
{
hints = (
{
place = "{30, 143}";
type = Stem;
},
{
place = "{384, 133}";
type = Stem;
},
{
place = "{601, 143}";
type = Stem;
},
{
horizontal = 1;
place = "{-218, 128}";
type = Stem;
},
{
horizontal = 1;
place = "{8, 126}";
type = Stem;
},
{
horizontal = 1;
place = "{586, 126}";
type = Stem;
}
);
layerId = "32E5C913-0890-451E-8980-44FAA246AB8A";
paths = (
{
closed = 1;
nodes = (
"701 -217 OFFCURVE",
"774 -117 OFFCURVE",
"774 -6 CURVE SMOOTH",
"774 353 LINE SMOOTH",
"774 567 OFFCURVE",
"622 713 OFFCURVE",
"399 713 CURVE SMOOTH",
"175 713 OFFCURVE",
"26 552 OFFCURVE",
"26 355 CURVE SMOOTH",
"26 159 OFFCURVE",
"160 13 OFFCURVE",
"339 1 CURVE",
"338 -11 OFFCURVE",
"338 -21 OFFCURVE",
"338 -30 CURVE SMOOTH",
"338 -138 OFFCURVE",
"422 -217 OFFCURVE",
"558 -217 CURVE SMOOTH"
);
},
{
closed = 1;
nodes = (
"532 -44 OFFCURVE",
"516 -28 OFFCURVE",
"516 2 CURVE SMOOTH",
"516 42 OFFCURVE",
"533 97 OFFCURVE",
"586 141 CURVE",
"586 2 LINE SMOOTH",
"586 -26 OFFCURVE",
"570 -44 OFFCURVE",
"550 -44 CURVE SMOOTH"
);
},
{
closed = 1;
nodes = (
"298 187 OFFCURVE",
"244 254 OFFCURVE",
"244 356 CURVE SMOOTH",
"244 461 OFFCURVE",
"311 539 OFFCURVE",
"401 539 CURVE SMOOTH",
"492 539 OFFCURVE",
"558 466 OFFCURVE",
"558 367 CURVE SMOOTH",
"558 329 LINE",
"496 291 OFFCURVE",
"434 233 OFFCURVE",
"395 177 CURVE",
"391 176 OFFCURVE",
"386 175 OFFCURVE",
"381 175 CURVE SMOOTH"
);
}
);
width = 813;
}
);
leftKerningGroup = O_2nd;
rightKerningGroup = S_1st;
unicode = 0047;
},
{
glyphname = H;
layers = (
{
background = {
paths = (
{
closed = 1;
nodes = (
"189 0 LINE",
"189 293 LINE",
"495 293 LINE",
"495 0 LINE",
"638 0 LINE",
"638 700 LINE",
"495 700 LINE",
"495 419 LINE",
"189 419 LINE",
"189 700 LINE",
"46 700 LINE",
"46 0 LINE"
);
}
);
};
hints = (
{
place = "{70, 143}";
type = Stem;
},
{
place = "{519, 143}";
type = Stem;
},
{
horizontal = 1;
place = "{293, 126}";
type = Stem;
},
{
horizontal = 1;
place = "{0, 21}";
target = up;
type = BottomGhost;
},
{
horizontal = 1;
place = "{700, -20}";
target = down;
type = TopGhost;
}
);
layerId = "5dd0c03f-0ac1-43be-b978-266741ffc02a";
paths = (
{
closed = 1;
nodes = (
"110 0 LINE",
"110 345 LINE",
"574 345 LINE",
"574 0 LINE",
"599 0 LINE",
"599 699 LINE",
"574 699 LINE",
"574 368 LINE",
"110 368 LINE",
"110 699 LINE",
"85 699 LINE",
"85 0 LINE"
);
}
);
width = 684;
},
{
hints = (
{
place = "{70, 143}";
type = Stem;
},
{
place = "{519, 143}";
type = Stem;
},
{
horizontal = 1;
place = "{293, 126}";
type = Stem;
},
{
horizontal = 1;
place = "{0, 21}";
target = up;
type = BottomGhost;
},
{
horizontal = 1;
place = "{700, -20}";
target = down;
type = TopGhost;
}
);
layerId = "41AFA816-2F69-4745-BF67-F6DEA15443A0";
paths = (
{
closed = 1;
nodes = (
"213 0 LINE",
"213 293 LINE",
"519 293 LINE",
"519 0 LINE",
"662 0 LINE",
"662 700 LINE",
"519 700 LINE",
"519 419 LINE",
"213 419 LINE",
"213 700 LINE",
"70 700 LINE",
"70 0 LINE"
);
}
);
width = 732;
},
{
hints = (
{
place = "{70, 143}";
type = Stem;
},
{
place = "{519, 143}";
type = Stem;
},
{
horizontal = 1;
place = "{293, 126}";
type = Stem;
},
{
horizontal = 1;
place = "{0, 21}";
target = up;
type = BottomGhost;
},
{
horizontal = 1;
place = "{700, -20}";
target = down;
type = TopGhost;
}
);
layerId = "32E5C913-0890-451E-8980-44FAA246AB8A";
paths = (
{
closed = 1;
nodes = (
"260 0 LINE",
"260 269 LINE",
"469 269 LINE",
"469 0 LINE",
"685 0 LINE",
"685 700 LINE",
"469 700 LINE",
"469 438 LINE",
"260 438 LINE",
"260 700 LINE",
"44 700 LINE",
"44 0 LINE"
);
}
);
width = 728;
}
);
leftKerningGroup = H_2nd;
rightKerningGroup = H_1st;
unicode = 0048;
},
{
glyphname = Hbar;
layers = (
{
components = (
{
alignment = -1;
name = H;
}
);
hints = (
{
place = "{70, 143}";
type = Stem;
},
{
place = "{519, 143}";
type = Stem;
},
{
horizontal = 1;
place = "{293, 126}";
type = Stem;
},
{
horizontal = 1;
place = "{0, 21}";
target = up;
type = BottomGhost;
},
{
horizontal = 1;
place = "{700, -20}";
target = down;
type = TopGhost;
},
{
horizontal = 1;
place = "{776, 21}";
target = up;
type = BottomGhost;
},
{
horizontal = 1;
place = "{873, -20}";
target = down;
type = TopGhost;
},
{
horizontal = 1;
place = "{522, 21}";
target = up;
type = BottomGhost;
},
{
horizontal = 1;
place = "{619, -20}";
target = down;
type = TopGhost;
}
);
layerId = "5dd0c03f-0ac1-43be-b978-266741ffc02a";
paths = (
{
closed = 1;
nodes = (
"663 519 LINE",
"663 542 LINE",
"21 542 LINE",
"21 519 LINE"
);
}
);
width = 684;
},
{
components = (
{
alignment = -1;
name = H;
}
);
hints = (
{
place = "{70, 143}";
type = Stem;
},
{
place = "{519, 143}";
type = Stem;
},
{
horizontal = 1;
place = "{293, 126}";
type = Stem;
},
{
horizontal = 1;
place = "{0, 21}";
target = up;
type = BottomGhost;
},
{
horizontal = 1;
place = "{700, -20}";
target = down;
type = TopGhost;
},
{
horizontal = 1;
place = "{776, 21}";
target = up;
type = BottomGhost;
},
{
horizontal = 1;
place = "{873, -20}";
target = down;
type = TopGhost;
},
{
horizontal = 1;
place = "{522, 21}";
target = up;
type = BottomGhost;
},
{
horizontal = 1;
place = "{619, -20}";
target = down;
type = TopGhost;
}
);
layerId = "41AFA816-2F69-4745-BF67-F6DEA15443A0";
paths = (
{
closed = 1;
nodes = (
"711 515 LINE",
"711 594 LINE",
"21 594 LINE",
"21 515 LINE"
);
}
);
width = 732;
},
{
components = (
{
alignment = -1;
name = H;
transform = "{1, 0, 0, 1, 8, 0}";
}
);
hints = (
{
place = "{70, 143}";
type = Stem;
},
{
place = "{519, 143}";
type = Stem;
},
{
horizontal = 1;
place = "{293, 126}";
type = Stem;
},
{
horizontal = 1;
place = "{0, 21}";
target = up;
type = BottomGhost;
},
{
horizontal = 1;
place = "{700, -20}";
target = down;
type = TopGhost;
},
{
horizontal = 1;
place = "{776, 21}";
target = up;
type = BottomGhost;
},
{
horizontal = 1;
place = "{873, -20}";
target = down;
type = TopGhost;
},
{
horizontal = 1;
place = "{522, 21}";
target = up;
type = BottomGhost;
},
{
horizontal = 1;
place = "{619, -20}";
target = down;
type = TopGhost;
}
);
layerId = "32E5C913-0890-451E-8980-44FAA246AB8A";
paths = (
{
closed = 1;
nodes = (
"742 508 LINE",
"742 621 LINE",
"2 621 LINE",
"2 508 LINE"
);
}
);
width = 743;
}
);
leftKerningGroup = H_2nd;
rightKerningGroup = H_1st;
unicode = 0126;
},
{
glyphname = I;
layers = (
{
background = {
paths = (
{
closed = 1;
nodes = (
"447 0 LINE",
"447 126 LINE",
"321 126 LINE",
"321 574 LINE",
"447 574 LINE",
"447 700 LINE",
"52 700 LINE",
"52 574 LINE",
"178 574 LINE",
"178 126 LINE",
"52 126 LINE",
"52 0 LINE"
);
}
);
};
hints = (
{
place = "{178, 143}";
type = Stem;
},
{
horizontal = 1;
place = "{0, 126}";
type = Stem;
},
{
horizontal = 1;
place = "{574, 126}";
type = Stem;
}
);
layerId = "5dd0c03f-0ac1-43be-b978-266741ffc02a";
paths = (
{
closed = 1;
nodes = (
"372 0 LINE",
"372 23 LINE",
"225 23 LINE",
"225 677 LINE",
"372 677 LINE",
"372 700 LINE",
"52 700 LINE",
"52 677 LINE",
"200 677 LINE",
"200 23 LINE",
"52 23 LINE",
"52 0 LINE"
);
}
);
width = 424;
},
{
hints = (
{
place = "{178, 143}";
type = Stem;
},
{
horizontal = 1;
place = "{0, 126}";
type = Stem;
},
{
horizontal = 1;
place = "{574, 126}";
type = Stem;
}
);
layerId = "41AFA816-2F69-4745-BF67-F6DEA15443A0";
paths = (
{
closed = 1;
nodes = (
"447 0 LINE",
"447 126 LINE",
"321 126 LINE",
"321 574 LINE",
"447 574 LINE",
"447 700 LINE",
"52 700 LINE",
"52 574 LINE",
"178 574 LINE",
"178 126 LINE",
"52 126 LINE",
"52 0 LINE"
);
}
);
width = 499;
},
{
hints = (
{
place = "{178, 143}";
type = Stem;
},
{
horizontal = 1;
place = "{0, 126}";
type = Stem;
},
{
horizontal = 1;
place = "{574, 126}";
type = Stem;
}
);
layerId = "32E5C913-0890-451E-8980-44FAA246AB8A";
paths = (
{
closed = 1;
nodes = (
"467 0 LINE",
"467 169 LINE",
"357 169 LINE",
"357 531 LINE",
"467 531 LINE",
"467 700 LINE",
"32 700 LINE",
"32 531 LINE",
"141 531 LINE",
"141 169 LINE",
"32 169 LINE",
"32 0 LINE"
);
}
);
width = 498;
}
);
leftKerningGroup = I_2nd;
rightKerningGroup = I_1st;
unicode = 0049;
},
{
glyphname = Iogonek;
layers = (
{
background = {
paths = (
{
closed = 1;
nodes = (
"347 -218 OFFCURVE",
"366 -212 OFFCURVE",
"372 -210 CURVE",
"372 -185 LINE",
"351 -191 OFFCURVE",
"334 -194 OFFCURVE",
"318 -194 CURVE SMOOTH",
"260 -194 OFFCURVE",
"225 -164 OFFCURVE",
"225 -121 CURVE SMOOTH",
"225 -66 OFFCURVE",
"270 -32 OFFCURVE",
"320 0 CURVE",
"317 3 OFFCURVE",
"310 16 OFFCURVE",
"308 19 CURVE",
"247 -21 OFFCURVE",
"199 -58 OFFCURVE",
"199 -124 CURVE SMOOTH",
"199 -181 OFFCURVE",
"248 -218 OFFCURVE",
"321 -218 CURVE SMOOTH"
);
}
);
};
components = (
{
name = I;
}
);
hints = (
{
place = "{178, 143}";
type = Stem;
},
{
horizontal = 1;
place = "{0, 126}";
type = Stem;
},
{
horizontal = 1;
place = "{574, 126}";
type = Stem;
},
{
place = "{264, 85}";
type = Stem;
},
{
place = "{264, 183}";
type = Stem;
},
{
horizontal = 1;
place = "{-218, 21}";
target = up;
type = BottomGhost;
},
{
place = "{199, 85}";
type = Stem;
},
{
place = "{199, 183}";
type = Stem;
},
{
horizontal = 1;
place = "{-218, 21}";
target = up;
type = BottomGhost;
}
);
layerId = "5dd0c03f-0ac1-43be-b978-266741ffc02a";
paths = (
{
closed = 1;
nodes = (
"347 -218 OFFCURVE",
"366 -212 OFFCURVE",
"372 -210 CURVE",
"372 -186 LINE",
"351 -192 OFFCURVE",
"334 -195 OFFCURVE",
"317 -195 CURVE SMOOTH",
"279 -195 OFFCURVE",
"244 -174 OFFCURVE",
"244 -124 CURVE SMOOTH",
"244 -78 OFFCURVE",
"281 -30 OFFCURVE",
"320 0 CURVE",
"305 18 LINE",
"263 -16 OFFCURVE",
"218 -70 OFFCURVE",
"218 -126 CURVE SMOOTH",
"218 -191 OFFCURVE",
"267 -218 OFFCURVE",
"319 -218 CURVE SMOOTH"
);
}
);
width = 424;
},
{
background = {
components = (
{
alignment = -1;
name = I;
},
{
alignment = -1;
name = ogonek;
transform = "{1, 0, 0, 1, 257, 0}";
}
);
};
components = (
{
alignment = -1;
name = I;
}
);
hints = (
{
place = "{178, 143}";
type = Stem;
},
{
horizontal = 1;
place = "{0, 126}";
type = Stem;
},
{
horizontal = 1;
place = "{574, 126}";
type = Stem;
},
{
place = "{264, 85}";
type = Stem;
},
{
place = "{264, 183}";
type = Stem;
},
{
horizontal = 1;
place = "{-218, 21}";
target = up;
type = BottomGhost;
},
{
place = "{264, 85}";
type = Stem;
},
{
place = "{264, 183}";
type = Stem;
},
{
horizontal = 1;
place = "{-218, 21}";
target = up;
type = BottomGhost;
}
);
layerId = "41AFA816-2F69-4745-BF67-F6DEA15443A0";
paths = (
{
closed = 1;
nodes = (
"409 -218 OFFCURVE",
"433 -215 OFFCURVE",
"447 -211 CURVE",
"447 -126 LINE",
"433 -131 OFFCURVE",
"419 -134 OFFCURVE",
"404 -134 CURVE SMOOTH",
"373 -134 OFFCURVE",
"349 -112 OFFCURVE",
"349 -80 CURVE SMOOTH",
"349 -29 OFFCURVE",
"408 57 OFFCURVE",
"414 66 CURVE",
"379 86 LINE",
"372 78 OFFCURVE",
"264 -33 OFFCURVE",
"264 -104 CURVE SMOOTH",
"264 -181 OFFCURVE",
"323 -218 OFFCURVE",
"395 -218 CURVE SMOOTH"
);
}
);
width = 499;
},
{
components = (
{
alignment = -1;
name = I;
}
);
hints = (
{
place = "{178, 143}";
type = Stem;
},
{
horizontal = 1;
place = "{0, 126}";
type = Stem;
},
{
horizontal = 1;
place = "{574, 126}";
type = Stem;
},
{
place = "{264, 85}";
type = Stem;
},
{
place = "{264, 183}";
type = Stem;
},
{
horizontal = 1;
place = "{-218, 21}";
target = up;
type = BottomGhost;
},
{
place = "{264, 85}";
type = Stem;
},
{
place = "{264, 183}";
type = Stem;
},
{
horizontal = 1;
place = "{-218, 21}";
target = up;
type = BottomGhost;
}
);
layerId = "32E5C913-0890-451E-8980-44FAA246AB8A";
paths = (
{
closed = 1;
nodes = (
"409 -219 OFFCURVE",
"441 -215 OFFCURVE",
"459 -210 CURVE",
"459 -117 LINE",
"447 -121 OFFCURVE",
"431 -124 OFFCURVE",
"415 -124 CURVE SMOOTH",
"381 -124 OFFCURVE",
"363 -104 OFFCURVE",
"363 -77 CURVE SMOOTH",
"363 -29 OFFCURVE",
"428 62 OFFCURVE",
"432 69 CURVE",
"375 95 LINE",
"368 87 OFFCURVE",
"253 -26 OFFCURVE",
"252 -106 CURVE SMOOTH",
"251 -186 OFFCURVE",
"310 -219 OFFCURVE",
"388 -219 CURVE SMOOTH"
);
}
);
width = 499;
}
);
leftKerningGroup = I_2nd;
rightKerningGroup = I_1st;
unicode = 012E;
},
{
glyphname = J;
layers = (
{
background = {
paths = (
{
closed = 1;
nodes = (
"328 -218 OFFCURVE",
"385 -133 OFFCURVE",
"385 -28 CURVE SMOOTH",
"385 700 LINE",
"103 700 LINE",
"103 574 LINE",
"243 574 LINE",
"243 284 LINE",
"71 181 OFFCURVE",
"25 47 OFFCURVE",
"25 -46 CURVE SMOOTH",
"25 -153 OFFCURVE",
"92 -218 OFFCURVE",
"209 -218 CURVE SMOOTH"
);
},
{
closed = 1;
nodes = (
"177 -90 OFFCURVE",
"158 -69 OFFCURVE",
"158 -30 CURVE SMOOTH",
"158 -10 OFFCURVE",
"151 63 OFFCURVE",
"242 139 CURVE",
"242 -30 LINE SMOOTH",
"242 -66 OFFCURVE",
"228 -90 OFFCURVE",
"200 -90 CURVE SMOOTH"
);
}
);
};
hints = (
{
place = "{0, 133}";
type = Stem;
},
{
place = "{218, 142}";
type = Stem;
},
{
horizontal = 1;
place = "{-218, 128}";
type = Stem;
},
{
horizontal = 1;
place = "{574, 126}";
type = Stem;
}
);
layerId = "5dd0c03f-0ac1-43be-b978-266741ffc02a";
paths = (
{
closed = 1;
nodes = (
"233 -216 OFFCURVE",
"303 -174 OFFCURVE",
"303 -60 CURVE SMOOTH",
"303 700 LINE",
"111 700 LINE",
"111 677 LINE",
"278 677 LINE",
"278 284 LINE",
"68 138 OFFCURVE",
"25 20 OFFCURVE",
"25 -74 CURVE SMOOTH",
"25 -172 OFFCURVE",
"94 -216 OFFCURVE",
"163 -216 CURVE SMOOTH"
);
},
{
closed = 1;
nodes = (
"104 -193 OFFCURVE",
"50 -156 OFFCURVE",
"50 -73 CURVE SMOOTH",
"50 7 OFFCURVE",
"86 120 OFFCURVE",
"278 254 CURVE",
"278 -63 LINE SMOOTH",
"278 -156 OFFCURVE",
"221 -193 OFFCURVE",
"161 -193 CURVE SMOOTH"
);
}
);
width = 388;
},
{
hints = (
{
place = "{0, 133}";
type = Stem;
},
{
place = "{218, 142}";
type = Stem;
},
{
horizontal = 1;
place = "{-218, 128}";
type = Stem;
},
{
horizontal = 1;
place = "{574, 126}";
type = Stem;
}
);
layerId = "41AFA816-2F69-4745-BF67-F6DEA15443A0";
paths = (
{
closed = 1;
nodes = (
"303 -218 OFFCURVE",
"360 -133 OFFCURVE",
"360 -28 CURVE SMOOTH",
"360 700 LINE",
"78 700 LINE",
"78 574 LINE",
"218 574 LINE",
"218 284 LINE",
"46 181 OFFCURVE",
"0 47 OFFCURVE",
"0 -46 CURVE SMOOTH",
"0 -153 OFFCURVE",
"67 -218 OFFCURVE",
"184 -218 CURVE SMOOTH"
);
},
{
closed = 1;
nodes = (
"152 -90 OFFCURVE",
"133 -69 OFFCURVE",
"133 -30 CURVE SMOOTH",
"133 -10 OFFCURVE",
"126 63 OFFCURVE",
"217 139 CURVE",
"217 -30 LINE SMOOTH",
"217 -66 OFFCURVE",
"203 -90 OFFCURVE",
"175 -90 CURVE SMOOTH"
);
}
);
width = 430;
},
{
hints = (
{
place = "{0, 133}";
type = Stem;
},
{
place = "{218, 142}";
type = Stem;
},
{
horizontal = 1;
place = "{-218, 128}";
type = Stem;
},
{
horizontal = 1;
place = "{574, 126}";
type = Stem;
}
);
layerId = "32E5C913-0890-451E-8980-44FAA246AB8A";
paths = (
{
closed = 1;
nodes = (
"302 -220 OFFCURVE",
"369 -138 OFFCURVE",
"369 32 CURVE SMOOTH",
"369 700 LINE",
"38 700 LINE",
"38 531 LINE",
"177 531 LINE",
"177 284 LINE",
"47 202 OFFCURVE",
"-23 85 OFFCURVE",
"-23 -33 CURVE SMOOTH",
"-23 -128 OFFCURVE",
"33 -220 OFFCURVE",
"165 -220 CURVE SMOOTH"
);
},
{
closed = 1;
nodes = (
"138 -44 OFFCURVE",
"122 -29 OFFCURVE",
"122 -2 CURVE SMOOTH",
"122 40 OFFCURVE",
"138 80 OFFCURVE",
"189 125 CURVE",
"189 2 LINE SMOOTH",
"189 -28 OFFCURVE",
"174 -44 OFFCURVE",
"156 -44 CURVE SMOOTH"
);
}
);
width = 413;
}
);
leftKerningGroup = J_2nd;
rightKerningGroup = H_1st;
unicode = 004A;
},
{
glyphname = K;
layers = (
{
background = {
paths = (
{
closed = 1;
nodes = (
"648 24 LINE",
"624 24 LINE SMOOTH",
"583 24 OFFCURVE",
"567 40 OFFCURVE",
"549 82 CURVE SMOOTH",
"444 347 LINE",
"420 340 LINE",
"525 71 LINE SMOOTH",
"545 23 OFFCURVE",
"574 0 OFFCURVE",
"621 0 CURVE SMOOTH",
"648 0 LINE"
);
},
{
closed = 1;
nodes = (
"85 700 LINE",
"85 0 LINE",
"110 0 LINE",
"110 700 LINE"
);
},
{
closed = 1;
nodes = (
"495 325 OFFCURVE",
"588 398 OFFCURVE",
"588 513 CURVE SMOOTH",
"588 700 LINE",
"563 700 LINE",
"562 511 LINE SMOOTH",
"561 409 OFFCURVE",
"475 348 OFFCURVE",
"365 348 CURVE SMOOTH",
"95 348 LINE",
"95 325 LINE",
"362 325 LINE SMOOTH"
);
}
);
};
hints = (
{
place = "{70, 143}";
type = Stem;
},
{
place = "{469, 143}";
type = Stem;
},
{
horizontal = 1;
place = "{0, 126}";
type = Stem;
},
{
horizontal = 1;
place = "{283, 126}";
type = Stem;
},
{
place = "{70, 143}";
type = Stem;
},
{
place = "{489, 143}";
type = Stem;
},
{
horizontal = 1;
place = "{0, 126}";
type = Stem;
},
{
horizontal = 1;
place = "{218, 126}";
type = Stem;
},
{
horizontal = 1;
place = "{574, 126}";
type = Stem;
}
);
layerId = "5dd0c03f-0ac1-43be-b978-266741ffc02a";
paths = (
{
closed = 1;
nodes = (
"110 0 LINE",
"110 325 LINE",
"362 325 LINE SMOOTH",
"384 325 OFFCURVE",
"404 327 OFFCURVE",
"424 331 CURVE",
"525 71 LINE SMOOTH",
"545 23 OFFCURVE",
"574 0 OFFCURVE",
"621 0 CURVE SMOOTH",
"648 0 LINE",
"648 24 LINE",
"624 24 LINE SMOOTH",
"583 24 OFFCURVE",
"567 40 OFFCURVE",
"549 82 CURVE SMOOTH",
"448 337 LINE",
"533 361 OFFCURVE",
"588 425 OFFCURVE",
"588 513 CURVE SMOOTH",
"588 700 LINE",
"563 700 LINE",
"562 511 LINE SMOOTH",
"561 409 OFFCURVE",
"475 348 OFFCURVE",
"365 348 CURVE SMOOTH",
"110 348 LINE",
"110 700 LINE",
"85 700 LINE",
"85 0 LINE"
);
}
);
width = 680;
},
{
hints = (
{
place = "{70, 143}";
type = Stem;
},
{
place = "{469, 143}";
type = Stem;
},
{
horizontal = 1;
place = "{0, 126}";
type = Stem;
},
{
horizontal = 1;
place = "{283, 126}";
type = Stem;
}
);
layerId = "41AFA816-2F69-4745-BF67-F6DEA15443A0";
paths = (
{
closed = 1;
nodes = (
"213 0 LINE",
"213 283 LINE",
"310 283 LINE SMOOTH",
"323 283 OFFCURVE",
"335 283 OFFCURVE",
"348 283 CURVE",
"447 76 LINE SMOOTH",
"470 29 OFFCURVE",
"511 0 OFFCURVE",
"578 0 CURVE SMOOTH",
"668 0 LINE",
"668 126 LINE",
"600 126 LINE SMOOTH",
"589 126 OFFCURVE",
"580 130 OFFCURVE",
"576 139 CURVE SMOOTH",
"492 316 LINE",
"564 357 OFFCURVE",
"612 431 OFFCURVE",
"612 524 CURVE SMOOTH",
"612 700 LINE",
"469 700 LINE",
"469 524 LINE SMOOTH",
"469 451 OFFCURVE",
"414 409 OFFCURVE",
"346 409 CURVE SMOOTH",
"213 409 LINE",
"213 700 LINE",
"70 700 LINE",
"70 0 LINE"
);
}
);
width = 678;
},
{
hints = (
{
place = "{70, 143}";
type = Stem;
},
{
place = "{469, 143}";
type = Stem;
},
{
horizontal = 1;
place = "{0, 126}";
type = Stem;
},
{
horizontal = 1;
place = "{283, 126}";
type = Stem;
}
);
layerId = "32E5C913-0890-451E-8980-44FAA246AB8A";
paths = (
{
closed = 1;
nodes = (
"260 0 LINE",
"260 264 LINE",
"297 264 LINE SMOOTH",
"302 264 OFFCURVE",
"307 264 OFFCURVE",
"313 264 CURVE",
"399 84 LINE SMOOTH",
"425 32 OFFCURVE",
"474 0 OFFCURVE",
"559 0 CURVE SMOOTH",
"672 0 LINE",
"672 165 LINE",
"619 165 LINE SMOOTH",
"603 165 OFFCURVE",
"590 173 OFFCURVE",
"584 187 CURVE SMOOTH",
"524 314 LINE",
"589 359 OFFCURVE",
"632 430 OFFCURVE",
"632 512 CURVE SMOOTH",
"632 700 LINE",
"416 700 LINE",
"416 516 LINE SMOOTH",
"416 463 OFFCURVE",
"383 432 OFFCURVE",
"342 432 CURVE SMOOTH",
"260 432 LINE",
"260 700 LINE",
"44 700 LINE",
"44 0 LINE"
);
}
);
width = 674;
}
);
leftKerningGroup = H_2nd;
rightKerningGroup = K_1st;
unicode = 004B;
},
{
glyphname = L;
layers = (
{
background = {
paths = (
{
closed = 1;
nodes = (
"451 0 LINE",
"451 126 LINE",
"266 126 LINE SMOOTH",
"230 126 OFFCURVE",
"201 156 OFFCURVE",
"201 192 CURVE SMOOTH",
"201 700 LINE",
"58 700 LINE",
"58 209 LINE SMOOTH",
"58 94 OFFCURVE",
"141 0 OFFCURVE",
"266 0 CURVE SMOOTH"
);
}
);
};
hints = (
{
place = "{58, 143}";
type = Stem;
},
{
horizontal = 1;
place = "{0, 126}";
type = Stem;
},
{
horizontal = 1;
place = "{700, -20}";
target = down;
type = TopGhost;
}
);
layerId = "5dd0c03f-0ac1-43be-b978-266741ffc02a";
paths = (
{
closed = 1;
nodes = (
"428 0 LINE",
"428 23 LINE",
"237 23 LINE SMOOTH",
"156 23 OFFCURVE",
"110 74 OFFCURVE",
"110 149 CURVE SMOOTH",
"110 699 LINE",
"85 699 LINE",
"85 154 LINE SMOOTH",
"85 59 OFFCURVE",
"139 0 OFFCURVE",
"235 0 CURVE SMOOTH"
);
}
);
width = 473;
},
{
hints = (
{
place = "{58, 143}";
type = Stem;
},
{
horizontal = 1;
place = "{0, 126}";
type = Stem;
},
{
horizontal = 1;
place = "{700, -20}";
target = down;
type = TopGhost;
}
);
layerId = "41AFA816-2F69-4745-BF67-F6DEA15443A0";
paths = (
{
closed = 1;
nodes = (
"451 0 LINE",
"451 126 LINE",
"266 126 LINE SMOOTH",
"230 126 OFFCURVE",
"201 156 OFFCURVE",
"201 192 CURVE SMOOTH",
"201 700 LINE",
"58 700 LINE",
"58 209 LINE SMOOTH",
"58 94 OFFCURVE",
"141 0 OFFCURVE",
"266 0 CURVE SMOOTH"
);
}
);
width = 471;
},
{
hints = (
{
place = "{58, 143}";
type = Stem;
},
{
horizontal = 1;
place = "{0, 126}";
type = Stem;
},
{
horizontal = 1;
place = "{700, -20}";
target = down;
type = TopGhost;
}
);
layerId = "32E5C913-0890-451E-8980-44FAA246AB8A";
paths = (
{
closed = 1;
nodes = (
"489 0 LINE",
"489 169 LINE",
"304 169 LINE SMOOTH",
"277 169 OFFCURVE",
"257 191 OFFCURVE",
"257 217 CURVE SMOOTH",
"257 700 LINE",
"41 700 LINE",
"41 219 LINE SMOOTH",
"41 99 OFFCURVE",
"134 0 OFFCURVE",
"276 0 CURVE SMOOTH"
);
}
);
width = 506;
}
);
leftKerningGroup = H_2nd;
rightKerningGroup = L_1st;
unicode = 004C;
},
{
glyphname = Lslash;
layers = (
{
components = (
{
alignment = -1;
name = L;
}
);
hints = (
{
place = "{58, 143}";
type = Stem;
},
{
horizontal = 1;
place = "{0, 126}";
type = Stem;
},
{
horizontal = 1;
place = "{700, -20}";
target = down;
type = TopGhost;
}
);
layerId = "5dd0c03f-0ac1-43be-b978-266741ffc02a";
paths = (
{
closed = 1;
nodes = (
"324 424 LINE",
"324 448 LINE",
"1 371 LINE",
"1 347 LINE"
);
}
);
width = 486;
},
{
components = (
{
alignment = -1;
name = L;
}
);
hints = (
{
place = "{58, 143}";
type = Stem;
},
{
horizontal = 1;
place = "{0, 126}";
type = Stem;
},
{
horizontal = 1;
place = "{700, -20}";
target = down;
type = TopGhost;
}
);
layerId = "41AFA816-2F69-4745-BF67-F6DEA15443A0";
paths = (
{
closed = 1;
nodes = (
"324 389 LINE",
"324 468 LINE",
"1 391 LINE",
"1 312 LINE"
);
}
);
width = 486;
},
{
components = (
{
alignment = -1;
name = L;
}
);
hints = (
{
place = "{58, 143}";
type = Stem;
},
{
horizontal = 1;
place = "{0, 126}";
type = Stem;
},
{
horizontal = 1;
place = "{700, -20}";
target = down;
type = TopGhost;
}
);
layerId = "32E5C913-0890-451E-8980-44FAA246AB8A";
paths = (
{
closed = 1;
nodes = (
"368 394 LINE",
"368 508 LINE",
"-9 411 LINE",
"-9 297 LINE"
);
}
);
width = 509;
}
);
leftKerningGroup = H_2nd;
rightKerningGroup = L_1st;
unicode = 0141;
},
{
glyphname = M;
layers = (
{
background = {
paths = (
{
closed = 1;
nodes = (
"673 -11 OFFCURVE",
"763 76 OFFCURVE",
"763 198 CURVE SMOOTH",
"763 520 LINE SMOOTH",
"763 556 OFFCURVE",
"793 586 OFFCURVE",
"829 586 CURVE SMOOTH",
"865 586 OFFCURVE",
"894 556 OFFCURVE",
"894 520 CURVE SMOOTH",
"894 0 LINE",
"1037 0 LINE",
"1037 503 LINE SMOOTH",
"1037 618 OFFCURVE",
"954 712 OFFCURVE",
"829 712 CURVE SMOOTH",
"704 712 OFFCURVE",
"620 618 OFFCURVE",
"620 503 CURVE SMOOTH",
"620 181 LINE SMOOTH",
"620 145 OFFCURVE",
"590 115 OFFCURVE",
"554 115 CURVE SMOOTH",
"518 115 OFFCURVE",
"489 145 OFFCURVE",
"489 181 CURVE SMOOTH",
"489 503 LINE SMOOTH",
"489 618 OFFCURVE",
"405 712 OFFCURVE",
"280 712 CURVE SMOOTH",
"155 712 OFFCURVE",
"72 618 OFFCURVE",
"72 503 CURVE SMOOTH",
"72 0 LINE",
"215 0 LINE",
"215 520 LINE SMOOTH",
"215 556 OFFCURVE",
"244 586 OFFCURVE",
"280 586 CURVE SMOOTH",
"316 586 OFFCURVE",
"346 556 OFFCURVE",
"346 520 CURVE SMOOTH",
"346 198 LINE SMOOTH",
"346 76 OFFCURVE",
"435 -11 OFFCURVE",
"554 -11 CURVE SMOOTH"
);
}
);
};
hints = (
{
place = "{60, 143}";
type = Stem;
},
{
place = "{334, 143}";
type = Stem;
},
{
place = "{608, 143}";
type = Stem;
},
{
place = "{882, 143}";
type = Stem;
},
{
horizontal = 1;
place = "{-11, 126}";
type = Stem;
},
{
horizontal = 1;
place = "{586, 126}";
type = Stem;
},
{
place = "{60, -143}";
type = Stem;
},
{
place = "{334, -143}";
type = Stem;
},
{
place = "{608, -143}";
type = Stem;
},
{
place = "{882, -143}";
type = Stem;
},
{
horizontal = 1;
place = "{712, -126}";
type = Stem;
},
{
horizontal = 1;
place = "{115, -126}";
type = Stem;
},
{
place = "{60, 143}";
type = Stem;
},
{
place = "{334, 143}";
type = Stem;
},
{
place = "{608, 143}";
type = Stem;
},
{
place = "{882, 143}";
type = Stem;
},
{
horizontal = 1;
place = "{-11, 126}";
type = Stem;
},
{
horizontal = 1;
place = "{586, 126}";
type = Stem;
}
);
layerId = "5dd0c03f-0ac1-43be-b978-266741ffc02a";
paths = (
{
closed = 1;
nodes = (
"641 -13 OFFCURVE",
"706 56 OFFCURVE",
"706 160 CURVE SMOOTH",
"706 547 LINE SMOOTH",
"706 629 OFFCURVE",
"767 690 OFFCURVE",
"846 690 CURVE SMOOTH",
"923 690 OFFCURVE",
"984 629 OFFCURVE",
"984 547 CURVE SMOOTH",
"984 0 LINE",
"1009 0 LINE",
"1009 540 LINE SMOOTH",
"1009 644 OFFCURVE",
"940 713 OFFCURVE",
"846 713 CURVE SMOOTH",
"750 713 OFFCURVE",
"681 644 OFFCURVE",
"681 540 CURVE SMOOTH",
"681 153 LINE SMOOTH",
"681 69 OFFCURVE",
"621 10 OFFCURVE",
"549 10 CURVE SMOOTH",
"477 10 OFFCURVE",
"413 69 OFFCURVE",
"413 153 CURVE SMOOTH",
"413 540 LINE SMOOTH",
"413 644 OFFCURVE",
"343 713 OFFCURVE",
"249 713 CURVE SMOOTH",
"153 713 OFFCURVE",
"85 644 OFFCURVE",
"85 540 CURVE SMOOTH",
"85 0 LINE",
"110 0 LINE",
"110 547 LINE SMOOTH",
"110 629 OFFCURVE",
"172 690 OFFCURVE",
"249 690 CURVE SMOOTH",
"324 690 OFFCURVE",
"388 629 OFFCURVE",
"388 547 CURVE SMOOTH",
"388 160 LINE SMOOTH",
"388 56 OFFCURVE",
"457 -13 OFFCURVE",
"549 -13 CURVE SMOOTH"
);
}
);
width = 1094;
},
{
hints = (
{
place = "{60, 143}";
type = Stem;
},
{
place = "{334, 143}";
type = Stem;
},
{
place = "{608, 143}";
type = Stem;
},
{
place = "{882, 143}";
type = Stem;
},
{
horizontal = 1;
place = "{-11, 126}";
type = Stem;
},
{
horizontal = 1;
place = "{586, 126}";
type = Stem;
}
);
layerId = "41AFA816-2F69-4745-BF67-F6DEA15443A0";
paths = (
{
closed = 1;
nodes = (
"661 -11 OFFCURVE",
"751 76 OFFCURVE",
"751 198 CURVE SMOOTH",
"751 520 LINE SMOOTH",
"751 556 OFFCURVE",
"781 586 OFFCURVE",
"817 586 CURVE SMOOTH",
"853 586 OFFCURVE",
"882 556 OFFCURVE",
"882 520 CURVE SMOOTH",
"882 0 LINE",
"1025 0 LINE",
"1025 503 LINE SMOOTH",
"1025 618 OFFCURVE",
"942 712 OFFCURVE",
"817 712 CURVE SMOOTH",
"692 712 OFFCURVE",
"608 618 OFFCURVE",
"608 503 CURVE SMOOTH",
"608 181 LINE SMOOTH",
"608 145 OFFCURVE",
"578 115 OFFCURVE",
"542 115 CURVE SMOOTH",
"506 115 OFFCURVE",
"477 145 OFFCURVE",
"477 181 CURVE SMOOTH",
"477 503 LINE SMOOTH",
"477 618 OFFCURVE",
"393 712 OFFCURVE",
"268 712 CURVE SMOOTH",
"143 712 OFFCURVE",
"60 618 OFFCURVE",
"60 503 CURVE SMOOTH",
"60 0 LINE",
"203 0 LINE",
"203 520 LINE SMOOTH",
"203 556 OFFCURVE",
"232 586 OFFCURVE",
"268 586 CURVE SMOOTH",
"304 586 OFFCURVE",
"334 556 OFFCURVE",
"334 520 CURVE SMOOTH",
"334 198 LINE SMOOTH",
"334 76 OFFCURVE",
"423 -11 OFFCURVE",
"542 -11 CURVE SMOOTH"
);
}
);
width = 1085;
},
{
hints = (
{
place = "{60, 143}";
type = Stem;
},
{
place = "{334, 143}";
type = Stem;
},
{
place = "{608, 143}";
type = Stem;
},
{
place = "{882, 143}";
type = Stem;
},
{
horizontal = 1;
place = "{-11, 126}";
type = Stem;
},
{
horizontal = 1;
place = "{586, 126}";
type = Stem;
}
);
layerId = "32E5C913-0890-451E-8980-44FAA246AB8A";
paths = (
{
closed = 1;
nodes = (
"704 -13 OFFCURVE",
"824 67 OFFCURVE",
"824 215 CURVE SMOOTH",
"824 489 LINE SMOOTH",
"824 512 OFFCURVE",
"843 528 OFFCURVE",
"866 528 CURVE SMOOTH",
"887 528 OFFCURVE",
"907 512 OFFCURVE",
"907 489 CURVE SMOOTH",
"907 0 LINE",
"1112 0 LINE",
"1112 484 LINE SMOOTH",
"1112 629 OFFCURVE",
"994 713 OFFCURVE",
"866 713 CURVE SMOOTH",
"737 713 OFFCURVE",
"619 629 OFFCURVE",
"619 484 CURVE SMOOTH",
"619 213 LINE SMOOTH",
"619 186 OFFCURVE",
"598 171 OFFCURVE",
"576 171 CURVE SMOOTH",
"556 171 OFFCURVE",
"536 186 OFFCURVE",
"536 213 CURVE SMOOTH",
"536 484 LINE SMOOTH",
"536 629 OFFCURVE",
"418 713 OFFCURVE",
"289 713 CURVE SMOOTH",
"158 713 OFFCURVE",
"41 629 OFFCURVE",
"41 484 CURVE SMOOTH",
"41 0 LINE",
"247 0 LINE",
"247 486 LINE SMOOTH",
"247 512 OFFCURVE",
"265 528 OFFCURVE",
"289 528 CURVE SMOOTH",
"312 528 OFFCURVE",
"330 512 OFFCURVE",
"330 486 CURVE SMOOTH",
"330 215 LINE SMOOTH",
"330 67 OFFCURVE",
"449 -13 OFFCURVE",
"577 -13 CURVE SMOOTH"
);
}
);
width = 1153;
}
);
leftKerningGroup = H_2nd;
rightKerningGroup = H_1st;
unicode = 004D;
},
{
glyphname = N;
layers = (
{
background = {
paths = (
{
closed = 1;
nodes = (
"606 700 LINE",
"606 180 LINE SMOOTH",
"606 144 OFFCURVE",
"576 114 OFFCURVE",
"540 114 CURVE SMOOTH",
"504 114 OFFCURVE",
"475 143 OFFCURVE",
"475 180 CURVE SMOOTH",
"475 503 LINE SMOOTH",
"475 618 OFFCURVE",
"391 712 OFFCURVE",
"266 712 CURVE SMOOTH",
"141 712 OFFCURVE",
"58 618 OFFCURVE",
"58 503 CURVE SMOOTH",
"58 0 LINE",
"201 0 LINE",
"201 520 LINE SMOOTH",
"201 556 OFFCURVE",
"230 586 OFFCURVE",
"266 586 CURVE SMOOTH",
"302 586 OFFCURVE",
"332 556 OFFCURVE",
"332 520 CURVE SMOOTH",
"332 197 LINE SMOOTH",
"332 82 OFFCURVE",
"415 -12 OFFCURVE",
"540 -12 CURVE SMOOTH",
"665 -12 OFFCURVE",
"749 83 OFFCURVE",
"749 197 CURVE SMOOTH",
"749 700 LINE"
);
}
);
};
hints = (
{
place = "{60, 143}";
type = Stem;
},
{
place = "{334, 143}";
type = Stem;
},
{
place = "{608, 143}";
type = Stem;
},
{
horizontal = 1;
place = "{-12, 126}";
type = Stem;
},
{
horizontal = 1;
place = "{586, 126}";
type = Stem;
},
{
place = "{60, 143}";
type = Stem;
},
{
place = "{334, 143}";
type = Stem;
},
{
place = "{608, 143}";
type = Stem;
},
{
place = "{882, 143}";
type = Stem;
},
{
horizontal = 1;
place = "{54, 126}";
type = Stem;
},
{
horizontal = 1;
place = "{586, 126}";
type = Stem;
},
{
horizontal = 1;
place = "{0, 21}";
target = up;
type = BottomGhost;
},
{
place = "{60, 143}";
type = Stem;
},
{
place = "{334, 143}";
type = Stem;
},
{
place = "{608, 143}";
type = Stem;
},
{
place = "{882, 143}";
type = Stem;
},
{
horizontal = 1;
place = "{-11, 126}";
type = Stem;
},
{
horizontal = 1;
place = "{586, 126}";
type = Stem;
}
);
layerId = "5dd0c03f-0ac1-43be-b978-266741ffc02a";
paths = (
{
closed = 1;
nodes = (
"641 -13 OFFCURVE",
"705 56 OFFCURVE",
"705 160 CURVE SMOOTH",
"705 700 LINE",
"680 700 LINE",
"680 153 LINE SMOOTH",
"680 69 OFFCURVE",
"621 10 OFFCURVE",
"549 10 CURVE SMOOTH",
"477 10 OFFCURVE",
"413 69 OFFCURVE",
"413 153 CURVE SMOOTH",
"413 540 LINE SMOOTH",
"413 644 OFFCURVE",
"343 713 OFFCURVE",
"249 713 CURVE SMOOTH",
"153 713 OFFCURVE",
"85 644 OFFCURVE",
"85 540 CURVE SMOOTH",
"85 0 LINE",
"110 0 LINE",
"110 547 LINE SMOOTH",
"110 629 OFFCURVE",
"172 690 OFFCURVE",
"249 690 CURVE SMOOTH",
"324 690 OFFCURVE",
"388 629 OFFCURVE",
"388 547 CURVE SMOOTH",
"388 160 LINE SMOOTH",
"388 56 OFFCURVE",
"457 -13 OFFCURVE",
"549 -13 CURVE SMOOTH"
);
}
);
width = 790;
},
{
hints = (
{
place = "{60, 143}";
type = Stem;
},
{
place = "{334, 143}";
type = Stem;
},
{
place = "{608, 143}";
type = Stem;
},
{
horizontal = 1;
place = "{-12, 126}";
type = Stem;
},
{
horizontal = 1;
place = "{586, 126}";
type = Stem;
}
);
layerId = "41AFA816-2F69-4745-BF67-F6DEA15443A0";
paths = (
{
closed = 1;
nodes = (
"667 -12 OFFCURVE",
"751 82 OFFCURVE",
"751 197 CURVE SMOOTH",
"751 700 LINE",
"608 700 LINE",
"608 180 LINE SMOOTH",
"608 144 OFFCURVE",
"578 114 OFFCURVE",
"542 114 CURVE SMOOTH",
"506 114 OFFCURVE",
"477 144 OFFCURVE",
"477 180 CURVE SMOOTH",
"477 503 LINE SMOOTH",
"477 618 OFFCURVE",
"393 712 OFFCURVE",
"268 712 CURVE SMOOTH",
"143 712 OFFCURVE",
"60 618 OFFCURVE",
"60 503 CURVE SMOOTH",
"60 0 LINE",
"203 0 LINE",
"203 520 LINE SMOOTH",
"203 556 OFFCURVE",
"232 586 OFFCURVE",
"268 586 CURVE SMOOTH",
"304 586 OFFCURVE",
"334 556 OFFCURVE",
"334 520 CURVE SMOOTH",
"334 197 LINE SMOOTH",
"334 82 OFFCURVE",
"417 -12 OFFCURVE",
"542 -12 CURVE SMOOTH"
);
}
);
width = 811;
},
{
hints = (
{
place = "{60, 143}";
type = Stem;
},
{
place = "{334, 143}";
type = Stem;
},
{
place = "{608, 143}";
type = Stem;
},
{
horizontal = 1;
place = "{-12, 126}";
type = Stem;
},
{
horizontal = 1;
place = "{586, 126}";
type = Stem;
}
);
layerId = "32E5C913-0890-451E-8980-44FAA246AB8A";
paths = (
{
closed = 1;
nodes = (
"705 -13 OFFCURVE",
"824 69 OFFCURVE",
"824 215 CURVE SMOOTH",
"824 700 LINE",
"619 700 LINE",
"619 213 LINE SMOOTH",
"619 186 OFFCURVE",
"598 170 OFFCURVE",
"576 170 CURVE SMOOTH",
"556 170 OFFCURVE",
"536 186 OFFCURVE",
"536 213 CURVE SMOOTH",
"536 484 LINE SMOOTH",
"536 629 OFFCURVE",
"418 713 OFFCURVE",
"289 713 CURVE SMOOTH",
"158 713 OFFCURVE",
"41 629 OFFCURVE",
"41 484 CURVE SMOOTH",
"41 0 LINE",
"247 0 LINE",
"247 486 LINE SMOOTH",
"247 512 OFFCURVE",
"265 528 OFFCURVE",
"289 528 CURVE SMOOTH",
"312 528 OFFCURVE",
"330 512 OFFCURVE",
"330 486 CURVE SMOOTH",
"330 215 LINE SMOOTH",
"330 69 OFFCURVE",
"448 -13 OFFCURVE",
"577 -13 CURVE SMOOTH"
);
}
);
width = 867;
}
);
leftKerningGroup = H_2nd;
rightKerningGroup = H_1st;
unicode = 004E;
},
{
glyphname = Eng;
layers = (
{
components = (
{
name = N;
}
);
hints = (
{
place = "{391, 133}";
type = Stem;
},
{
place = "{609, 142}";
type = Stem;
},
{
horizontal = 1;
place = "{-218, 128}";
type = Stem;
},
{
horizontal = 1;
place = "{574, 126}";
type = Stem;
},
{
place = "{643, 172}";
type = Stem;
},
{
place = "{661, 137}";
type = Stem;
},
{
horizontal = 1;
place = "{-310, 117}";
type = Stem;
},
{
horizontal = 1;
place = "{467, 172}";
type = Stem;
},
{
place = "{692, 137}";
type = Stem;
},
{
horizontal = 1;
place = "{-107, 117}";
type = Stem;
},
{
horizontal = 1;
place = "{286, 117}";
type = Stem;
},
{
horizontal = 1;
place = "{531, -20}";
target = down;
type = TopGhost;
},
{
place = "{681, -137}";
type = Stem;
},
{
horizontal = 1;
place = "{10, -117}";
type = Stem;
},
{
horizontal = 1;
place = "{403, 21}";
target = up;
type = BottomGhost;
},
{
place = "{1061, 137}";
type = Stem;
},
{
horizontal = 1;
place = "{286, 117}";
type = Stem;
},
{
horizontal = 1;
place = "{506, 117}";
type = Stem;
},
{
horizontal = 1;
place = "{-107, 21}";
target = up;
type = BottomGhost;
},
{
place = "{1054, 137}";
type = Stem;
},
{
horizontal = 1;
place = "{507, 117}";
type = Stem;
},
{
horizontal = 1;
place = "{114, 21}";
target = up;
type = BottomGhost;
}
);
layerId = "5dd0c03f-0ac1-43be-b978-266741ffc02a";
paths = (
{
closed = 1;
nodes = (
"559 -216 LINE SMOOTH",
"650 -216 OFFCURVE",
"705 -161 OFFCURVE",
"705 -71 CURVE SMOOTH",
"705 284 LINE",
"680 284 LINE",
"680 -61 LINE SMOOTH",
"680 -146 OFFCURVE",
"639 -193 OFFCURVE",
"553 -193 CURVE SMOOTH",
"518 -193 LINE",
"517 -216 LINE"
);
}
);
width = 790;
},
{
components = (
{
alignment = -1;
name = N;
}
);
hints = (
{
place = "{60, 143}";
type = Stem;
},
{
place = "{334, 143}";
type = Stem;
},
{
place = "{608, 143}";
type = Stem;
},
{
horizontal = 1;
place = "{-12, 126}";
type = Stem;
},
{
horizontal = 1;
place = "{586, 126}";
type = Stem;
},
{
place = "{391, 133}";
type = Stem;
},
{
place = "{609, 142}";
type = Stem;
},
{
horizontal = 1;
place = "{-218, 128}";
type = Stem;
},
{
horizontal = 1;
place = "{574, 126}";
type = Stem;
}
);
layerId = "41AFA816-2F69-4745-BF67-F6DEA15443A0";
paths = (
{
closed = 1;
nodes = (
"575 -216 LINE SMOOTH",
"694 -216 OFFCURVE",
"751 -131 OFFCURVE",
"751 -26 CURVE SMOOTH",
"751 284 LINE",
"608 284 LINE",
"608 -13 LINE SMOOTH",
"608 -61 OFFCURVE",
"580 -88 OFFCURVE",
"543 -88 CURVE SMOOTH",
"477 -88 LINE",
"477 -216 LINE"
);
}
);
width = 811;
},
{
components = (
{
alignment = -1;
name = N;
}
);
hints = (
{
place = "{60, 143}";
type = Stem;
},
{
place = "{334, 143}";
type = Stem;
},
{
place = "{608, 143}";
type = Stem;
},
{
horizontal = 1;
place = "{-12, 126}";
type = Stem;
},
{
horizontal = 1;
place = "{586, 126}";
type = Stem;
},
{
place = "{391, 133}";
type = Stem;
},
{
place = "{609, 142}";
type = Stem;
},
{
horizontal = 1;
place = "{-218, 128}";
type = Stem;
},
{
horizontal = 1;
place = "{574, 126}";
type = Stem;
}
);
layerId = "32E5C913-0890-451E-8980-44FAA246AB8A";
paths = (
{
closed = 1;
nodes = (
"648 -216 LINE SMOOTH",
"767 -216 OFFCURVE",
"824 -131 OFFCURVE",
"824 -26 CURVE SMOOTH",
"824 284 LINE",
"619 284 LINE",
"619 -19 LINE SMOOTH",
"619 -51 OFFCURVE",
"599 -66 OFFCURVE",
"572 -66 CURVE SMOOTH",
"479 -66 LINE",
"479 -216 LINE"
);
}
);
width = 867;
}
);
leftKerningGroup = H_2nd;
rightKerningGroup = H_1st;
unicode = 014A;
},
{
glyphname = O;
layers = (
{
background = {
paths = (
{
closed = 1;
nodes = (
"650 -12 OFFCURVE",
"794 150 OFFCURVE",
"794 350 CURVE SMOOTH",
"794 550 OFFCURVE",
"650 712 OFFCURVE",
"427 712 CURVE SMOOTH",
"204 712 OFFCURVE",
"60 550 OFFCURVE",
"60 350 CURVE SMOOTH",
"60 150 OFFCURVE",
"204 -12 OFFCURVE",
"427 -12 CURVE SMOOTH"
);
},
{
closed = 1;
nodes = (
"298 114 OFFCURVE",
"203 215 OFFCURVE",
"203 350 CURVE SMOOTH",
"203 485 OFFCURVE",
"298 586 OFFCURVE",
"427 586 CURVE SMOOTH",
"556 586 OFFCURVE",
"651 485 OFFCURVE",
"651 350 CURVE SMOOTH",
"651 215 OFFCURVE",
"556 114 OFFCURVE",
"427 114 CURVE SMOOTH"
);
}
);
};
hints = (
{
place = "{30, 143}";
type = Stem;
},
{
place = "{621, 143}";
type = Stem;
},
{
horizontal = 1;
place = "{-12, 126}";
type = Stem;
},
{
horizontal = 1;
place = "{586, 126}";
type = Stem;
}
);
layerId = "5dd0c03f-0ac1-43be-b978-266741ffc02a";
paths = (
{
closed = 1;
nodes = (
"637 -13 OFFCURVE",
"778 149 OFFCURVE",
"778 350 CURVE SMOOTH",
"778 551 OFFCURVE",
"637 713 OFFCURVE",
"419 713 CURVE SMOOTH",
"202 713 OFFCURVE",
"60 551 OFFCURVE",
"60 350 CURVE SMOOTH",
"60 149 OFFCURVE",
"202 -13 OFFCURVE",
"419 -13 CURVE SMOOTH"
);
},
{
closed = 1;
nodes = (
"226 10 OFFCURVE",
"85 156 OFFCURVE",
"85 350 CURVE SMOOTH",
"85 544 OFFCURVE",
"226 690 OFFCURVE",
"419 690 CURVE SMOOTH",
"612 690 OFFCURVE",
"753 544 OFFCURVE",
"753 350 CURVE SMOOTH",
"753 156 OFFCURVE",
"612 10 OFFCURVE",
"419 10 CURVE SMOOTH"
);
}
);
width = 838;
},
{
hints = (
{
place = "{30, 143}";
type = Stem;
},
{
place = "{621, 143}";
type = Stem;
},
{
horizontal = 1;
place = "{-12, 126}";
type = Stem;
},
{
horizontal = 1;
place = "{586, 126}";
type = Stem;
}
);
layerId = "41AFA816-2F69-4745-BF67-F6DEA15443A0";
paths = (
{
closed = 1;
nodes = (
"620 -13 OFFCURVE",
"764 150 OFFCURVE",
"764 351 CURVE SMOOTH",
"764 551 OFFCURVE",
"620 713 OFFCURVE",
"397 713 CURVE SMOOTH",
"174 713 OFFCURVE",
"30 551 OFFCURVE",
"30 351 CURVE SMOOTH",
"30 150 OFFCURVE",
"174 -13 OFFCURVE",
"397 -13 CURVE SMOOTH"
);
},
{
closed = 1;
nodes = (
"268 114 OFFCURVE",
"173 215 OFFCURVE",
"173 351 CURVE SMOOTH",
"173 486 OFFCURVE",
"268 587 OFFCURVE",
"397 587 CURVE SMOOTH",
"526 587 OFFCURVE",
"621 486 OFFCURVE",
"621 351 CURVE SMOOTH",
"621 215 OFFCURVE",
"526 114 OFFCURVE",
"397 114 CURVE SMOOTH"
);
}
);
width = 794;
},
{
hints = (
{
place = "{30, 143}";
type = Stem;
},
{
place = "{621, 143}";
type = Stem;
},
{
horizontal = 1;
place = "{-12, 126}";
type = Stem;
},
{
horizontal = 1;
place = "{586, 126}";
type = Stem;
}
);
layerId = "32E5C913-0890-451E-8980-44FAA246AB8A";
paths = (
{
closed = 1;
nodes = (
"627 -13 OFFCURVE",
"784 142 OFFCURVE",
"784 350 CURVE SMOOTH",
"784 559 OFFCURVE",
"627 713 OFFCURVE",
"405 713 CURVE SMOOTH",
"183 713 OFFCURVE",
"26 559 OFFCURVE",
"26 350 CURVE SMOOTH",
"26 142 OFFCURVE",
"183 -13 OFFCURVE",
"405 -13 CURVE SMOOTH"
);
},
{
closed = 1;
nodes = (
"306 161 OFFCURVE",
"244 245 OFFCURVE",
"244 350 CURVE SMOOTH",
"244 455 OFFCURVE",
"306 539 OFFCURVE",
"405 539 CURVE SMOOTH",
"504 539 OFFCURVE",
"566 455 OFFCURVE",
"566 350 CURVE SMOOTH",
"566 245 OFFCURVE",
"504 161 OFFCURVE",
"405 161 CURVE SMOOTH"
);
}
);
width = 810;
}
);
leftKerningGroup = O_2nd;
rightKerningGroup = O_1st;
unicode = 004F;
},
{
glyphname = Oogonek;
layers = (
{
background = {
paths = (
{
closed = 1;
nodes = (
"408 -1 LINE",
"384 -37 OFFCURVE",
"363 -80 OFFCURVE",
"363 -119 CURVE SMOOTH",
"363 -189 OFFCURVE",
"412 -226 OFFCURVE",
"485 -226 CURVE SMOOTH",
"511 -226 OFFCURVE",
"530 -220 OFFCURVE",
"536 -218 CURVE",
"536 -193 LINE",
"515 -199 OFFCURVE",
"498 -202 OFFCURVE",
"482 -202 CURVE SMOOTH",
"424 -202 OFFCURVE",
"389 -172 OFFCURVE",
"389 -121 CURVE SMOOTH",
"389 -81 OFFCURVE",
"412 -36 OFFCURVE",
"437 -1 CURVE"
);
},
{
closed = 1;
nodes = (
"437 -1 LINE",
"461 35 OFFCURVE",
"486 62 OFFCURVE",
"490 66 CURVE",
"471 78 LINE",
"467 74 OFFCURVE",
"436 41 OFFCURVE",
"408 -1 CURVE"
);
}
);
};
components = (
{
name = O;
}
);
hints = (
{
place = "{30, 143}";
type = Stem;
},
{
place = "{621, 143}";
type = Stem;
},
{
horizontal = 1;
place = "{-12, 126}";
type = Stem;
},
{
horizontal = 1;
place = "{586, 126}";
type = Stem;
},
{
place = "{581, 85}";
type = Stem;
},
{
place = "{581, 183}";
type = Stem;
},
{
horizontal = 1;
place = "{-218, 21}";
target = up;
type = BottomGhost;
},
{
place = "{319, 85}";
type = Stem;
},
{
place = "{319, 183}";
type = Stem;
},
{
horizontal = 1;
place = "{-226, 21}";
target = up;
type = BottomGhost;
},
{
place = "{363, 85}";
type = Stem;
},
{
place = "{363, 183}";
type = Stem;
},
{
horizontal = 1;
place = "{-226, 21}";
target = up;
type = BottomGhost;
}
);
layerId = "5dd0c03f-0ac1-43be-b978-266741ffc02a";
paths = (
{
closed = 1;
nodes = (
"539 -226 OFFCURVE",
"558 -220 OFFCURVE",
"564 -218 CURVE",
"564 -193 LINE",
"543 -199 OFFCURVE",
"526 -202 OFFCURVE",
"510 -202 CURVE SMOOTH",
"452 -202 OFFCURVE",
"417 -172 OFFCURVE",
"417 -121 CURVE SMOOTH",
"417 -81 OFFCURVE",
"440 -36 OFFCURVE",
"465 -1 CURVE",
"436 -1 LINE",
"412 -37 OFFCURVE",
"391 -80 OFFCURVE",
"391 -119 CURVE SMOOTH",
"391 -189 OFFCURVE",
"440 -226 OFFCURVE",
"513 -226 CURVE SMOOTH"
);
}
);
width = 838;
},
{
background = {
components = (
{
alignment = -1;
name = O;
},
{
alignment = -1;
name = ogonek;
transform = "{1, 0, 0, 1, 312, -8}";
}
);
};
components = (
{
alignment = -1;
name = O;
}
);
hints = (
{
place = "{30, 143}";
type = Stem;
},
{
place = "{621, 143}";
type = Stem;
},
{
horizontal = 1;
place = "{-12, 126}";
type = Stem;
},
{
horizontal = 1;
place = "{586, 126}";
type = Stem;
},
{
place = "{581, 85}";
type = Stem;
},
{
place = "{581, 183}";
type = Stem;
},
{
horizontal = 1;
place = "{-218, 21}";
target = up;
type = BottomGhost;
},
{
place = "{319, 85}";
type = Stem;
},
{
place = "{319, 183}";
type = Stem;
},
{
horizontal = 1;
place = "{-226, 21}";
target = up;
type = BottomGhost;
},
{
place = "{319, 85}";
type = Stem;
},
{
place = "{319, 183}";
type = Stem;
},
{
horizontal = 1;
place = "{-226, 21}";
target = up;
type = BottomGhost;
}
);
layerId = "41AFA816-2F69-4745-BF67-F6DEA15443A0";
paths = (
{
closed = 1;
nodes = (
"464 -226 OFFCURVE",
"488 -223 OFFCURVE",
"502 -219 CURVE",
"502 -134 LINE",
"488 -139 OFFCURVE",
"474 -142 OFFCURVE",
"459 -142 CURVE SMOOTH",
"428 -142 OFFCURVE",
"404 -120 OFFCURVE",
"404 -88 CURVE SMOOTH",
"404 -37 OFFCURVE",
"463 49 OFFCURVE",
"469 58 CURVE",
"434 78 LINE",
"427 70 OFFCURVE",
"319 -41 OFFCURVE",
"319 -112 CURVE SMOOTH",
"319 -189 OFFCURVE",
"378 -226 OFFCURVE",
"450 -226 CURVE SMOOTH"
);
}
);
width = 794;
},
{
components = (
{
alignment = -1;
name = O;
}
);
hints = (
{
place = "{30, 143}";
type = Stem;
},
{
place = "{621, 143}";
type = Stem;
},
{
horizontal = 1;
place = "{-12, 126}";
type = Stem;
},
{
horizontal = 1;
place = "{586, 126}";
type = Stem;
},
{
place = "{581, 85}";
type = Stem;
},
{
place = "{581, 183}";
type = Stem;
},
{
horizontal = 1;
place = "{-218, 21}";
target = up;
type = BottomGhost;
},
{
place = "{319, 85}";
type = Stem;
},
{
place = "{319, 183}";
type = Stem;
},
{
horizontal = 1;
place = "{-226, 21}";
target = up;
type = BottomGhost;
},
{
place = "{319, 85}";
type = Stem;
},
{
place = "{319, 183}";
type = Stem;
},
{
horizontal = 1;
place = "{-226, 21}";
target = up;
type = BottomGhost;
}
);
layerId = "32E5C913-0890-451E-8980-44FAA246AB8A";
paths = (
{
closed = 1;
nodes = (
"464 -227 OFFCURVE",
"496 -223 OFFCURVE",
"514 -218 CURVE",
"514 -125 LINE",
"502 -129 OFFCURVE",
"486 -132 OFFCURVE",
"470 -132 CURVE SMOOTH",
"436 -132 OFFCURVE",
"418 -112 OFFCURVE",
"418 -85 CURVE SMOOTH",
"418 -37 OFFCURVE",
"483 54 OFFCURVE",
"487 61 CURVE",
"430 87 LINE",
"423 79 OFFCURVE",
"308 -34 OFFCURVE",
"307 -114 CURVE SMOOTH",
"306 -194 OFFCURVE",
"365 -227 OFFCURVE",
"443 -227 CURVE SMOOTH"
);
}
);
width = 810;
}
);
leftKerningGroup = O_2nd;
rightKerningGroup = O_1st;
unicode = 01EA;
},
{
glyphname = Oslash;
layers = (
{
background = {
paths = (
{
closed = 1;
nodes = (
"752 701 LINE",
"52 0 LINE",
"85 0 LINE",
"787 701 LINE"
);
},
{
closed = 1;
nodes = (
"637 -13 OFFCURVE",
"778 149 OFFCURVE",
"778 350 CURVE SMOOTH",
"778 551 OFFCURVE",
"637 713 OFFCURVE",
"419 713 CURVE SMOOTH",
"202 713 OFFCURVE",
"60 551 OFFCURVE",
"60 350 CURVE SMOOTH",
"60 149 OFFCURVE",
"202 -13 OFFCURVE",
"419 -13 CURVE SMOOTH"
);
},
{
closed = 1;
nodes = (
"226 10 OFFCURVE",
"85 156 OFFCURVE",
"85 350 CURVE SMOOTH",
"85 544 OFFCURVE",
"226 690 OFFCURVE",
"419 690 CURVE SMOOTH",
"612 690 OFFCURVE",
"753 544 OFFCURVE",
"753 350 CURVE SMOOTH",
"753 156 OFFCURVE",
"612 10 OFFCURVE",
"419 10 CURVE SMOOTH"
);
}
);
};
hints = (
{
place = "{30, 143}";
type = Stem;
},
{
place = "{621, 143}";
type = Stem;
},
{
horizontal = 1;
place = "{-12, 126}";
type = Stem;
},
{
horizontal = 1;
place = "{586, 126}";
type = Stem;
},
{
place = "{30, 143}";
type = Stem;
},
{
place = "{621, 143}";
type = Stem;
},
{
horizontal = 1;
place = "{-12, 126}";
type = Stem;
},
{
horizontal = 1;
place = "{586, 126}";
type = Stem;
}
);
layerId = "5dd0c03f-0ac1-43be-b978-266741ffc02a";
paths = (
{
closed = 1;
nodes = (
"637 -13 OFFCURVE",
"778 149 OFFCURVE",
"778 350 CURVE SMOOTH",
"778 447 OFFCURVE",
"745 535 OFFCURVE",
"686 600 CURVE",
"787 701 LINE",
"752 701 LINE",
"669 618 LINE",
"607 677 OFFCURVE",
"522 713 OFFCURVE",
"419 713 CURVE SMOOTH",
"202 713 OFFCURVE",
"60 551 OFFCURVE",
"60 350 CURVE SMOOTH",
"60 253 OFFCURVE",
"93 165 OFFCURVE",
"152 100 CURVE",
"52 0 LINE",
"85 0 LINE",
"168 83 LINE",
"230 23 OFFCURVE",
"316 -13 OFFCURVE",
"419 -13 CURVE SMOOTH"
);
},
{
closed = 1;
nodes = (
"326 10 OFFCURVE",
"245 44 OFFCURVE",
"186 101 CURVE",
"668 582 LINE",
"722 522 OFFCURVE",
"753 442 OFFCURVE",
"753 350 CURVE SMOOTH",
"753 156 OFFCURVE",
"612 10 OFFCURVE",
"419 10 CURVE SMOOTH"
);
},
{
closed = 1;
nodes = (
"116 178 OFFCURVE",
"85 259 OFFCURVE",
"85 350 CURVE SMOOTH",
"85 544 OFFCURVE",
"226 690 OFFCURVE",
"419 690 CURVE SMOOTH",
"512 690 OFFCURVE",
"592 656 OFFCURVE",
"651 600 CURVE",
"170 118 LINE"
);
}
);
width = 838;
},
{
hints = (
{
place = "{30, 143}";
type = Stem;
},
{
place = "{621, 143}";
type = Stem;
},
{
horizontal = 1;
place = "{-12, 126}";
type = Stem;
},
{
horizontal = 1;
place = "{586, 126}";
type = Stem;
}
);
layerId = "41AFA816-2F69-4745-BF67-F6DEA15443A0";
paths = (
{
closed = 1;
nodes = (
"620 -12 OFFCURVE",
"764 150 OFFCURVE",
"764 350 CURVE SMOOTH",
"764 441 OFFCURVE",
"729 527 OFFCURVE",
"670 591 CURVE",
"765 701 LINE",
"635 701 LINE",
"595 655 LINE",
"539 691 OFFCURVE",
"471 712 OFFCURVE",
"397 712 CURVE SMOOTH",
"174 712 OFFCURVE",
"30 550 OFFCURVE",
"30 350 CURVE SMOOTH",
"30 258 OFFCURVE",
"65 173 OFFCURVE",
"123 108 CURVE",
"30 0 LINE",
"160 0 LINE",
"198 45 LINE",
"255 9 OFFCURVE",
"323 -12 OFFCURVE",
"397 -12 CURVE SMOOTH"
);
},
{
closed = 1;
nodes = (
"355 114 OFFCURVE",
"316 124 OFFCURVE",
"283 143 CURVE",
"581 488 LINE",
"606 450 OFFCURVE",
"621 402 OFFCURVE",
"621 350 CURVE SMOOTH",
"621 215 OFFCURVE",
"526 114 OFFCURVE",
"397 114 CURVE SMOOTH"
);
},
{
closed = 1;
nodes = (
"187 250 OFFCURVE",
"173 297 OFFCURVE",
"173 350 CURVE SMOOTH",
"173 485 OFFCURVE",
"268 586 OFFCURVE",
"397 586 CURVE SMOOTH",
"439 586 OFFCURVE",
"477 575 OFFCURVE",
"510 556 CURVE",
"212 211 LINE"
);
}
);
width = 794;
},
{
hints = (
{
place = "{-1.5, 130.25}";
type = Stem;
},
{
place = "{594.75, 130.25}";
type = Stem;
},
{
horizontal = 1;
place = "{436.5, 126}";
type = Stem;
},
{
horizontal = 1;
place = "{586, 126}";
type = Stem;
}
);
layerId = "32E5C913-0890-451E-8980-44FAA246AB8A";
paths = (
{
closed = 1;
nodes = (
"627 -13 OFFCURVE",
"784 142 OFFCURVE",
"784 350 CURVE SMOOTH",
"784 444 OFFCURVE",
"750 528 OFFCURVE",
"693 591 CURVE",
"788 700 LINE",
"622 700 LINE",
"594 668 LINE",
"539 696 OFFCURVE",
"475 713 OFFCURVE",
"405 713 CURVE SMOOTH",
"183 713 OFFCURVE",
"26 558 OFFCURVE",
"26 350 CURVE SMOOTH",
"26 260 OFFCURVE",
"57 178 OFFCURVE",
"110 116 CURVE",
"10 0 LINE",
"174 0 LINE",
"206 38 LINE",
"263 5 OFFCURVE",
"331 -13 OFFCURVE",
"405 -13 CURVE SMOOTH"
);
},
{
closed = 1;
nodes = (
"377 161 OFFCURVE",
"352 168 OFFCURVE",
"330 180 CURVE",
"549 433 LINE",
"560 408 OFFCURVE",
"566 380 OFFCURVE",
"566 350 CURVE SMOOTH",
"566 245 OFFCURVE",
"504 161 OFFCURVE",
"405 161 CURVE SMOOTH"
);
},
{
closed = 1;
nodes = (
"249 300 OFFCURVE",
"244 324 OFFCURVE",
"244 350 CURVE SMOOTH",
"244 455 OFFCURVE",
"306 539 OFFCURVE",
"405 539 CURVE SMOOTH",
"429 539 OFFCURVE",
"450 534 OFFCURVE",
"470 525 CURVE",
"258 279 LINE"
);
}
);
width = 810;
}
);
leftKerningGroup = O_2nd;
rightKerningGroup = O_1st;
unicode = 00D8;
},
{
glyphname = OE;
layers = (
{
background = {
paths = (
{
closed = 1;
nodes = (
"688 580 LINE",
"710 639 OFFCURVE",
"766 676 OFFCURVE",
"829 676 CURVE SMOOTH",
"1086 676 LINE",
"1086 699 LINE",
"826 699 LINE SMOOTH",
"760 699 OFFCURVE",
"694 658 OFFCURVE",
"670 597 CURVE"
);
},
{
closed = 1;
nodes = (
"765 345 LINE",
"1046 345 LINE",
"1046 368 LINE",
"765 368 LINE"
);
},
{
closed = 1;
nodes = (
"665 96 LINE",
"692 41 OFFCURVE",
"746 0 OFFCURVE",
"825 0 CURVE SMOOTH",
"1086 0 LINE",
"1086 23 LINE",
"832 23 LINE SMOOTH",
"755 23 OFFCURVE",
"706 63 OFFCURVE",
"684 116 CURVE"
);
},
{
closed = 1;
nodes = (
"637 -13 OFFCURVE",
"778 149 OFFCURVE",
"778 350 CURVE SMOOTH",
"778 551 OFFCURVE",
"637 713 OFFCURVE",
"419 713 CURVE SMOOTH",
"202 713 OFFCURVE",
"60 551 OFFCURVE",
"60 350 CURVE SMOOTH",
"60 149 OFFCURVE",
"202 -13 OFFCURVE",
"419 -13 CURVE SMOOTH"
);
},
{
closed = 1;
nodes = (
"226 10 OFFCURVE",
"85 156 OFFCURVE",
"85 350 CURVE SMOOTH",
"85 544 OFFCURVE",
"226 690 OFFCURVE",
"419 690 CURVE SMOOTH",
"612 690 OFFCURVE",
"753 544 OFFCURVE",
"753 350 CURVE SMOOTH",
"753 156 OFFCURVE",
"612 10 OFFCURVE",
"419 10 CURVE SMOOTH"
);
}
);
};
hints = (
{
place = "{30, 143}";
type = Stem;
},
{
horizontal = 1;
place = "{-12, 126}";
type = Stem;
},
{
horizontal = 1;
place = "{0, 126}";
type = Stem;
},
{
horizontal = 1;
place = "{293, 126}";
type = Stem;
},
{
horizontal = 1;
place = "{574, 126}";
type = Stem;
},
{
horizontal = 1;
place = "{586, 126}";
type = Stem;
},
{
place = "{613, 143}";
type = Stem;
},
{
horizontal = 1;
place = "{0, 126}";
type = Stem;
},
{
horizontal = 1;
place = "{293, 126}";
type = Stem;
},
{
horizontal = 1;
place = "{574, 126}";
type = Stem;
},
{
place = "{30, 143}";
type = Stem;
},
{
place = "{621, 143}";
type = Stem;
},
{
horizontal = 1;
place = "{-12, 126}";
type = Stem;
},
{
horizontal = 1;
place = "{586, 126}";
type = Stem;
}
);
layerId = "5dd0c03f-0ac1-43be-b978-266741ffc02a";
paths = (
{
closed = 1;
nodes = (
"523 -13 OFFCURVE",
"609 24 OFFCURVE",
"671 84 CURVE",
"700 35 OFFCURVE",
"752 0 OFFCURVE",
"825 0 CURVE SMOOTH",
"1086 0 LINE",
"1086 23 LINE",
"832 23 LINE SMOOTH",
"761 23 OFFCURVE",
"714 57 OFFCURVE",
"690 104 CURVE",
"745 167 OFFCURVE",
"777 252 OFFCURVE",
"778 345 CURVE",
"1046 345 LINE",
"1046 368 LINE",
"778 368 LINE",
"774 454 OFFCURVE",
"744 532 OFFCURVE",
"693 592 CURVE",
"718 644 OFFCURVE",
"771 676 OFFCURVE",
"829 676 CURVE SMOOTH",
"1086 676 LINE",
"1086 699 LINE",
"826 699 LINE SMOOTH",
"765 699 OFFCURVE",
"704 664 OFFCURVE",
"676 611 CURVE",
"614 674 OFFCURVE",
"526 713 OFFCURVE",
"419 713 CURVE SMOOTH",
"202 713 OFFCURVE",
"60 551 OFFCURVE",
"60 350 CURVE SMOOTH",
"60 149 OFFCURVE",
"202 -13 OFFCURVE",
"419 -13 CURVE SMOOTH"
);
},
{
closed = 1;
nodes = (
"226 10 OFFCURVE",
"85 156 OFFCURVE",
"85 350 CURVE SMOOTH",
"85 544 OFFCURVE",
"226 690 OFFCURVE",
"419 690 CURVE SMOOTH",
"612 690 OFFCURVE",
"753 544 OFFCURVE",
"753 350 CURVE SMOOTH",
"753 156 OFFCURVE",
"612 10 OFFCURVE",
"419 10 CURVE SMOOTH"
);
}
);
width = 1136;
},
{
hints = (
{
place = "{30, 143}";
type = Stem;
},
{
horizontal = 1;
place = "{-12, 126}";
type = Stem;
},
{
horizontal = 1;
place = "{0, 126}";
type = Stem;
},
{
horizontal = 1;
place = "{293, 126}";
type = Stem;
},
{
horizontal = 1;
place = "{574, 126}";
type = Stem;
},
{
horizontal = 1;
place = "{586, 126}";
type = Stem;
}
);
layerId = "41AFA816-2F69-4745-BF67-F6DEA15443A0";
paths = (
{
closed = 1;
nodes = (
"490 -12 OFFCURVE",
"569 18 OFFCURVE",
"629 69 CURVE",
"667 26 OFFCURVE",
"715 0 OFFCURVE",
"770 0 CURVE SMOOTH",
"1053 0 LINE",
"1053 126 LINE",
"787 126 LINE SMOOTH",
"755 126 OFFCURVE",
"727 141 OFFCURVE",
"712 164 CURVE",
"734 203 OFFCURVE",
"748 246 OFFCURVE",
"754 293 CURVE",
"1019 293 LINE",
"1019 419 LINE",
"753 419 LINE",
"745 462 OFFCURVE",
"731 501 OFFCURVE",
"710 537 CURVE",
"725 559 OFFCURVE",
"751 574 OFFCURVE",
"781 574 CURVE SMOOTH",
"1053 574 LINE",
"1053 700 LINE",
"765 700 LINE SMOOTH",
"712 700 OFFCURVE",
"664 674 OFFCURVE",
"627 632 CURVE",
"567 682 OFFCURVE",
"489 712 OFFCURVE",
"397 712 CURVE SMOOTH",
"174 712 OFFCURVE",
"30 550 OFFCURVE",
"30 350 CURVE SMOOTH",
"30 150 OFFCURVE",
"174 -12 OFFCURVE",
"397 -12 CURVE SMOOTH"
);
},
{
closed = 1;
nodes = (
"268 114 OFFCURVE",
"173 215 OFFCURVE",
"173 350 CURVE SMOOTH",
"173 485 OFFCURVE",
"268 586 OFFCURVE",
"397 586 CURVE SMOOTH",
"526 586 OFFCURVE",
"621 485 OFFCURVE",
"621 350 CURVE SMOOTH",
"621 215 OFFCURVE",
"526 114 OFFCURVE",
"397 114 CURVE SMOOTH"
);
}
);
width = 1093;
},
{
hints = (
{
place = "{227.25, 130.25}";
type = Stem;
},
{
horizontal = 1;
place = "{216.75, 126}";
type = Stem;
},
{
horizontal = 1;
place = "{430.5, 126}";
type = Stem;
},
{
horizontal = 1;
place = "{503.75, 126}";
type = Stem;
},
{
horizontal = 1;
place = "{583, 126}";
type = Stem;
},
{
horizontal = 1;
place = "{586, 126}";
type = Stem;
}
);
layerId = "32E5C913-0890-451E-8980-44FAA246AB8A";
paths = (
{
closed = 1;
nodes = (
"491 -13 OFFCURVE",
"565 10 OFFCURVE",
"625 49 CURVE",
"663 18 OFFCURVE",
"711 0 OFFCURVE",
"765 0 CURVE SMOOTH",
"1079 0 LINE",
"1079 169 LINE",
"768 169 LINE SMOOTH",
"758 169 OFFCURVE",
"750 173 OFFCURVE",
"744 178 CURVE",
"757 207 OFFCURVE",
"768 237 OFFCURVE",
"774 270 CURVE",
"1070 270 LINE",
"1070 434 LINE",
"773 434 LINE",
"767 467 OFFCURVE",
"757 497 OFFCURVE",
"742 524 CURVE",
"748 530 OFFCURVE",
"757 534 OFFCURVE",
"767 534 CURVE SMOOTH",
"1079 532 LINE",
"1079 700 LINE",
"767 700 LINE SMOOTH",
"714 700 OFFCURVE",
"665 682 OFFCURVE",
"628 649 CURVE",
"568 690 OFFCURVE",
"492 713 OFFCURVE",
"405 713 CURVE SMOOTH",
"175 713 OFFCURVE",
"26 558 OFFCURVE",
"26 350 CURVE SMOOTH",
"26 142 OFFCURVE",
"175 -13 OFFCURVE",
"405 -13 CURVE SMOOTH"
);
},
{
closed = 1;
nodes = (
"303 161 OFFCURVE",
"244 241 OFFCURVE",
"244 350 CURVE SMOOTH",
"244 459 OFFCURVE",
"303 539 OFFCURVE",
"405 539 CURVE SMOOTH",
"507 539 OFFCURVE",
"566 459 OFFCURVE",
"566 350 CURVE SMOOTH",
"566 241 OFFCURVE",
"507 161 OFFCURVE",
"405 161 CURVE SMOOTH"
);
}
);
width = 1115;
}
);
leftKerningGroup = O_2nd;
rightKerningGroup = E_1st;
unicode = 0152;
},
{
glyphname = P;
layers = (
{
background = {
paths = (
{
closed = 1;
nodes = (
"377 270 LINE SMOOTH",
"514 270 OFFCURVE",
"605 360 OFFCURVE",
"605 484 CURVE SMOOTH",
"605 613 OFFCURVE",
"505 700 OFFCURVE",
"383 700 CURVE SMOOTH",
"97 700 LINE",
"97 677 LINE",
"379 677 LINE SMOOTH",
"487 677 OFFCURVE",
"580 606 OFFCURVE",
"580 484 CURVE SMOOTH",
"580 363 OFFCURVE",
"489 293 OFFCURVE",
"375 293 CURVE SMOOTH",
"100 293 LINE",
"100 270 LINE"
);
},
{
closed = 1;
nodes = (
"110 0 LINE",
"110 700 LINE",
"85 700 LINE",
"85 0 LINE"
);
}
);
};
hints = (
{
place = "{70, 143}";
type = Stem;
},
{
place = "{469, 143}";
type = Stem;
},
{
horizontal = 1;
place = "{202, 126}";
type = Stem;
},
{
horizontal = 1;
place = "{574, 126}";
type = Stem;
},
{
horizontal = 1;
place = "{0, 21}";
target = up;
type = BottomGhost;
}
);
layerId = "5dd0c03f-0ac1-43be-b978-266741ffc02a";
paths = (
{
closed = 1;
nodes = (
"110 0 LINE",
"110 270 LINE",
"377 270 LINE SMOOTH",
"514 270 OFFCURVE",
"605 360 OFFCURVE",
"605 484 CURVE SMOOTH",
"605 613 OFFCURVE",
"505 700 OFFCURVE",
"383 700 CURVE SMOOTH",
"85 700 LINE",
"85 0 LINE"
);
},
{
closed = 1;
nodes = (
"110 677 LINE",
"379 677 LINE SMOOTH",
"487 677 OFFCURVE",
"580 606 OFFCURVE",
"580 484 CURVE SMOOTH",
"580 363 OFFCURVE",
"489 293 OFFCURVE",
"375 293 CURVE SMOOTH",
"110 293 LINE"
);
}
);
width = 665;
},
{
hints = (
{
place = "{70, 143}";
type = Stem;
},
{
place = "{469, 143}";
type = Stem;
},
{
horizontal = 1;
place = "{202, 126}";
type = Stem;
},
{
horizontal = 1;
place = "{574, 126}";
type = Stem;
},
{
horizontal = 1;
place = "{0, 21}";
target = up;
type = BottomGhost;
}
);
layerId = "41AFA816-2F69-4745-BF67-F6DEA15443A0";
paths = (
{
closed = 1;
nodes = (
"213 0 LINE",
"213 202 LINE",
"363 202 LINE SMOOTH",
"500 202 OFFCURVE",
"612 304 OFFCURVE",
"612 451 CURVE SMOOTH",
"612 598 OFFCURVE",
"500 700 OFFCURVE",
"363 700 CURVE SMOOTH",
"70 700 LINE",
"70 0 LINE"
);
},
{
closed = 1;
nodes = (
"213 574 LINE",
"346 574 LINE SMOOTH",
"414 574 OFFCURVE",
"469 529 OFFCURVE",
"469 451 CURVE SMOOTH",
"469 373 OFFCURVE",
"414 328 OFFCURVE",
"346 328 CURVE SMOOTH",
"213 328 LINE"
);
}
);
width = 637;
},
{
hints = (
{
place = "{70, 143}";
type = Stem;
},
{
place = "{469, 143}";
type = Stem;
},
{
horizontal = 1;
place = "{202, 126}";
type = Stem;
},
{
horizontal = 1;
place = "{574, 126}";
type = Stem;
},
{
horizontal = 1;
place = "{0, 21}";
target = up;
type = BottomGhost;
}
);
layerId = "32E5C913-0890-451E-8980-44FAA246AB8A";
paths = (
{
closed = 1;
nodes = (
"260 0 LINE",
"260 185 LINE",
"359 185 LINE SMOOTH",
"509 185 OFFCURVE",
"632 291 OFFCURVE",
"632 444 CURVE SMOOTH",
"632 595 OFFCURVE",
"509 700 OFFCURVE",
"359 700 CURVE SMOOTH",
"44 700 LINE",
"44 0 LINE"
);
},
{
closed = 1;
nodes = (
"260 531 LINE",
"336 531 LINE SMOOTH",
"377 531 OFFCURVE",
"414 498 OFFCURVE",
"414 442 CURVE SMOOTH",
"414 386 OFFCURVE",
"377 354 OFFCURVE",
"336 354 CURVE SMOOTH",
"260 354 LINE"
);
}
);
width = 657;
}
);
leftKerningGroup = H_2nd;
rightKerningGroup = P_1st;
unicode = 0050;
},
{
glyphname = Thorn;
layers = (
{
background = {
paths = (
{
closed = 1;
nodes = (
"110 0 LINE",
"110 135 LINE",
"377 135 LINE SMOOTH",
"514 135 OFFCURVE",
"605 225 OFFCURVE",
"605 349 CURVE SMOOTH",
"605 478 OFFCURVE",
"505 565 OFFCURVE",
"383 565 CURVE SMOOTH",
"85 565 LINE",
"85 0 LINE"
);
},
{
closed = 1;
nodes = (
"110 542 LINE",
"379 542 LINE SMOOTH",
"487 542 OFFCURVE",
"580 471 OFFCURVE",
"580 349 CURVE SMOOTH",
"580 228 OFFCURVE",
"489 158 OFFCURVE",
"375 158 CURVE SMOOTH",
"110 158 LINE"
);
},
{
closed = 1;
nodes = (
"85 556 LINE",
"110 556 LINE",
"110 700 LINE",
"85 700 LINE"
);
}
);
};
hints = (
{
place = "{70, 143}";
type = Stem;
},
{
place = "{469, 143}";
type = Stem;
},
{
horizontal = 1;
place = "{102, 126}";
type = Stem;
},
{
horizontal = 1;
place = "{474, 126}";
type = Stem;
},
{
horizontal = 1;
place = "{700, -20}";
target = down;
type = TopGhost;
},
{
horizontal = 1;
place = "{0, 21}";
target = up;
type = BottomGhost;
},
{
place = "{70, 143}";
type = Stem;
},
{
place = "{469, 143}";
type = Stem;
},
{
horizontal = 1;
place = "{52, 126}";
type = Stem;
},
{
horizontal = 1;
place = "{424, 126}";
type = Stem;
},
{
horizontal = 1;
place = "{-150, 21}";
target = up;
type = BottomGhost;
}
);
layerId = "5dd0c03f-0ac1-43be-b978-266741ffc02a";
paths = (
{
closed = 1;
nodes = (
"110 0 LINE",
"110 135 LINE",
"377 135 LINE SMOOTH",
"514 135 OFFCURVE",
"605 225 OFFCURVE",
"605 349 CURVE SMOOTH",
"605 478 OFFCURVE",
"505 565 OFFCURVE",
"383 565 CURVE SMOOTH",
"110 565 LINE",
"110 700 LINE",
"85 700 LINE",
"85 0 LINE"
);
},
{
closed = 1;
nodes = (
"110 542 LINE",
"379 542 LINE SMOOTH",
"487 542 OFFCURVE",
"580 471 OFFCURVE",
"580 349 CURVE SMOOTH",
"580 228 OFFCURVE",
"489 158 OFFCURVE",
"375 158 CURVE SMOOTH",
"110 158 LINE"
);
}
);
width = 665;
},
{
hints = (
{
place = "{70, 143}";
type = Stem;
},
{
place = "{469, 143}";
type = Stem;
},
{
horizontal = 1;
place = "{102, 126}";
type = Stem;
},
{
horizontal = 1;
place = "{474, 126}";
type = Stem;
},
{
horizontal = 1;
place = "{700, -20}";
target = down;
type = TopGhost;
},
{
horizontal = 1;
place = "{0, 21}";
target = up;
type = BottomGhost;
}
);
layerId = "41AFA816-2F69-4745-BF67-F6DEA15443A0";
paths = (
{
closed = 1;
nodes = (
"213 0 LINE",
"213 102 LINE",
"363 102 LINE SMOOTH",
"500 102 OFFCURVE",
"612 204 OFFCURVE",
"612 351 CURVE SMOOTH",
"612 498 OFFCURVE",
"500 600 OFFCURVE",
"363 600 CURVE SMOOTH",
"213 600 LINE",
"213 700 LINE",
"70 700 LINE",
"70 0 LINE"
);
},
{
closed = 1;
nodes = (
"213 474 LINE",
"346 474 LINE SMOOTH",
"414 474 OFFCURVE",
"469 429 OFFCURVE",
"469 351 CURVE SMOOTH",
"469 273 OFFCURVE",
"414 228 OFFCURVE",
"346 228 CURVE SMOOTH",
"213 228 LINE"
);
}
);
width = 637;
},
{
hints = (
{
place = "{70, 143}";
type = Stem;
},
{
place = "{469, 143}";
type = Stem;
},
{
horizontal = 1;
place = "{102, 126}";
type = Stem;
},
{
horizontal = 1;
place = "{474, 126}";
type = Stem;
},
{
horizontal = 1;
place = "{700, -20}";
target = down;
type = TopGhost;
},
{
horizontal = 1;
place = "{0, 21}";
target = up;
type = BottomGhost;
}
);
layerId = "32E5C913-0890-451E-8980-44FAA246AB8A";
paths = (
{
closed = 1;
nodes = (
"260 0 LINE",
"260 96 LINE",
"359 96 LINE SMOOTH",
"510 96 OFFCURVE",
"632 200 OFFCURVE",
"632 351 CURVE SMOOTH",
"632 501 OFFCURVE",
"510 606 OFFCURVE",
"359 606 CURVE SMOOTH",
"260 606 LINE",
"260 700 LINE",
"44 700 LINE",
"44 0 LINE"
);
},
{
closed = 1;
nodes = (
"260 442 LINE",
"337 442 LINE SMOOTH",
"377 442 OFFCURVE",
"414 408 OFFCURVE",
"414 351 CURVE SMOOTH",
"414 293 OFFCURVE",
"377 260 OFFCURVE",
"337 260 CURVE SMOOTH",
"260 260 LINE"
);
}
);
width = 657;
}
);
leftKerningGroup = H_2nd;
rightKerningGroup = P_1st;
unicode = 00DE;
},
{
glyphname = Q;
layers = (
{
background = {
paths = (
{
closed = 1;
nodes = (
"468 -203 LINE",
"468 -6 LINE",
"650 24 OFFCURVE",
"764 172 OFFCURVE",
"764 350 CURVE SMOOTH",
"764 550 OFFCURVE",
"620 712 OFFCURVE",
"397 712 CURVE SMOOTH",
"174 712 OFFCURVE",
"30 550 OFFCURVE",
"30 350 CURVE SMOOTH",
"30 172 OFFCURVE",
"144 24 OFFCURVE",
"326 -6 CURVE",
"326 -203 LINE"
);
},
{
closed = 1;
nodes = (
"268 114 OFFCURVE",
"173 215 OFFCURVE",
"173 350 CURVE SMOOTH",
"173 485 OFFCURVE",
"268 586 OFFCURVE",
"397 586 CURVE SMOOTH",
"526 586 OFFCURVE",
"621 485 OFFCURVE",
"621 350 CURVE SMOOTH",
"621 215 OFFCURVE",
"526 114 OFFCURVE",
"397 114 CURVE SMOOTH"
);
}
);
};
components = (
{
alignment = -1;
name = O;
}
);
hints = (
{
place = "{30, 143}";
type = Stem;
},
{
place = "{326, 142}";
type = Stem;
},
{
place = "{621, 143}";
type = Stem;
},
{
horizontal = 1;
place = "{586, 126}";
type = Stem;
},
{
horizontal = 1;
place = "{-203, 21}";
target = up;
type = BottomGhost;
}
);
layerId = "5dd0c03f-0ac1-43be-b978-266741ffc02a";
paths = (
{
closed = 1;
nodes = (
"432 -203 LINE",
"432 0 LINE",
"407 0 LINE",
"407 -203 LINE"
);
}
);
width = 838;
},
{
background = {
paths = (
{
closed = 1;
nodes = (
"620 -12 OFFCURVE",
"764 150 OFFCURVE",
"764 350 CURVE SMOOTH",
"764 550 OFFCURVE",
"620 712 OFFCURVE",
"397 712 CURVE SMOOTH",
"174 712 OFFCURVE",
"30 550 OFFCURVE",
"30 350 CURVE SMOOTH",
"30 150 OFFCURVE",
"174 -12 OFFCURVE",
"397 -12 CURVE SMOOTH"
);
},
{
closed = 1;
nodes = (
"268 114 OFFCURVE",
"173 215 OFFCURVE",
"173 350 CURVE SMOOTH",
"173 485 OFFCURVE",
"268 586 OFFCURVE",
"397 586 CURVE SMOOTH",
"526 586 OFFCURVE",
"621 485 OFFCURVE",
"621 350 CURVE SMOOTH",
"621 215 OFFCURVE",
"526 114 OFFCURVE",
"397 114 CURVE SMOOTH"
);
},
{
closed = 1;
nodes = (
"326 10 LINE",
"326 -203 LINE",
"468 -203 LINE",
"468 10 LINE"
);
}
);
};
components = (
{
name = O;
}
);
hints = (
{
place = "{30, 143}";
type = Stem;
},
{
place = "{326, 142}";
type = Stem;
},
{
place = "{621, 143}";
type = Stem;
},
{
horizontal = 1;
place = "{586, 126}";
type = Stem;
},
{
horizontal = 1;
place = "{-203, 21}";
target = up;
type = BottomGhost;
}
);
layerId = "41AFA816-2F69-4745-BF67-F6DEA15443A0";
paths = (
{
closed = 1;
nodes = (
"468 -203 LINE",
"468 10 LINE",
"326 10 LINE",
"326 -203 LINE"
);
}
);
width = 794;
},
{
components = (
{
alignment = -1;
name = O;
}
);
hints = (
{
place = "{30, 143}";
type = Stem;
},
{
place = "{326, 142}";
type = Stem;
},
{
place = "{621, 143}";
type = Stem;
},
{
horizontal = 1;
place = "{586, 126}";
type = Stem;
},
{
horizontal = 1;
place = "{-203, 21}";
target = up;
type = BottomGhost;
}
);
layerId = "32E5C913-0890-451E-8980-44FAA246AB8A";
paths = (
{
closed = 1;
nodes = (
"513 -203 LINE",
"513 24 LINE",
"298 24 LINE",
"298 -203 LINE"
);
}
);
width = 810;
}
);
leftKerningGroup = O_2nd;
rightKerningGroup = O_1st;
unicode = 0051;
},
{
glyphname = R;
layers = (
{
background = {
paths = (
{
closed = 1;
nodes = (
"648 24 LINE",
"624 24 LINE SMOOTH",
"583 24 OFFCURVE",
"567 41 OFFCURVE",
"548 82 CURVE SMOOTH",
"454 302 LINE",
"430 295 LINE",
"525 71 LINE",
"547 24 OFFCURVE",
"574 0 OFFCURVE",
"621 0 CURVE SMOOTH",
"648 0 LINE"
);
},
{
closed = 1;
nodes = (
"85 700 LINE",
"85 0 LINE",
"110 0 LINE",
"110 700 LINE"
);
},
{
closed = 1;
nodes = (
"514 281 OFFCURVE",
"605 369 OFFCURVE",
"605 490 CURVE SMOOTH",
"605 616 OFFCURVE",
"505 700 OFFCURVE",
"383 700 CURVE SMOOTH",
"97 700 LINE",
"97 677 LINE",
"379 677 LINE SMOOTH",
"487 677 OFFCURVE",
"580 608 OFFCURVE",
"580 490 CURVE SMOOTH",
"580 372 OFFCURVE",
"489 304 OFFCURVE",
"375 304 CURVE SMOOTH",
"100 304 LINE",
"100 281 LINE",
"377 281 LINE SMOOTH"
);
}
);
};
hints = (
{
place = "{70, 143}";
type = Stem;
},
{
place = "{489, 143}";
type = Stem;
},
{
horizontal = 1;
place = "{0, 126}";
type = Stem;
},
{
horizontal = 1;
place = "{218, 126}";
type = Stem;
},
{
horizontal = 1;
place = "{574, 126}";
type = Stem;
}
);
layerId = "5dd0c03f-0ac1-43be-b978-266741ffc02a";
paths = (
{
closed = 1;
nodes = (
"110 0 LINE",
"110 281 LINE",
"377 281 LINE SMOOTH",
"397 281 OFFCURVE",
"416 283 OFFCURVE",
"434 286 CURVE",
"525 71 LINE SMOOTH",
"547 24 OFFCURVE",
"574 0 OFFCURVE",
"621 0 CURVE SMOOTH",
"648 0 LINE",
"648 24 LINE",
"624 24 LINE SMOOTH",
"583 24 OFFCURVE",
"567 41 OFFCURVE",
"548 82 CURVE SMOOTH",
"458 293 LINE",
"549 320 OFFCURVE",
"605 395 OFFCURVE",
"605 490 CURVE SMOOTH",
"605 616 OFFCURVE",
"505 700 OFFCURVE",
"383 700 CURVE SMOOTH",
"85 700 LINE",
"85 0 LINE"
);
},
{
closed = 1;
nodes = (
"110 677 LINE",
"379 677 LINE SMOOTH",
"487 677 OFFCURVE",
"580 608 OFFCURVE",
"580 490 CURVE SMOOTH",
"580 372 OFFCURVE",
"489 304 OFFCURVE",
"375 304 CURVE SMOOTH",
"110 304 LINE"
);
}
);
width = 670;
},
{
hints = (
{
place = "{70, 143}";
type = Stem;
},
{
place = "{489, 143}";
type = Stem;
},
{
horizontal = 1;
place = "{0, 126}";
type = Stem;
},
{
horizontal = 1;
place = "{218, 126}";
type = Stem;
},
{
horizontal = 1;
place = "{574, 126}";
type = Stem;
}
);
layerId = "41AFA816-2F69-4745-BF67-F6DEA15443A0";
paths = (
{
closed = 1;
nodes = (
"213 0 LINE",
"213 218 LINE",
"331 218 LINE SMOOTH",
"343 218 OFFCURVE",
"356 218 OFFCURVE",
"368 218 CURVE",
"447 76 LINE SMOOTH",
"473 31 OFFCURVE",
"522 0 OFFCURVE",
"578 0 CURVE SMOOTH",
"668 0 LINE",
"668 126 LINE",
"600 126 LINE SMOOTH",
"589 126 OFFCURVE",
"581 131 OFFCURVE",
"576 139 CURVE SMOOTH",
"512 251 LINE",
"584 292 OFFCURVE",
"632 366 OFFCURVE",
"632 459 CURVE SMOOTH",
"632 602 OFFCURVE",
"520 700 OFFCURVE",
"383 700 CURVE SMOOTH",
"70 700 LINE",
"70 0 LINE"
);
},
{
closed = 1;
nodes = (
"213 574 LINE",
"366 574 LINE SMOOTH",
"433 574 OFFCURVE",
"489 531 OFFCURVE",
"489 459 CURVE SMOOTH",
"489 386 OFFCURVE",
"434 344 OFFCURVE",
"366 344 CURVE SMOOTH",
"213 344 LINE"
);
}
);
width = 683;
},
{
hints = (
{
place = "{70, 143}";
type = Stem;
},
{
place = "{489, 143}";
type = Stem;
},
{
horizontal = 1;
place = "{0, 126}";
type = Stem;
},
{
horizontal = 1;
place = "{218, 126}";
type = Stem;
},
{
horizontal = 1;
place = "{574, 126}";
type = Stem;
}
);
layerId = "32E5C913-0890-451E-8980-44FAA246AB8A";
paths = (
{
closed = 1;
nodes = (
"260 0 LINE",
"260 196 LINE",
"317 196 LINE SMOOTH",
"322 196 OFFCURVE",
"328 196 OFFCURVE",
"333 196 CURVE",
"400 83 LINE SMOOTH",
"429 34 OFFCURVE",
"487 0 OFFCURVE",
"558 0 CURVE SMOOTH",
"670 0 LINE",
"670 165 LINE",
"620 165 LINE SMOOTH",
"598 165 OFFCURVE",
"590 172 OFFCURVE",
"581 185 CURVE SMOOTH",
"542 246 LINE",
"607 292 OFFCURVE",
"650 367 OFFCURVE",
"650 449 CURVE SMOOTH",
"650 597 OFFCURVE",
"527 700 OFFCURVE",
"376 700 CURVE SMOOTH",
"44 700 LINE",
"44 0 LINE"
);
},
{
closed = 1;
nodes = (
"260 531 LINE",
"354 531 LINE SMOOTH",
"394 531 OFFCURVE",
"432 498 OFFCURVE",
"432 447 CURVE SMOOTH",
"432 394 OFFCURVE",
"394 361 OFFCURVE",
"354 361 CURVE SMOOTH",
"260 361 LINE"
);
}
);
width = 685;
}
);
leftKerningGroup = H_2nd;
rightKerningGroup = P_1st;
unicode = 0052;
},
{
glyphname = S;
layers = (
{
background = {
paths = (
{
closed = 0;
nodes = (
"396 332 LINE SMOOTH",
"495 332 OFFCURVE",
"548 252 OFFCURVE",
"548 177 CURVE SMOOTH",
"548 102 OFFCURVE",
"493 23 OFFCURVE",
"394 23 CURVE SMOOTH",
"108 23 LINE",
"108 0 LINE",
"389 0 LINE SMOOTH",
"512 0 OFFCURVE",
"574 89 OFFCURVE",
"574 178 CURVE SMOOTH",
"574 266 OFFCURVE",
"512 355 OFFCURVE",
"389 355 CURVE SMOOTH"
);
}
);
};
hints = (
{
place = "{40, 143}";
type = Stem;
},
{
place = "{449, 142}";
type = Stem;
},
{
horizontal = 1;
place = "{0, 126}";
type = Stem;
},
{
horizontal = 1;
place = "{289, 134}";
type = Stem;
},
{
horizontal = 1;
place = "{574, 126}";
type = Stem;
}
);
layerId = "5dd0c03f-0ac1-43be-b978-266741ffc02a";
paths = (
{
closed = 1;
nodes = (
"386 0 LINE SMOOTH",
"512 0 OFFCURVE",
"574 96 OFFCURVE",
"574 191 CURVE SMOOTH",
"574 283 OFFCURVE",
"514 368 OFFCURVE",
"392 368 CURVE SMOOTH",
"237 368 LINE SMOOTH",
"132 368 OFFCURVE",
"80 446 OFFCURVE",
"80 521 CURVE SMOOTH",
"80 597 OFFCURVE",
"138 677 OFFCURVE",
"243 677 CURVE SMOOTH",
"529 677 LINE",
"529 700 LINE",
"243 700 LINE SMOOTH",
"118 700 OFFCURVE",
"55 608 OFFCURVE",
"55 518 CURVE SMOOTH",
"55 431 OFFCURVE",
"116 345 OFFCURVE",
"237 345 CURVE SMOOTH",
"392 345 LINE SMOOTH",
"498 345 OFFCURVE",
"549 268 OFFCURVE",
"549 188 CURVE SMOOTH",
"549 108 OFFCURVE",
"494 23 OFFCURVE",
"386 23 CURVE SMOOTH",
"78 23 LINE",
"78 0 LINE"
);
}
);
width = 629;
},
{
hints = (
{
place = "{40, 143}";
type = Stem;
},
{
place = "{449, 142}";
type = Stem;
},
{
horizontal = 1;
place = "{0, 126}";
type = Stem;
},
{
horizontal = 1;
place = "{289, 134}";
type = Stem;
},
{
horizontal = 1;
place = "{574, 126}";
type = Stem;
}
);
layerId = "41AFA816-2F69-4745-BF67-F6DEA15443A0";
paths = (
{
closed = 1;
nodes = (
"387 0 LINE SMOOTH",
"499 0 OFFCURVE",
"591 81 OFFCURVE",
"591 223 CURVE SMOOTH",
"591 343 OFFCURVE",
"506 423 OFFCURVE",
"377 423 CURVE SMOOTH",
"256 423 LINE SMOOTH",
"215 423 OFFCURVE",
"183 455 OFFCURVE",
"183 498 CURVE SMOOTH",
"183 539 OFFCURVE",
"215 574 OFFCURVE",
"256 574 CURVE SMOOTH",
"546 574 LINE",
"546 700 LINE",
"242 700 LINE SMOOTH",
"130 700 OFFCURVE",
"40 617 OFFCURVE",
"40 492 CURVE SMOOTH",
"40 364 OFFCURVE",
"134 289 OFFCURVE",
"252 289 CURVE SMOOTH",
"369 289 LINE SMOOTH",
"412 289 OFFCURVE",
"449 253 OFFCURVE",
"449 207 CURVE SMOOTH",
"449 163 OFFCURVE",
"412 126 OFFCURVE",
"369 126 CURVE SMOOTH",
"69 126 LINE",
"69 0 LINE"
);
}
);
width = 626;
},
{
hints = (
{
place = "{40, 143}";
type = Stem;
},
{
place = "{449, 142}";
type = Stem;
},
{
horizontal = 1;
place = "{0, 126}";
type = Stem;
},
{
horizontal = 1;
place = "{289, 134}";
type = Stem;
},
{
horizontal = 1;
place = "{574, 126}";
type = Stem;
}
);
layerId = "32E5C913-0890-451E-8980-44FAA246AB8A";
paths = (
{
closed = 1;
nodes = (
"389 0 LINE SMOOTH",
"513 0 OFFCURVE",
"614 84 OFFCURVE",
"614 231 CURVE SMOOTH",
"614 358 OFFCURVE",
"521 442 OFFCURVE",
"379 442 CURVE SMOOTH",
"282 442 LINE SMOOTH",
"253 442 OFFCURVE",
"236 463 OFFCURVE",
"236 487 CURVE SMOOTH",
"236 510 OFFCURVE",
"253 531 OFFCURVE",
"282 531 CURVE SMOOTH",
"572 531 LINE",
"572 700 LINE",
"253 700 LINE SMOOTH",
"129 700 OFFCURVE",
"29 613 OFFCURVE",
"29 482 CURVE SMOOTH",
"29 348 OFFCURVE",
"133 270 OFFCURVE",
"263 270 CURVE SMOOTH",
"353 270 LINE SMOOTH",
"386 270 OFFCURVE",
"406 246 OFFCURVE",
"406 219 CURVE SMOOTH",
"406 193 OFFCURVE",
"386 169 OFFCURVE",
"353 169 CURVE SMOOTH",
"56 169 LINE",
"56 0 LINE"
);
}
);
width = 642;
}
);
leftKerningGroup = S_2nd;
rightKerningGroup = S_1st;
unicode = 0053;
},
{
glyphname = Germandbls;
layers = (
{
background = {
paths = (
{
closed = 1;
nodes = (
"228 0 LINE",
"228 443 LINE SMOOTH",
"228 522 OFFCURVE",
"280 586 OFFCURVE",
"362 586 CURVE SMOOTH",
"415 586 OFFCURVE",
"457 559 OFFCURVE",
"487 505 CURVE",
"367 376 LINE",
"367 309 LINE",
"420 309 LINE",
"507 309 OFFCURVE",
"539 268 OFFCURVE",
"539 218 CURVE SMOOTH",
"539 167 OFFCURVE",
"501 126 OFFCURVE",
"454 126 CURVE",
"339 125 LINE",
"339 0 LINE",
"495 0 LINE SMOOTH",
"598 0 OFFCURVE",
"682 86 OFFCURVE",
"682 202 CURVE SMOOTH",
"682 288 OFFCURVE",
"634 365 OFFCURVE",
"515 397 CURVE",
"634 504 LINE",
"611 613 OFFCURVE",
"517 712 OFFCURVE",
"363 712 CURVE SMOOTH",
"196 712 OFFCURVE",
"85 602 OFFCURVE",
"85 434 CURVE SMOOTH",
"85 0 LINE"
);
}
);
};
hints = (
{
place = "{70, 143}";
type = Stem;
},
{
place = "{500, 143}";
type = Stem;
},
{
place = "{519, 143}";
type = Stem;
},
{
horizontal = 1;
place = "{0, 126}";
type = Stem;
},
{
horizontal = 1;
place = "{296, 120}";
type = Stem;
},
{
horizontal = 1;
place = "{574, 126}";
type = Stem;
},
{
place = "{65, 143}";
type = Stem;
},
{
place = "{504, 143}";
type = Stem;
},
{
horizontal = 1;
place = "{586, 126}";
type = Stem;
},
{
horizontal = 1;
place = "{0, 21}";
target = up;
type = BottomGhost;
}
);
layerId = "5dd0c03f-0ac1-43be-b978-266741ffc02a";
paths = (
{
closed = 1;
nodes = (
"110 0 LINE",
"110 447 LINE SMOOTH",
"110 590 OFFCURVE",
"198 690 OFFCURVE",
"341 690 CURVE SMOOTH",
"437 690 OFFCURVE",
"522 638 OFFCURVE",
"560 543 CURVE",
"389 380 LINE",
"389 365 LINE",
"408 364 LINE SMOOTH",
"566 356 OFFCURVE",
"623 272 OFFCURVE",
"623 186 CURVE SMOOTH",
"623 102 OFFCURVE",
"564 23 OFFCURVE",
"464 23 CURVE SMOOTH",
"339 23 LINE",
"339 0 LINE",
"467 0 LINE SMOOTH",
"580 0 OFFCURVE",
"648 90 OFFCURVE",
"648 186 CURVE SMOOTH",
"648 297 OFFCURVE",
"563 375 OFFCURVE",
"423 384 CURVE",
"587 537 LINE",
"560 625 OFFCURVE",
"474 713 OFFCURVE",
"342 713 CURVE SMOOTH",
"188 713 OFFCURVE",
"85 608 OFFCURVE",
"85 442 CURVE SMOOTH",
"85 0 LINE"
);
}
);
width = 693;
},
{
hints = (
{
place = "{70, 143}";
type = Stem;
},
{
place = "{500, 143}";
type = Stem;
},
{
place = "{519, 143}";
type = Stem;
},
{
horizontal = 1;
place = "{0, 126}";
type = Stem;
},
{
horizontal = 1;
place = "{296, 120}";
type = Stem;
},
{
horizontal = 1;
place = "{574, 126}";
type = Stem;
},
{
place = "{65, 143}";
type = Stem;
},
{
place = "{504, 143}";
type = Stem;
},
{
horizontal = 1;
place = "{586, 126}";
type = Stem;
},
{
horizontal = 1;
place = "{0, 21}";
target = up;
type = BottomGhost;
}
);
layerId = "41AFA816-2F69-4745-BF67-F6DEA15443A0";
paths = (
{
closed = 1;
nodes = (
"208 0 LINE",
"208 443 LINE SMOOTH",
"208 522 OFFCURVE",
"260 586 OFFCURVE",
"342 586 CURVE SMOOTH",
"395 586 OFFCURVE",
"437 559 OFFCURVE",
"467 505 CURVE",
"347 376 LINE",
"347 309 LINE",
"400 309 LINE",
"487 309 OFFCURVE",
"519 268 OFFCURVE",
"519 218 CURVE SMOOTH",
"519 167 OFFCURVE",
"481 126 OFFCURVE",
"434 126 CURVE",
"319 125 LINE",
"319 0 LINE",
"475 0 LINE SMOOTH",
"578 0 OFFCURVE",
"662 86 OFFCURVE",
"662 202 CURVE SMOOTH",
"662 288 OFFCURVE",
"614 365 OFFCURVE",
"495 397 CURVE",
"614 504 LINE",
"591 613 OFFCURVE",
"497 712 OFFCURVE",
"343 712 CURVE SMOOTH",
"176 712 OFFCURVE",
"65 602 OFFCURVE",
"65 434 CURVE SMOOTH",
"65 0 LINE"
);
}
);
width = 702;
},
{
hints = (
{
place = "{70, 143}";
type = Stem;
},
{
place = "{500, 143}";
type = Stem;
},
{
place = "{519, 143}";
type = Stem;
},
{
horizontal = 1;
place = "{0, 126}";
type = Stem;
},
{
horizontal = 1;
place = "{296, 120}";
type = Stem;
},
{
horizontal = 1;
place = "{574, 126}";
type = Stem;
},
{
place = "{65, 143}";
type = Stem;
},
{
place = "{504, 143}";
type = Stem;
},
{
horizontal = 1;
place = "{586, 126}";
type = Stem;
},
{
horizontal = 1;
place = "{0, 21}";
target = up;
type = BottomGhost;
}
);
layerId = "32E5C913-0890-451E-8980-44FAA246AB8A";
paths = (
{
closed = 1;
nodes = (
"248 0 LINE",
"248 439 LINE SMOOTH",
"248 503 OFFCURVE",
"282 546 OFFCURVE",
"341 546 CURVE SMOOTH",
"376 546 OFFCURVE",
"403 528 OFFCURVE",
"420 492 CURVE",
"322 381 LINE",
"322 296 LINE",
"390 296 LINE",
"442 296 OFFCURVE",
"464 264 OFFCURVE",
"464 230 CURVE SMOOTH",
"464 195 OFFCURVE",
"441 163 OFFCURVE",
"399 163 CURVE",
"315 163 LINE",
"315 0 LINE",
"461 0 LINE SMOOTH",
"577 0 OFFCURVE",
"671 91 OFFCURVE",
"671 212 CURVE SMOOTH",
"671 291 OFFCURVE",
"631 363 OFFCURVE",
"532 401 CURVE",
"628 486 LINE",
"611 615 OFFCURVE",
"509 713 OFFCURVE",
"341 713 CURVE SMOOTH",
"160 713 OFFCURVE",
"43 601 OFFCURVE",
"43 420 CURVE SMOOTH",
"43 0 LINE"
);
}
);
width = 700;
}
);
leftKerningGroup = H_2nd;
rightKerningGroup = S_1st;
unicode = 1E9E;
},
{
glyphname = Schwa;
layers = (
{
background = {
paths = (
{
closed = 1;
nodes = (
"521 -13 OFFCURVE",
"650 132 OFFCURVE",
"650 331 CURVE SMOOTH",
"650 553 OFFCURVE",
"502 700 OFFCURVE",
"254 700 CURVE SMOOTH",
"133 700 LINE",
"133 677 LINE",
"251 677 LINE SMOOTH",
"486 677 OFFCURVE",
"625 539 OFFCURVE",
"625 333 CURVE SMOOTH",
"625 151 OFFCURVE",
"509 10 OFFCURVE",
"336 10 CURVE SMOOTH",
"177 10 OFFCURVE",
"72 125 OFFCURVE",
"69 343 CURVE",
"45 343 LINE",
"46 115 OFFCURVE",
"158 -13 OFFCURVE",
"341 -13 CURVE SMOOTH"
);
},
{
closed = 1;
nodes = (
"637 354 LINE",
"45 354 LINE",
"45 344 OFFCURVE",
"45 339 OFFCURVE",
"45 331 CURVE",
"637 331 LINE"
);
}
);
};
hints = (
{
horizontal = 1;
place = "{-90, 90}";
type = Stem;
},
{
horizontal = 1;
place = "{157, 64}";
type = Stem;
},
{
horizontal = 1;
place = "{342, 86}";
type = Stem;
},
{
place = "{548, 89}";
type = Stem;
},
{
place = "{66, 89}";
type = Stem;
},
{
horizontal = 1;
place = "{-99, 99}";
type = Stem;
},
{
horizontal = 1;
place = "{193, 99}";
type = Stem;
},
{
horizontal = 1;
place = "{501, 99}";
type = Stem;
},
{
horizontal = 1;
place = "{-213, 0}";
type = Stem;
},
{
horizontal = 1;
place = "{0, 90}";
type = Stem;
},
{
horizontal = 1;
place = "{221, 64}";
type = Stem;
},
{
horizontal = 1;
place = "{428, 86}";
type = Stem;
}
);
layerId = "5dd0c03f-0ac1-43be-b978-266741ffc02a";
paths = (
{
closed = 1;
nodes = (
"521 -13 OFFCURVE",
"650 132 OFFCURVE",
"650 331 CURVE SMOOTH",
"650 553 OFFCURVE",
"502 700 OFFCURVE",
"254 700 CURVE SMOOTH",
"133 700 LINE",
"133 677 LINE",
"251 677 LINE SMOOTH",
"478 677 OFFCURVE",
"615 548 OFFCURVE",
"625 354 CURVE",
"45 354 LINE",
"45 346 OFFCURVE",
"45 339 OFFCURVE",
"45 331 CURVE SMOOTH",
"50 111 OFFCURVE",
"161 -13 OFFCURVE",
"341 -13 CURVE SMOOTH"
);
},
{
closed = 1;
nodes = (
"180 10 OFFCURVE",
"76 121 OFFCURVE",
"69 331 CURVE",
"625 331 LINE",
"624 150 OFFCURVE",
"508 10 OFFCURVE",
"336 10 CURVE SMOOTH"
);
}
);
width = 710;
},
{
hints = (
{
horizontal = 1;
place = "{-90, 90}";
type = Stem;
},
{
horizontal = 1;
place = "{157, 64}";
type = Stem;
},
{
horizontal = 1;
place = "{342, 86}";
type = Stem;
},
{
place = "{548, 89}";
type = Stem;
},
{
place = "{66, 89}";
type = Stem;
},
{
horizontal = 1;
place = "{-99, 99}";
type = Stem;
},
{
horizontal = 1;
place = "{193, 99}";
type = Stem;
},
{
horizontal = 1;
place = "{501, 99}";
type = Stem;
},
{
horizontal = 1;
place = "{-213, 0}";
type = Stem;
},
{
horizontal = 1;
place = "{0, 90}";
type = Stem;
},
{
horizontal = 1;
place = "{221, 64}";
type = Stem;
},
{
horizontal = 1;
place = "{428, 86}";
type = Stem;
}
);
layerId = "41AFA816-2F69-4745-BF67-F6DEA15443A0";
paths = (
{
closed = 1;
nodes = (
"536 -12 OFFCURVE",
"667 131 OFFCURVE",
"667 352 CURVE SMOOTH",
"667 566 OFFCURVE",
"519 700 OFFCURVE",
"286 700 CURVE SMOOTH",
"124 700 LINE",
"124 566 LINE",
"291 566 LINE SMOOTH",
"416 566 OFFCURVE",
"500 505 OFFCURVE",
"524 401 CURVE",
"38 401 LINE",
"36 383 OFFCURVE",
"35 364 OFFCURVE",
"35 346 CURVE SMOOTH",
"35 96 OFFCURVE",
"158 -12 OFFCURVE",
"342 -12 CURVE SMOOTH"
);
},
{
closed = 1;
nodes = (
"230 116 OFFCURVE",
"174 195 OFFCURVE",
"171 278 CURVE",
"522 278 LINE",
"510 192 OFFCURVE",
"444 116 OFFCURVE",
"338 116 CURVE SMOOTH"
);
}
);
width = 702;
},
{
hints = (
{
horizontal = 1;
place = "{-90, 90}";
type = Stem;
},
{
horizontal = 1;
place = "{157, 64}";
type = Stem;
},
{
horizontal = 1;
place = "{342, 86}";
type = Stem;
},
{
place = "{548, 89}";
type = Stem;
},
{
place = "{66, 89}";
type = Stem;
},
{
horizontal = 1;
place = "{-99, 99}";
type = Stem;
},
{
horizontal = 1;
place = "{193, 99}";
type = Stem;
},
{
horizontal = 1;
place = "{501, 99}";
type = Stem;
},
{
horizontal = 1;
place = "{-213, 0}";
type = Stem;
},
{
horizontal = 1;
place = "{0, 90}";
type = Stem;
},
{
horizontal = 1;
place = "{221, 64}";
type = Stem;
},
{
horizontal = 1;
place = "{428, 86}";
type = Stem;
}
);
layerId = "32E5C913-0890-451E-8980-44FAA246AB8A";
paths = (
{
closed = 1;
nodes = (
"559 -13 OFFCURVE",
"696 129 OFFCURVE",
"696 355 CURVE SMOOTH",
"696 568 OFFCURVE",
"544 700 OFFCURVE",
"305 700 CURVE SMOOTH",
"118 700 LINE",
"118 528 LINE",
"309 528 LINE SMOOTH",
"394 528 OFFCURVE",
"454 482 OFFCURVE",
"480 418 CURVE",
"45 418 LINE",
"40 385 OFFCURVE",
"37 365 OFFCURVE",
"37 327 CURVE SMOOTH",
"37 119 OFFCURVE",
"145 -13 OFFCURVE",
"357 -13 CURVE SMOOTH"
);
},
{
closed = 1;
nodes = (
"286 154 OFFCURVE",
"245 200 OFFCURVE",
"238 255 CURVE",
"482 255 LINE",
"465 200 OFFCURVE",
"420 154 OFFCURVE",
"353 154 CURVE SMOOTH"
);
}
);
width = 702;
}
);
leftKerningGroup = O_2nd;
rightKerningGroup = O_1st;
unicode = 018F;
},
{
glyphname = T;
layers = (
{
background = {
paths = (
{
closed = 1;
nodes = (
"488 0 LINE",
"488 126 LINE",
"438 126 LINE SMOOTH",
"402 126 OFFCURVE",
"373 156 OFFCURVE",
"373 192 CURVE SMOOTH",
"373 574 LINE",
"568 574 LINE",
"568 700 LINE",
"35 700 LINE",
"35 574 LINE",
"230 574 LINE",
"230 209 LINE SMOOTH",
"230 94 OFFCURVE",
"313 0 OFFCURVE",
"438 0 CURVE SMOOTH"
);
}
);
};
hints = (
{
place = "{210, 143}";
type = Stem;
},
{
horizontal = 1;
place = "{0, 126}";
type = Stem;
},
{
horizontal = 1;
place = "{574, 126}";
type = Stem;
}
);
layerId = "5dd0c03f-0ac1-43be-b978-266741ffc02a";
paths = (
{
closed = 1;
nodes = (
"467 0 LINE",
"467 23 LINE",
"427 23 LINE SMOOTH",
"346 23 OFFCURVE",
"300 74 OFFCURVE",
"300 149 CURVE SMOOTH",
"300 677 LINE",
"540 677 LINE",
"540 700 LINE",
"35 700 LINE",
"35 677 LINE",
"275 677 LINE",
"275 154 LINE SMOOTH",
"275 59 OFFCURVE",
"329 0 OFFCURVE",
"425 0 CURVE SMOOTH"
);
}
);
width = 575;
},
{
hints = (
{
place = "{210, 143}";
type = Stem;
},
{
horizontal = 1;
place = "{0, 126}";
type = Stem;
},
{
horizontal = 1;
place = "{574, 126}";
type = Stem;
}
);
layerId = "41AFA816-2F69-4745-BF67-F6DEA15443A0";
paths = (
{
closed = 1;
nodes = (
"468 0 LINE",
"468 126 LINE",
"418 126 LINE SMOOTH",
"382 126 OFFCURVE",
"353 156 OFFCURVE",
"353 192 CURVE SMOOTH",
"353 574 LINE",
"548 574 LINE",
"548 700 LINE",
"15 700 LINE",
"15 574 LINE",
"210 574 LINE",
"210 209 LINE SMOOTH",
"210 94 OFFCURVE",
"293 0 OFFCURVE",
"418 0 CURVE SMOOTH"
);
}
);
width = 563;
},
{
hints = (
{
place = "{210, 143}";
type = Stem;
},
{
horizontal = 1;
place = "{0, 126}";
type = Stem;
},
{
horizontal = 1;
place = "{574, 126}";
type = Stem;
}
);
layerId = "32E5C913-0890-451E-8980-44FAA246AB8A";
paths = (
{
closed = 1;
nodes = (
"517 0 LINE",
"517 169 LINE",
"450 169 LINE SMOOTH",
"429 169 OFFCURVE",
"412 186 OFFCURVE",
"412 208 CURVE SMOOTH",
"412 531 LINE",
"589 531 LINE",
"589 700 LINE",
"15 700 LINE",
"15 531 LINE",
"196 531 LINE",
"196 219 LINE SMOOTH",
"196 93 OFFCURVE",
"293 0 OFFCURVE",
"427 0 CURVE SMOOTH"
);
}
);
width = 604;
}
);
leftKerningGroup = T_2nd;
rightKerningGroup = T_1st;
unicode = 0054;
},
{
glyphname = Tbar;
layers = (
{
background = {
components = (
{
name = T;
},
{
name = macron;
transform = "{1.52256, 0, 0, 1, 75, -198}";
}
);
};
hints = (
{
horizontal = 1;
place = "{776, 21}";
target = up;
type = BottomGhost;
},
{
horizontal = 1;
place = "{873, -20}";
target = down;
type = TopGhost;
},
{
place = "{70, 143}";
type = Stem;
},
{
place = "{519, 143}";
type = Stem;
},
{
horizontal = 1;
place = "{293, 126}";
type = Stem;
},
{
horizontal = 1;
place = "{0, 21}";
target = up;
type = BottomGhost;
},
{
horizontal = 1;
place = "{700, -20}";
target = down;
type = TopGhost;
},
{
horizontal = 1;
place = "{522, 21}";
target = up;
type = BottomGhost;
},
{
horizontal = 1;
place = "{619, -20}";
target = down;
type = TopGhost;
},
{
place = "{210, 143}";
type = Stem;
},
{
horizontal = 1;
place = "{0, 126}";
type = Stem;
},
{
horizontal = 1;
place = "{574, 126}";
type = Stem;
},
{
horizontal = 1;
place = "{388, 21}";
target = up;
type = BottomGhost;
},
{
horizontal = 1;
place = "{485, -20}";
target = down;
type = TopGhost;
}
);
layerId = "5dd0c03f-0ac1-43be-b978-266741ffc02a";
paths = (
{
closed = 1;
nodes = (
"467 0 LINE",
"467 23 LINE",
"427 23 LINE SMOOTH",
"346 23 OFFCURVE",
"300 74 OFFCURVE",
"300 149 CURVE SMOOTH",
"300 406 LINE",
"501 406 LINE",
"501 429 LINE",
"300 429 LINE",
"300 677 LINE",
"540 677 LINE",
"540 700 LINE",
"35 700 LINE",
"35 677 LINE",
"275 677 LINE",
"275 429 LINE",
"75 429 LINE",
"75 406 LINE",
"275 406 LINE",
"275 154 LINE SMOOTH",
"275 59 OFFCURVE",
"329 0 OFFCURVE",
"425 0 CURVE SMOOTH"
);
}
);
width = 575;
},
{
background = {
paths = (
{
closed = 1;
nodes = (
"468 0 LINE",
"468 126 LINE",
"418 126 LINE SMOOTH",
"382 126 OFFCURVE",
"353 156 OFFCURVE",
"353 192 CURVE SMOOTH",
"353 574 LINE",
"548 574 LINE",
"548 700 LINE",
"15 700 LINE",
"15 574 LINE",
"210 574 LINE",
"210 209 LINE SMOOTH",
"210 94 OFFCURVE",
"293 0 OFFCURVE",
"418 0 CURVE SMOOTH"
);
},
{
closed = 1;
nodes = (
"501.418 345 LINE",
"501.418 433 LINE",
"88.417 433 LINE",
"88.417 345 LINE"
);
}
);
};
hints = (
{
horizontal = 1;
place = "{776, 21}";
target = up;
type = BottomGhost;
},
{
horizontal = 1;
place = "{873, -20}";
target = down;
type = TopGhost;
},
{
place = "{70, 143}";
type = Stem;
},
{
place = "{519, 143}";
type = Stem;
},
{
horizontal = 1;
place = "{293, 126}";
type = Stem;
},
{
horizontal = 1;
place = "{0, 21}";
target = up;
type = BottomGhost;
},
{
horizontal = 1;
place = "{700, -20}";
target = down;
type = TopGhost;
},
{
horizontal = 1;
place = "{522, 21}";
target = up;
type = BottomGhost;
},
{
horizontal = 1;
place = "{619, -20}";
target = down;
type = TopGhost;
},
{
place = "{210, 143}";
type = Stem;
},
{
horizontal = 1;
place = "{0, 126}";
type = Stem;
},
{
horizontal = 1;
place = "{574, 126}";
type = Stem;
},
{
horizontal = 1;
place = "{348, 21}";
target = up;
type = BottomGhost;
},
{
horizontal = 1;
place = "{445, -20}";
target = down;
type = TopGhost;
}
);
layerId = "41AFA816-2F69-4745-BF67-F6DEA15443A0";
paths = (
{
closed = 1;
nodes = (
"468 0 LINE",
"468 126 LINE",
"418 126 LINE SMOOTH",
"382 126 OFFCURVE",
"353 156 OFFCURVE",
"353 192 CURVE SMOOTH",
"353 345 LINE",
"501 345 LINE",
"501 433 LINE",
"353 433 LINE",
"353 574 LINE",
"548 574 LINE",
"548 700 LINE",
"15 700 LINE",
"15 574 LINE",
"210 574 LINE",
"210 433 LINE",
"88 433 LINE",
"88 345 LINE",
"210 345 LINE",
"210 209 LINE SMOOTH",
"210 94 OFFCURVE",
"293 0 OFFCURVE",
"418 0 CURVE SMOOTH"
);
}
);
width = 563;
},
{
hints = (
{
horizontal = 1;
place = "{776, 21}";
target = up;
type = BottomGhost;
},
{
horizontal = 1;
place = "{873, -20}";
target = down;
type = TopGhost;
},
{
place = "{70, 143}";
type = Stem;
},
{
place = "{519, 143}";
type = Stem;
},
{
horizontal = 1;
place = "{293, 126}";
type = Stem;
},
{
horizontal = 1;
place = "{0, 21}";
target = up;
type = BottomGhost;
},
{
horizontal = 1;
place = "{700, -20}";
target = down;
type = TopGhost;
},
{
horizontal = 1;
place = "{522, 21}";
target = up;
type = BottomGhost;
},
{
horizontal = 1;
place = "{619, -20}";
target = down;
type = TopGhost;
},
{
place = "{210, 143}";
type = Stem;
},
{
horizontal = 1;
place = "{0, 126}";
type = Stem;
},
{
horizontal = 1;
place = "{574, 126}";
type = Stem;
},
{
horizontal = 1;
place = "{316.778, 21}";
target = up;
type = BottomGhost;
},
{
horizontal = 1;
place = "{420.28, -20}";
target = down;
type = TopGhost;
}
);
layerId = "32E5C913-0890-451E-8980-44FAA246AB8A";
paths = (
{
closed = 1;
nodes = (
"517 0 LINE",
"517 169 LINE",
"450 169 LINE SMOOTH",
"429 169 OFFCURVE",
"412 186 OFFCURVE",
"412 208 CURVE SMOOTH",
"412 309 LINE",
"524 309 LINE",
"524 424 LINE",
"412 424 LINE",
"412 531 LINE",
"589 531 LINE",
"589 700 LINE",
"15 700 LINE",
"15 531 LINE",
"196 531 LINE",
"196 424 LINE",
"90 424 LINE",
"90 309 LINE",
"196 309 LINE",
"196 219 LINE SMOOTH",
"196 93 OFFCURVE",
"293 0 OFFCURVE",
"427 0 CURVE SMOOTH"
);
}
);
width = 604;
}
);
leftKerningGroup = T_2nd;
rightKerningGroup = T_1st;
unicode = 0166;
},
{
glyphname = Tcedilla;
layers = (
{
background = {
paths = (
{
closed = 1;
nodes = (
"376 -217 LINE",
"468 -1 LINE",
"468 11 LINE",
"348 23 LINE",
"245 -217 LINE"
);
}
);
};
components = (
{
name = T;
}
);
hints = (
{
place = "{210, 143}";
type = Stem;
},
{
horizontal = 1;
place = "{0, 126}";
type = Stem;
},
{
horizontal = 1;
place = "{574, 126}";
type = Stem;
},
{
place = "{174, 186}";
type = Stem;
},
{
horizontal = 1;
place = "{-379, 21}";
target = up;
type = BottomGhost;
},
{
horizontal = 1;
place = "{-48, -20}";
target = down;
type = TopGhost;
},
{
place = "{194, 186}";
type = Stem;
},
{
horizontal = 1;
place = "{-393, 21}";
target = up;
type = BottomGhost;
},
{
horizontal = 1;
place = "{-62, -20}";
target = down;
type = TopGhost;
},
{
horizontal = 1;
place = "{-217, 21}";
target = up;
type = BottomGhost;
},
{
horizontal = 1;
place = "{10, -20}";
target = down;
type = TopGhost;
},
{
horizontal = 1;
place = "{-203, 21}";
target = up;
type = BottomGhost;
},
{
horizontal = 1;
place = "{24, -20}";
target = down;
type = TopGhost;
}
);
layerId = "5dd0c03f-0ac1-43be-b978-266741ffc02a";
paths = (
{
closed = 1;
nodes = (
"379 -203 LINE",
"467 0 LINE",
"467 10 LINE",
"443 14 LINE",
"354 -203 LINE"
);
}
);
width = 575;
},
{
background = {
paths = (
{
closed = 1;
nodes = (
"376 -203 LINE",
"468 13 LINE",
"468 25 LINE",
"348 37 LINE",
"245 -203 LINE"
);
}
);
};
components = (
{
alignment = -1;
name = T;
}
);
hints = (
{
place = "{210, 143}";
type = Stem;
},
{
horizontal = 1;
place = "{0, 126}";
type = Stem;
},
{
horizontal = 1;
place = "{574, 126}";
type = Stem;
},
{
place = "{174, 186}";
type = Stem;
},
{
horizontal = 1;
place = "{-379, 21}";
target = up;
type = BottomGhost;
},
{
horizontal = 1;
place = "{-48, -20}";
target = down;
type = TopGhost;
},
{
place = "{194, 186}";
type = Stem;
},
{
horizontal = 1;
place = "{-393, 21}";
target = up;
type = BottomGhost;
},
{
horizontal = 1;
place = "{-62, -20}";
target = down;
type = TopGhost;
},
{
horizontal = 1;
place = "{-217, 21}";
target = up;
type = BottomGhost;
},
{
horizontal = 1;
place = "{10, -20}";
target = down;
type = TopGhost;
}
);
layerId = "41AFA816-2F69-4745-BF67-F6DEA15443A0";
paths = (
{
closed = 1;
nodes = (
"382 -203 LINE",
"468 0 LINE",
"468 25 LINE",
"354 37 LINE",
"251 -203 LINE"
);
}
);
width = 563;
},
{
components = (
{
alignment = -1;
name = T;
}
);
hints = (
{
place = "{210, 143}";
type = Stem;
},
{
horizontal = 1;
place = "{0, 126}";
type = Stem;
},
{
horizontal = 1;
place = "{574, 126}";
type = Stem;
},
{
place = "{174, 186}";
type = Stem;
},
{
horizontal = 1;
place = "{-257.5, 21}";
target = up;
type = BottomGhost;
},
{
horizontal = 1;
place = "{-4.5, -20}";
target = down;
type = TopGhost;
},
{
place = "{194, 186}";
type = Stem;
},
{
horizontal = 1;
place = "{-382.5, 21}";
target = up;
type = BottomGhost;
},
{
horizontal = 1;
place = "{-51.5, -20}";
target = down;
type = TopGhost;
},
{
horizontal = 1;
place = "{-206.5, 21}";
target = up;
type = BottomGhost;
},
{
horizontal = 1;
place = "{20.5, -20}";
target = down;
type = TopGhost;
}
);
layerId = "32E5C913-0890-451E-8980-44FAA246AB8A";
paths = (
{
closed = 1;
nodes = (
"423 -203 LINE",
"509 0 LINE",
"509 36 LINE",
"365 39 LINE",
"262 -203 LINE"
);
}
);
width = 604;
}
);
leftKerningGroup = T_2nd;
rightKerningGroup = T_1st;
unicode = 0162;
},
{
glyphname = U;
layers = (
{
background = {
paths = (
{
closed = 1;
nodes = (
"482 -13 OFFCURVE",
"586 93 OFFCURVE",
"586 264 CURVE SMOOTH",
"586 700 LINE",
"561 700 LINE",
"561 253 LINE SMOOTH",
"561 120 OFFCURVE",
"475 11 OFFCURVE",
"336 11 CURVE SMOOTH",
"196 11 OFFCURVE",
"110 120 OFFCURVE",
"110 253 CURVE SMOOTH",
"110 700 LINE",
"85 700 LINE",
"85 264 LINE SMOOTH",
"85 93 OFFCURVE",
"189 -13 OFFCURVE",
"336 -13 CURVE SMOOTH"
);
}
);
};
hints = (
{
place = "{65, 143}";
type = Stem;
},
{
place = "{504, 143}";
type = Stem;
},
{
horizontal = 1;
place = "{-12, 126}";
type = Stem;
},
{
horizontal = 1;
place = "{700, -20}";
target = down;
type = TopGhost;
}
);
layerId = "5dd0c03f-0ac1-43be-b978-266741ffc02a";
paths = (
{
closed = 1;
nodes = (
"493 -13 OFFCURVE",
"600 93 OFFCURVE",
"600 264 CURVE SMOOTH",
"600 700 LINE",
"575 700 LINE",
"575 253 LINE SMOOTH",
"575 120 OFFCURVE",
"486 11 OFFCURVE",
"343 11 CURVE SMOOTH",
"199 11 OFFCURVE",
"110 120 OFFCURVE",
"110 253 CURVE SMOOTH",
"110 700 LINE",
"85 700 LINE",
"85 264 LINE SMOOTH",
"85 93 OFFCURVE",
"192 -13 OFFCURVE",
"343 -13 CURVE SMOOTH"
);
}
);
width = 685;
},
{
hints = (
{
place = "{65, 143}";
type = Stem;
},
{
place = "{504, 143}";
type = Stem;
},
{
horizontal = 1;
place = "{-12, 126}";
type = Stem;
},
{
horizontal = 1;
place = "{700, -20}";
target = down;
type = TopGhost;
}
);
layerId = "41AFA816-2F69-4745-BF67-F6DEA15443A0";
paths = (
{
closed = 1;
nodes = (
"526 -12 OFFCURVE",
"647 98 OFFCURVE",
"647 276 CURVE SMOOTH",
"647 700 LINE",
"504 700 LINE",
"504 267 LINE SMOOTH",
"504 183 OFFCURVE",
"447 114 OFFCURVE",
"356 114 CURVE SMOOTH",
"265 114 OFFCURVE",
"208 183 OFFCURVE",
"208 267 CURVE SMOOTH",
"208 700 LINE",
"65 700 LINE",
"65 276 LINE SMOOTH",
"65 98 OFFCURVE",
"186 -12 OFFCURVE",
"356 -12 CURVE SMOOTH"
);
}
);
width = 712;
},
{
hints = (
{
place = "{405.5, 143}";
type = Stem;
},
{
place = "{117, 130.25}";
type = Stem;
},
{
horizontal = 1;
place = "{216.75, 126}";
type = Stem;
},
{
horizontal = 1;
place = "{700, -20}";
target = down;
type = TopGhost;
}
);
layerId = "32E5C913-0890-451E-8980-44FAA246AB8A";
paths = (
{
closed = 1;
nodes = (
"538 -12 OFFCURVE",
"667 100 OFFCURVE",
"667 281 CURVE SMOOTH",
"667 700 LINE",
"455 700 LINE",
"455 272 LINE SMOOTH",
"455 207 OFFCURVE",
"416 161 OFFCURVE",
"355 161 CURVE SMOOTH",
"294 161 OFFCURVE",
"255 207 OFFCURVE",
"255 272 CURVE SMOOTH",
"255 700 LINE",
"43 700 LINE",
"43 281 LINE SMOOTH",
"43 100 OFFCURVE",
"173 -12 OFFCURVE",
"355 -12 CURVE SMOOTH"
);
}
);
width = 709;
}
);
leftKerningGroup = H_2nd;
rightKerningGroup = H_1st;
unicode = 0055;
},
{
glyphname = V;
layers = (
{
background = {
paths = (
{
closed = 1;
nodes = (
"406 -12 OFFCURVE",
"460 18 OFFCURVE",
"481 78 CURVE",
"689 700 LINE",
"537 700 LINE",
"362 136 LINE SMOOTH",
"359 127 OFFCURVE",
"353 123 OFFCURVE",
"345 123 CURVE SMOOTH",
"337 123 OFFCURVE",
"331 127 OFFCURVE",
"328 136 CURVE SMOOTH",
"159 700 LINE",
"0 700 LINE",
"209 77 LINE",
"231 16 OFFCURVE",
"284 -12 OFFCURVE",
"345 -12 CURVE SMOOTH"
);
}
);
};
hints = (
{
horizontal = 1;
place = "{-12, 21}";
target = up;
type = BottomGhost;
},
{
horizontal = 1;
place = "{700, -20}";
target = down;
type = TopGhost;
},
{
horizontal = 1;
place = "{559, -126}";
type = Stem;
},
{
horizontal = 1;
place = "{700, 21}";
target = up;
type = BottomGhost;
},
{
horizontal = 1;
place = "{-12, 21}";
target = up;
type = BottomGhost;
}
);
layerId = "5dd0c03f-0ac1-43be-b978-266741ffc02a";
paths = (
{
closed = 1;
nodes = (
"355 -13 OFFCURVE",
"370 5 OFFCURVE",
"388 50 CURVE SMOOTH",
"650 700 LINE",
"625 700 LINE",
"369 60 LINE SMOOTH",
"357 31 OFFCURVE",
"349 9 OFFCURVE",
"326 9 CURVE SMOOTH",
"303 9 OFFCURVE",
"296 31 OFFCURVE",
"284 60 CURVE SMOOTH",
"30 700 LINE",
"5 700 LINE",
"265 51 LINE SMOOTH",
"284 5 OFFCURVE",
"298 -13 OFFCURVE",
"326 -13 CURVE SMOOTH"
);
}
);
width = 655;
},
{
hints = (
{
horizontal = 1;
place = "{-12, 21}";
target = up;
type = BottomGhost;
},
{
horizontal = 1;
place = "{700, -20}";
target = down;
type = TopGhost;
}
);
layerId = "41AFA816-2F69-4745-BF67-F6DEA15443A0";
paths = (
{
closed = 1;
nodes = (
"406 -12 OFFCURVE",
"460 18 OFFCURVE",
"481 78 CURVE SMOOTH",
"689 700 LINE",
"537 700 LINE",
"362 136 LINE SMOOTH",
"359 127 OFFCURVE",
"353 123 OFFCURVE",
"345 123 CURVE SMOOTH",
"337 123 OFFCURVE",
"331 127 OFFCURVE",
"328 136 CURVE SMOOTH",
"159 700 LINE",
"0 700 LINE",
"209 77 LINE SMOOTH",
"231 16 OFFCURVE",
"284 -12 OFFCURVE",
"345 -12 CURVE SMOOTH"
);
}
);
width = 689;
},
{
hints = (
{
horizontal = 1;
place = "{522, 21}";
target = up;
type = BottomGhost;
},
{
horizontal = 1;
place = "{700, -20}";
target = down;
type = TopGhost;
}
);
layerId = "32E5C913-0890-451E-8980-44FAA246AB8A";
paths = (
{
closed = 1;
nodes = (
"453 -13 OFFCURVE",
"516 20 OFFCURVE",
"541 88 CURVE SMOOTH",
"760 700 LINE",
"534 700 LINE",
"388 201 LINE SMOOTH",
"386 197 OFFCURVE",
"384 192 OFFCURVE",
"380 192 CURVE SMOOTH",
"377 192 OFFCURVE",
"375 197 OFFCURVE",
"373 201 CURVE SMOOTH",
"224 700 LINE",
"0 700 LINE",
"220 88 LINE SMOOTH",
"244 21 OFFCURVE",
"307 -13 OFFCURVE",
"380 -13 CURVE SMOOTH"
);
}
);
width = 760;
}
);
unicode = 0056;
},
{
glyphname = W;
layers = (
{
background = {
paths = (
{
closed = 1;
nodes = (
"420 -12 OFFCURVE",
"491 22 OFFCURVE",
"540 80 CURVE",
"589 21 OFFCURVE",
"660 -12 OFFCURVE",
"745 -12 CURVE SMOOTH",
"906 -12 OFFCURVE",
"1021 94 OFFCURVE",
"1021 266 CURVE SMOOTH",
"1021 700 LINE",
"878 700 LINE",
"878 257 LINE SMOOTH",
"878 178 OFFCURVE",
"827 114 OFFCURVE",
"745 114 CURVE SMOOTH",
"663 114 OFFCURVE",
"612 178 OFFCURVE",
"612 257 CURVE SMOOTH",
"612 700 LINE",
"469 700 LINE",
"469 257 LINE SMOOTH",
"469 178 OFFCURVE",
"418 114 OFFCURVE",
"336 114 CURVE SMOOTH",
"254 114 OFFCURVE",
"203 178 OFFCURVE",
"203 257 CURVE SMOOTH",
"203 700 LINE",
"60 700 LINE",
"60 266 LINE SMOOTH",
"60 94 OFFCURVE",
"175 -12 OFFCURVE",
"336 -12 CURVE SMOOTH"
);
}
);
};
hints = (
{
place = "{60, 143}";
type = Stem;
},
{
place = "{469, 143}";
type = Stem;
},
{
place = "{878, 143}";
type = Stem;
},
{
horizontal = 1;
place = "{-12, 126}";
type = Stem;
},
{
horizontal = 1;
place = "{700, -20}";
target = down;
type = TopGhost;
},
{
place = "{60, -143}";
type = Stem;
},
{
place = "{469, -143}";
type = Stem;
},
{
place = "{878, -143}";
type = Stem;
},
{
horizontal = 1;
place = "{114, -126}";
type = Stem;
},
{
horizontal = 1;
place = "{700, 21}";
target = up;
type = BottomGhost;
}
);
layerId = "5dd0c03f-0ac1-43be-b978-266741ffc02a";
paths = (
{
closed = 1;
nodes = (
"443 -13 OFFCURVE",
"550 42 OFFCURVE",
"579 166 CURVE",
"608 41 OFFCURVE",
"712 -13 OFFCURVE",
"819 -13 CURVE SMOOTH",
"967 -13 OFFCURVE",
"1071 85 OFFCURVE",
"1071 244 CURVE SMOOTH",
"1071 700 LINE",
"1046 700 LINE",
"1046 241 LINE SMOOTH",
"1046 114 OFFCURVE",
"959 10 OFFCURVE",
"819 10 CURVE SMOOTH",
"679 10 OFFCURVE",
"591 114 OFFCURVE",
"591 241 CURVE SMOOTH",
"591 700 LINE",
"566 700 LINE",
"566 241 LINE SMOOTH",
"566 114 OFFCURVE",
"478 10 OFFCURVE",
"338 10 CURVE SMOOTH",
"197 10 OFFCURVE",
"110 114 OFFCURVE",
"110 241 CURVE SMOOTH",
"110 700 LINE",
"85 700 LINE",
"85 244 LINE SMOOTH",
"85 85 OFFCURVE",
"189 -13 OFFCURVE",
"338 -13 CURVE SMOOTH"
);
}
);
width = 1156;
},
{
hints = (
{
place = "{60, 143}";
type = Stem;
},
{
place = "{469, 143}";
type = Stem;
},
{
place = "{878, 143}";
type = Stem;
},
{
horizontal = 1;
place = "{-12, 126}";
type = Stem;
},
{
horizontal = 1;
place = "{700, -20}";
target = down;
type = TopGhost;
}
);
layerId = "41AFA816-2F69-4745-BF67-F6DEA15443A0";
paths = (
{
closed = 1;
nodes = (
"420 -12 OFFCURVE",
"491 22 OFFCURVE",
"540 80 CURVE",
"589 21 OFFCURVE",
"660 -12 OFFCURVE",
"745 -12 CURVE SMOOTH",
"906 -12 OFFCURVE",
"1021 94 OFFCURVE",
"1021 266 CURVE SMOOTH",
"1021 700 LINE",
"878 700 LINE",
"878 257 LINE SMOOTH",
"878 178 OFFCURVE",
"827 114 OFFCURVE",
"745 114 CURVE SMOOTH",
"663 114 OFFCURVE",
"612 178 OFFCURVE",
"612 257 CURVE SMOOTH",
"612 700 LINE",
"469 700 LINE",
"469 257 LINE SMOOTH",
"469 178 OFFCURVE",
"418 114 OFFCURVE",
"336 114 CURVE SMOOTH",
"254 114 OFFCURVE",
"203 178 OFFCURVE",
"203 257 CURVE SMOOTH",
"203 700 LINE",
"60 700 LINE",
"60 266 LINE SMOOTH",
"60 94 OFFCURVE",
"175 -12 OFFCURVE",
"336 -12 CURVE SMOOTH"
);
}
);
width = 1081;
},
{
hints = (
{
place = "{60, 143}";
type = Stem;
},
{
place = "{469, 143}";
type = Stem;
},
{
place = "{878, 143}";
type = Stem;
},
{
horizontal = 1;
place = "{-12, 126}";
type = Stem;
},
{
horizontal = 1;
place = "{700, -20}";
target = down;
type = TopGhost;
}
);
layerId = "32E5C913-0890-451E-8980-44FAA246AB8A";
paths = (
{
closed = 1;
nodes = (
"412 -13 OFFCURVE",
"476 12 OFFCURVE",
"525 55 CURVE",
"573 11 OFFCURVE",
"638 -13 OFFCURVE",
"716 -13 CURVE SMOOTH",
"887 -13 OFFCURVE",
"1009 95 OFFCURVE",
"1009 270 CURVE SMOOTH",
"1009 700 LINE",
"801 700 LINE",
"801 270 LINE SMOOTH",
"801 210 OFFCURVE",
"768 171 OFFCURVE",
"716 171 CURVE SMOOTH",
"663 171 OFFCURVE",
"631 210 OFFCURVE",
"631 270 CURVE SMOOTH",
"631 700 LINE",
"420 700 LINE",
"420 270 LINE SMOOTH",
"420 210 OFFCURVE",
"387 171 OFFCURVE",
"335 171 CURVE SMOOTH",
"283 171 OFFCURVE",
"250 210 OFFCURVE",
"250 270 CURVE SMOOTH",
"250 700 LINE",
"41 700 LINE",
"41 270 LINE SMOOTH",
"41 95 OFFCURVE",
"164 -13 OFFCURVE",
"335 -13 CURVE SMOOTH"
);
}
);
width = 1050;
}
);
leftKerningGroup = H_2nd;
rightKerningGroup = H_1st;
unicode = 0057;
},
{
glyphname = X;
layers = (
{
background = {
paths = (
{
closed = 1;
nodes = (
"90 0 LINE",
"591 700 LINE",
"561 700 LINE",
"60 0 LINE"
);
},
{
closed = 1;
nodes = (
"593 0 LINE",
"593 148 LINE SMOOTH",
"593 275 OFFCURVE",
"511 380 OFFCURVE",
"331 375 CURVE",
"203 375 OFFCURVE",
"108 479 OFFCURVE",
"108 587 CURVE SMOOTH",
"108 700 LINE",
"83 700 LINE",
"83 600 LINE SMOOTH",
"83 442 OFFCURVE",
"205 352 OFFCURVE",
"334 352 CURVE SMOOTH",
"482 352 OFFCURVE",
"568 270 OFFCURVE",
"568 152 CURVE SMOOTH",
"568 0 LINE"
);
}
);
};
hints = (
{
place = "{79, 143}";
type = Stem;
},
{
place = "{518, 143}";
type = Stem;
},
{
horizontal = 1;
place = "{0, 21}";
target = up;
type = BottomGhost;
},
{
horizontal = 1;
place = "{700, -20}";
target = down;
type = TopGhost;
}
);
layerId = "5dd0c03f-0ac1-43be-b978-266741ffc02a";
paths = (
{
closed = 1;
nodes = (
"90 0 LINE",
"342 352 LINE",
"485 349 OFFCURVE",
"568 268 OFFCURVE",
"568 152 CURVE SMOOTH",
"568 0 LINE",
"593 0 LINE",
"593 148 LINE SMOOTH",
"593 268 OFFCURVE",
"519 369 OFFCURVE",
"358 375 CURVE",
"591 700 LINE",
"561 700 LINE",
"328 375 LINE",
"202 376 OFFCURVE",
"108 480 OFFCURVE",
"108 587 CURVE SMOOTH",
"108 700 LINE",
"83 700 LINE",
"83 600 LINE SMOOTH",
"83 451 OFFCURVE",
"192 362 OFFCURVE",
"313 353 CURVE",
"60 0 LINE"
);
}
);
width = 653;
},
{
hints = (
{
place = "{79, 143}";
type = Stem;
},
{
place = "{518, 143}";
type = Stem;
},
{
horizontal = 1;
place = "{0, 21}";
target = up;
type = BottomGhost;
},
{
horizontal = 1;
place = "{700, -20}";
target = down;
type = TopGhost;
}
);
layerId = "41AFA816-2F69-4745-BF67-F6DEA15443A0";
paths = (
{
closed = 1;
nodes = (
"219 0 LINE",
"389 287 LINE",
"472 287 OFFCURVE",
"518 233 OFFCURVE",
"518 164 CURVE SMOOTH",
"518 0 LINE",
"661 0 LINE",
"661 155 LINE SMOOTH",
"661 285 OFFCURVE",
"587 374 OFFCURVE",
"475 403 CURVE",
"658 700 LINE",
"497 700 LINE",
"328 414 LINE",
"263 422 OFFCURVE",
"222 473 OFFCURVE",
"222 536 CURVE SMOOTH",
"222 700 LINE",
"79 700 LINE",
"79 545 LINE SMOOTH",
"79 423 OFFCURVE",
"143 338 OFFCURVE",
"241 303 CURVE",
"58 0 LINE"
);
}
);
width = 703;
},
{
hints = (
{
place = "{79, 143}";
type = Stem;
},
{
place = "{518, 143}";
type = Stem;
},
{
horizontal = 1;
place = "{0, 21}";
target = up;
type = BottomGhost;
},
{
horizontal = 1;
place = "{700, -20}";
target = down;
type = TopGhost;
}
);
layerId = "32E5C913-0890-451E-8980-44FAA246AB8A";
paths = (
{
closed = 1;
nodes = (
"251 0 LINE",
"406 258 LINE",
"441 251 OFFCURVE",
"468 217 OFFCURVE",
"468 177 CURVE SMOOTH",
"468 0 LINE",
"684 0 LINE",
"684 169 LINE SMOOTH",
"684 284 OFFCURVE",
"621 370 OFFCURVE",
"515 409 CURVE",
"696 700 LINE",
"457 700 LINE",
"309 453 LINE",
"282 460 OFFCURVE",
"263 487 OFFCURVE",
"263 521 CURVE SMOOTH",
"263 700 LINE",
"47 700 LINE",
"47 532 LINE SMOOTH",
"47 424 OFFCURVE",
"101 343 OFFCURVE",
"195 298 CURVE",
"12 0 LINE"
);
}
);
width = 708;
}
);
leftKerningGroup = X_2nd;
rightKerningGroup = X_1st;
unicode = 0058;
},
{
glyphname = Y;
layers = (
{
background = {
paths = (
{
closed = 1;
nodes = (
"511 217 OFFCURVE",
"600 348 OFFCURVE",
"600 496 CURVE SMOOTH",
"600 699 LINE",
"575 699 LINE",
"575 485 LINE SMOOTH",
"575 352 OFFCURVE",
"485 242 OFFCURVE",
"343 242 CURVE SMOOTH",
"200 242 OFFCURVE",
"110 352 OFFCURVE",
"110 485 CURVE SMOOTH",
"110 699 LINE",
"85 699 LINE",
"85 496 LINE SMOOTH",
"85 348 OFFCURVE",
"172 217 OFFCURVE",
"342 217 CURVE SMOOTH"
);
},
{
closed = 1;
nodes = (
"354 0 LINE",
"354 229 LINE",
"329 229 LINE",
"329 0 LINE"
);
}
);
};
hints = (
{
place = "{65, 143}";
type = Stem;
},
{
place = "{284, 143}";
type = Stem;
},
{
place = "{504, 143}";
type = Stem;
},
{
horizontal = 1;
place = "{0, 21}";
target = up;
type = BottomGhost;
},
{
horizontal = 1;
place = "{700, -20}";
target = down;
type = TopGhost;
}
);
layerId = "5dd0c03f-0ac1-43be-b978-266741ffc02a";
paths = (
{
closed = 1;
nodes = (
"354 0 LINE",
"354 217 LINE",
"521 223 OFFCURVE",
"600 352 OFFCURVE",
"600 496 CURVE SMOOTH",
"600 699 LINE",
"575 699 LINE",
"575 490 LINE SMOOTH",
"575 357 OFFCURVE",
"494 240 OFFCURVE",
"343 240 CURVE SMOOTH",
"191 240 OFFCURVE",
"110 357 OFFCURVE",
"110 490 CURVE SMOOTH",
"110 699 LINE",
"85 699 LINE",
"85 496 LINE SMOOTH",
"85 352 OFFCURVE",
"162 224 OFFCURVE",
"329 217 CURVE",
"329 0 LINE"
);
}
);
width = 685;
},
{
hints = (
{
place = "{65, 143}";
type = Stem;
},
{
place = "{284, 143}";
type = Stem;
},
{
place = "{504, 143}";
type = Stem;
},
{
horizontal = 1;
place = "{0, 21}";
target = up;
type = BottomGhost;
},
{
horizontal = 1;
place = "{700, -20}";
target = down;
type = TopGhost;
}
);
layerId = "41AFA816-2F69-4745-BF67-F6DEA15443A0";
paths = (
{
closed = 1;
nodes = (
"427 0 LINE",
"427 193 LINE",
"558 219 OFFCURVE",
"647 322 OFFCURVE",
"647 474 CURVE SMOOTH",
"647 700 LINE",
"504 700 LINE",
"504 465 LINE SMOOTH",
"504 381 OFFCURVE",
"447 312 OFFCURVE",
"356 312 CURVE SMOOTH",
"265 312 OFFCURVE",
"208 381 OFFCURVE",
"208 465 CURVE SMOOTH",
"208 700 LINE",
"65 700 LINE",
"65 474 LINE SMOOTH",
"65 322 OFFCURVE",
"153 220 OFFCURVE",
"284 193 CURVE",
"284 0 LINE"
);
}
);
width = 712;
},
{
hints = (
{
place = "{65, 143}";
type = Stem;
},
{
place = "{284, 143}";
type = Stem;
},
{
place = "{504, 143}";
type = Stem;
},
{
horizontal = 1;
place = "{0, 21}";
target = up;
type = BottomGhost;
},
{
horizontal = 1;
place = "{700, -20}";
target = down;
type = TopGhost;
}
);
layerId = "32E5C913-0890-451E-8980-44FAA246AB8A";
paths = (
{
closed = 1;
nodes = (
"454 0 LINE",
"454 186 LINE",
"575 221 OFFCURVE",
"651 322 OFFCURVE",
"651 464 CURVE SMOOTH",
"651 700 LINE",
"443 700 LINE",
"443 456 LINE SMOOTH",
"443 393 OFFCURVE",
"405 349 OFFCURVE",
"346 349 CURVE SMOOTH",
"288 349 OFFCURVE",
"251 393 OFFCURVE",
"251 456 CURVE SMOOTH",
"251 700 LINE",
"43 700 LINE",
"43 464 LINE SMOOTH",
"43 321 OFFCURVE",
"116 222 OFFCURVE",
"238 186 CURVE",
"238 0 LINE"
);
}
);
width = 693;
}
);
leftKerningGroup = Y_2nd;
rightKerningGroup = Y_1st;
unicode = 0059;
},
{
glyphname = Z;
layers = (
{
background = {
paths = (
{
closed = 1;
nodes = (
"565 0 LINE",
"565 126 LINE",
"204 126 LINE SMOOTH",
"194 126 OFFCURVE",
"185 135 OFFCURVE",
"185 145 CURVE SMOOTH",
"185 150 OFFCURVE",
"187 154 OFFCURVE",
"190 157 CURVE SMOOTH",
"511 441 LINE SMOOTH",
"545 471 OFFCURVE",
"560 510 OFFCURVE",
"560 552 CURVE SMOOTH",
"560 639 OFFCURVE",
"500 700 OFFCURVE",
"411 700 CURVE SMOOTH",
"52 700 LINE",
"52 574 LINE",
"390 574 LINE SMOOTH",
"399 574 OFFCURVE",
"409 565 OFFCURVE",
"409 555 CURVE SMOOTH",
"409 550 OFFCURVE",
"407 546 OFFCURVE",
"404 543 CURVE SMOOTH",
"87 261 LINE SMOOTH",
"49 228 OFFCURVE",
"35 190 OFFCURVE",
"35 148 CURVE SMOOTH",
"35 61 OFFCURVE",
"95 0 OFFCURVE",
"184 0 CURVE SMOOTH"
);
}
);
};
hints = (
{
horizontal = 1;
place = "{0, 126}";
type = Stem;
},
{
horizontal = 1;
place = "{574, 126}";
type = Stem;
},
{
horizontal = 1;
place = "{0, 160.588}";
type = Stem;
},
{
horizontal = 1;
place = "{539.412, 160.588}";
type = Stem;
}
);
layerId = "5dd0c03f-0ac1-43be-b978-266741ffc02a";
paths = (
{
closed = 1;
nodes = (
"551 0 LINE",
"551 23 LINE",
"189 23 LINE SMOOTH",
"128 23 OFFCURVE",
"89 74 OFFCURVE",
"89 117 CURVE SMOOTH",
"89 167 OFFCURVE",
"105 182 OFFCURVE",
"163 225 CURVE SMOOTH",
"473 452 LINE SMOOTH",
"527 491 OFFCURVE",
"558 522 OFFCURVE",
"558 584 CURVE SMOOTH",
"558 642 OFFCURVE",
"515 700 OFFCURVE",
"433 700 CURVE SMOOTH",
"95 700 LINE",
"94 677 LINE",
"442 677 LINE SMOOTH",
"494 677 OFFCURVE",
"533 629 OFFCURVE",
"533 585 CURVE SMOOTH",
"533 540 OFFCURVE",
"517 514 OFFCURVE",
"464 475 CURVE SMOOTH",
"146 243 LINE SMOOTH",
"90 202 OFFCURVE",
"65 178 OFFCURVE",
"65 121 CURVE SMOOTH",
"65 58 OFFCURVE",
"111 0 OFFCURVE",
"193 0 CURVE SMOOTH"
);
}
);
width = 623;
},
{
hints = (
{
horizontal = 1;
place = "{0, 126}";
type = Stem;
},
{
horizontal = 1;
place = "{574, 126}";
type = Stem;
}
);
layerId = "41AFA816-2F69-4745-BF67-F6DEA15443A0";
paths = (
{
closed = 1;
nodes = (
"565 0 LINE",
"565 126 LINE",
"204 126 LINE SMOOTH",
"194 126 OFFCURVE",
"185 135 OFFCURVE",
"185 145 CURVE SMOOTH",
"185 150 OFFCURVE",
"187 154 OFFCURVE",
"190 157 CURVE SMOOTH",
"511 441 LINE SMOOTH",
"545 471 OFFCURVE",
"560 510 OFFCURVE",
"560 552 CURVE SMOOTH",
"560 639 OFFCURVE",
"500 700 OFFCURVE",
"411 700 CURVE SMOOTH",
"52 700 LINE",
"52 574 LINE",
"390 574 LINE SMOOTH",
"399 574 OFFCURVE",
"409 565 OFFCURVE",
"409 555 CURVE SMOOTH",
"409 550 OFFCURVE",
"407 546 OFFCURVE",
"404 543 CURVE SMOOTH",
"87 261 LINE SMOOTH",
"49 228 OFFCURVE",
"35 190 OFFCURVE",
"35 148 CURVE SMOOTH",
"35 61 OFFCURVE",
"95 0 OFFCURVE",
"184 0 CURVE SMOOTH"
);
}
);
width = 600;
},
{
hints = (
{
horizontal = 1;
place = "{0, 126}";
type = Stem;
},
{
horizontal = 1;
place = "{574, 126}";
type = Stem;
}
);
layerId = "32E5C913-0890-451E-8980-44FAA246AB8A";
paths = (
{
closed = 1;
nodes = (
"595 0 LINE",
"595 165 LINE",
"275 165 LINE SMOOTH",
"267 165 OFFCURVE",
"262 168 OFFCURVE",
"262 172 CURVE SMOOTH",
"262 175 OFFCURVE",
"264 177 OFFCURVE",
"267 180 CURVE SMOOTH",
"531 414 LINE SMOOTH",
"572 450 OFFCURVE",
"590 493 OFFCURVE",
"590 536 CURVE SMOOTH",
"590 633 OFFCURVE",
"518 700 OFFCURVE",
"412 700 CURVE SMOOTH",
"39 700 LINE",
"39 534 LINE",
"341 534 LINE SMOOTH",
"348 534 OFFCURVE",
"351 531 OFFCURVE",
"351 528 CURVE SMOOTH",
"351 526 OFFCURVE",
"350 524 OFFCURVE",
"347 521 CURVE SMOOTH",
"86 288 LINE SMOOTH",
"41 249 OFFCURVE",
"24 207 OFFCURVE",
"24 164 CURVE SMOOTH",
"24 67 OFFCURVE",
"96 0 OFFCURVE",
"202 0 CURVE SMOOTH"
);
}
);
width = 619;
}
);
leftKerningGroup = Z_2nd;
rightKerningGroup = Z_1st;
unicode = 005A;
},
{
color = 1;
glyphname = A.ss01;
layers = (
{
background = {
paths = (
{
closed = 1;
nodes = (
"110 0 LINE",
"110 447 LINE SMOOTH",
"110 580 OFFCURVE",
"198 690 OFFCURVE",
"343 690 CURVE SMOOTH",
"487 690 OFFCURVE",
"575 580 OFFCURVE",
"575 447 CURVE SMOOTH",
"575 0 LINE",
"600 0 LINE",
"600 437 LINE SMOOTH",
"600 607 OFFCURVE",
"493 713 OFFCURVE",
"343 713 CURVE SMOOTH",
"192 713 OFFCURVE",
"85 607 OFFCURVE",
"85 437 CURVE SMOOTH",
"85 0 LINE"
);
},
{
closed = 1;
nodes = (
"593 270 LINE",
"593 294 LINE",
"93 294 LINE",
"93 270 LINE"
);
}
);
};
guideLines = (
{
angle = 90;
position = "{350, 0}";
}
);
hints = (
{
place = "{65, 143}";
type = Stem;
},
{
place = "{504, 143}";
type = Stem;
},
{
horizontal = 1;
place = "{189, 126}";
type = Stem;
},
{
horizontal = 1;
place = "{586, 126}";
type = Stem;
},
{
horizontal = 1;
place = "{0, 21}";
target = up;
type = BottomGhost;
}
);
layerId = "5dd0c03f-0ac1-43be-b978-266741ffc02a";
paths = (
{
closed = 1;
nodes = (
"110 0 LINE",
"110 270 LINE",
"575 270 LINE",
"575 0 LINE",
"600 0 LINE",
"600 437 LINE SMOOTH",
"600 607 OFFCURVE",
"493 713 OFFCURVE",
"343 713 CURVE SMOOTH",
"192 713 OFFCURVE",
"85 607 OFFCURVE",
"85 437 CURVE SMOOTH",
"85 0 LINE"
);
},
{
closed = 1;
nodes = (
"110 438 LINE SMOOTH",
"110 581 OFFCURVE",
"198 690 OFFCURVE",
"343 690 CURVE SMOOTH",
"487 690 OFFCURVE",
"575 581 OFFCURVE",
"575 438 CURVE SMOOTH",
"575 294 LINE",
"110 294 LINE"
);
}
);
width = 685;
},
{
guideLines = (
{
angle = 90;
position = "{350, 0}";
}
);
hints = (
{
place = "{65, 143}";
type = Stem;
},
{
place = "{504, 143}";
type = Stem;
},
{
horizontal = 1;
place = "{189, 126}";
type = Stem;
},
{
horizontal = 1;
place = "{586, 126}";
type = Stem;
},
{
horizontal = 1;
place = "{0, 21}";
target = up;
type = BottomGhost;
}
);
layerId = "41AFA816-2F69-4745-BF67-F6DEA15443A0";
paths = (
{
closed = 1;
nodes = (
"208 0 LINE",
"208 189 LINE",
"504 189 LINE",
"504 0 LINE",
"647 0 LINE",
"647 424 LINE SMOOTH",
"647 602 OFFCURVE",
"526 712 OFFCURVE",
"356 712 CURVE SMOOTH",
"186 712 OFFCURVE",
"65 602 OFFCURVE",
"65 424 CURVE SMOOTH",
"65 0 LINE"
);
},
{
closed = 1;
nodes = (
"208 433 LINE SMOOTH",
"208 517 OFFCURVE",
"265 586 OFFCURVE",
"356 586 CURVE SMOOTH",
"447 586 OFFCURVE",
"504 517 OFFCURVE",
"504 433 CURVE SMOOTH",
"504 315 LINE",
"208 315 LINE"
);
}
);
width = 712;
},
{
hints = (
{
place = "{158, 130.25}";
type = Stem;
},
{
place = "{431.25, -58.75}";
type = Stem;
},
{
horizontal = 1;
place = "{486.75, 126}";
type = Stem;
},
{
horizontal = 1;
place = "{680.5, -63}";
type = Stem;
},
{
horizontal = 1;
place = "{525, 21}";
target = up;
type = BottomGhost;
}
);
layerId = "32E5C913-0890-451E-8980-44FAA246AB8A";
paths = (
{
closed = 1;
nodes = (
"255 0 LINE",
"255 166 LINE",
"455 166 LINE",
"455 0 LINE",
"667 0 LINE",
"667 419 LINE SMOOTH",
"667 600 OFFCURVE",
"537 712 OFFCURVE",
"355 712 CURVE SMOOTH",
"171 712 OFFCURVE",
"43 600 OFFCURVE",
"43 419 CURVE SMOOTH",
"43 0 LINE"
);
},
{
closed = 1;
nodes = (
"255 428 LINE SMOOTH",
"255 493 OFFCURVE",
"293 539 OFFCURVE",
"355 539 CURVE SMOOTH",
"415 539 OFFCURVE",
"455 493 OFFCURVE",
"455 428 CURVE SMOOTH",
"455 335 LINE",
"255 335 LINE"
);
}
);
width = 709;
}
);
leftKerningGroup = H_2nd;
rightKerningGroup = H_1st;
},
{
color = 4;
glyphname = Aogonek.ss01;
layers = (
{
components = (
{
name = A.ss01;
}
);
hints = (
{
horizontal = 1;
place = "{141, 126}";
type = Stem;
},
{
horizontal = 1;
place = "{0, 21}";
target = up;
type = BottomGhost;
},
{
horizontal = 1;
place = "{712, -20}";
target = down;
type = TopGhost;
},
{
place = "{546, 85}";
type = Stem;
},
{
place = "{546, 183}";
type = Stem;
},
{
horizontal = 1;
place = "{-218, 21}";
target = up;
type = BottomGhost;
},
{
place = "{526, 85}";
type = Stem;
},
{
place = "{526, 183}";
type = Stem;
},
{
place = "{531.421, 63.518}";
type = Stem;
},
{
place = "{531.421, 136.75}";
type = Stem;
},
{
horizontal = 1;
place = "{-217.905, 21}";
target = up;
type = BottomGhost;
}
);
layerId = "5dd0c03f-0ac1-43be-b978-266741ffc02a";
paths = (
{
closed = 1;
nodes = (
"573 -215 OFFCURVE",
"586 -213 OFFCURVE",
"599 -208 CURVE",
"599 -187 LINE",
"586 -192 OFFCURVE",
"573 -194 OFFCURVE",
"561 -194 CURVE SMOOTH",
"529 -194 OFFCURVE",
"503 -177 OFFCURVE",
"503 -142 CURVE SMOOTH",
"503 -83 OFFCURVE",
"592 -7 OFFCURVE",
"600 0 CURVE",
"581 13 LINE",
"574 7 OFFCURVE",
"478 -76 OFFCURVE",
"478 -141 CURVE SMOOTH",
"478 -185 OFFCURVE",
"515 -215 OFFCURVE",
"560 -215 CURVE SMOOTH"
);
}
);
width = 685;
},
{
components = (
{
alignment = -1;
name = A.ss01;
}
);
hints = (
{
horizontal = 1;
place = "{141, 126}";
type = Stem;
},
{
horizontal = 1;
place = "{0, 21}";
target = up;
type = BottomGhost;
},
{
horizontal = 1;
place = "{712, -20}";
target = down;
type = TopGhost;
},
{
place = "{546, 85}";
type = Stem;
},
{
place = "{546, 183}";
type = Stem;
},
{
place = "{526, 85}";
type = Stem;
},
{
place = "{526, 183}";
type = Stem;
},
{
horizontal = 1;
place = "{-218, 21}";
target = up;
type = BottomGhost;
}
);
layerId = "41AFA816-2F69-4745-BF67-F6DEA15443A0";
paths = (
{
closed = 1;
nodes = (
"609 -218 OFFCURVE",
"633 -215 OFFCURVE",
"647 -211 CURVE",
"647 -126 LINE",
"633 -131 OFFCURVE",
"619 -134 OFFCURVE",
"604 -134 CURVE SMOOTH",
"573 -134 OFFCURVE",
"549 -112 OFFCURVE",
"549 -80 CURVE SMOOTH",
"549 -29 OFFCURVE",
"598 57 OFFCURVE",
"604 66 CURVE",
"569 86 LINE",
"562 78 OFFCURVE",
"464 -33 OFFCURVE",
"464 -104 CURVE SMOOTH",
"464 -181 OFFCURVE",
"523 -218 OFFCURVE",
"595 -218 CURVE SMOOTH"
);
}
);
width = 712;
},
{
components = (
{
alignment = -1;
name = A.ss01;
}
);
hints = (
{
horizontal = 1;
place = "{141, 126}";
type = Stem;
},
{
horizontal = 1;
place = "{0, 21}";
target = up;
type = BottomGhost;
},
{
horizontal = 1;
place = "{712, -20}";
target = down;
type = TopGhost;
},
{
place = "{546, 85}";
type = Stem;
},
{
place = "{546, 183}";
type = Stem;
},
{
place = "{526, 85}";
type = Stem;
},
{
place = "{526, 183}";
type = Stem;
},
{
horizontal = 1;
place = "{-218, 21}";
target = up;
type = BottomGhost;
}
);
layerId = "32E5C913-0890-451E-8980-44FAA246AB8A";
paths = (
{
closed = 1;
nodes = (
"617 -219 OFFCURVE",
"649 -215 OFFCURVE",
"667 -210 CURVE",
"667 -117 LINE",
"655 -121 OFFCURVE",
"639 -124 OFFCURVE",
"622 -124 CURVE SMOOTH",
"588 -124 OFFCURVE",
"570 -104 OFFCURVE",
"570 -77 CURVE SMOOTH",
"570 -29 OFFCURVE",
"633 62 OFFCURVE",
"637 69 CURVE",
"580 95 LINE",
"573 87 OFFCURVE",
"460 -26 OFFCURVE",
"460 -106 CURVE SMOOTH",
"459 -186 OFFCURVE",
"518 -219 OFFCURVE",
"595 -219 CURVE SMOOTH"
);
}
);
width = 709;
}
);
leftKerningGroup = H_2nd;
leftMetricsKey = A.ss01;
rightKerningGroup = H_1st;
rightMetricsKey = A.ss01;
},
{
glyphname = E.ss01;
layers = (
{
hints = (
{
place = "{41, 142}";
type = Stem;
},
{
place = "{407, 114}";
type = Stem;
},
{
horizontal = 1;
place = "{0, 126}";
type = Stem;
},
{
horizontal = 1;
place = "{212, 114}";
type = Stem;
},
{
horizontal = 1;
place = "{380, 114}";
type = Stem;
},
{
horizontal = 1;
place = "{574, 126}";
type = Stem;
}
);
layerId = "5dd0c03f-0ac1-43be-b978-266741ffc02a";
paths = (
{
closed = 1;
nodes = (
"498 0 LINE",
"498 24 LINE",
"260 24 LINE SMOOTH",
"154 24 OFFCURVE",
"85 95 OFFCURVE",
"85 185 CURVE",
"84 243 OFFCURVE",
"105 296 OFFCURVE",
"140 338 CURVE",
"195 286 OFFCURVE",
"274 254 OFFCURVE",
"357 254 CURVE SMOOTH",
"444 254 OFFCURVE",
"496 296 OFFCURVE",
"496 360 CURVE SMOOTH",
"496 410 OFFCURVE",
"451 461 OFFCURVE",
"353 461 CURVE SMOOTH",
"271 461 OFFCURVE",
"195 428 OFFCURVE",
"140 374 CURVE",
"108 412 OFFCURVE",
"89 459 OFFCURVE",
"89 512 CURVE SMOOTH",
"89 614 OFFCURVE",
"154 676 OFFCURVE",
"264 676 CURVE SMOOTH",
"498 676 LINE",
"498 700 LINE",
"267 700 LINE SMOOTH",
"157 700 OFFCURVE",
"64 648 OFFCURVE",
"64 509 CURVE SMOOTH",
"64 450 OFFCURVE",
"86 398 OFFCURVE",
"123 356 CURVE",
"84 310 OFFCURVE",
"60 252 OFFCURVE",
"60 188 CURVE SMOOTH",
"60 73 OFFCURVE",
"146 0 OFFCURVE",
"263 0 CURVE SMOOTH"
);
},
{
closed = 1;
nodes = (
"281 277 OFFCURVE",
"207 307 OFFCURVE",
"156 357 CURVE",
"207 408 OFFCURVE",
"278 440 OFFCURVE",
"353 439 CURVE SMOOTH",
"428 438 OFFCURVE",
"471 403 OFFCURVE",
"471 358 CURVE SMOOTH",
"471 309 OFFCURVE",
"431 277 OFFCURVE",
"357 277 CURVE SMOOTH"
);
}
);
width = 548;
},
{
hints = (
{
place = "{41, 142}";
type = Stem;
},
{
place = "{407, 114}";
type = Stem;
},
{
horizontal = 1;
place = "{0, 126}";
type = Stem;
},
{
horizontal = 1;
place = "{212, 114}";
type = Stem;
},
{
horizontal = 1;
place = "{380, 114}";
type = Stem;
},
{
horizontal = 1;
place = "{574, 126}";
type = Stem;
}
);
layerId = "41AFA816-2F69-4745-BF67-F6DEA15443A0";
paths = (
{
closed = 1;
nodes = (
"533 0 LINE",
"533 126 LINE",
"261 126 LINE SMOOTH",
"228 126 OFFCURVE",
"183 156 OFFCURVE",
"183 209 CURVE SMOOTH",
"183 233 OFFCURVE",
"190 254 OFFCURVE",
"201 273 CURVE",
"253 235 OFFCURVE",
"314 212 OFFCURVE",
"367 212 CURVE SMOOTH",
"483 212 OFFCURVE",
"521 290 OFFCURVE",
"521 352 CURVE SMOOTH",
"521 414 OFFCURVE",
"483 494 OFFCURVE",
"367 494 CURVE SMOOTH",
"314 494 OFFCURVE",
"253 470 OFFCURVE",
"200 431 CURVE",
"189 451 OFFCURVE",
"183 471 OFFCURVE",
"183 495 CURVE SMOOTH",
"183 532 OFFCURVE",
"211 574 OFFCURVE",
"261 574 CURVE SMOOTH",
"533 574 LINE",
"533 700 LINE",
"271 700 LINE SMOOTH",
"166 700 OFFCURVE",
"41 650 OFFCURVE",
"41 499 CURVE SMOOTH",
"41 446 OFFCURVE",
"66 393 OFFCURVE",
"107 353 CURVE",
"64 311 OFFCURVE",
"41 256 OFFCURVE",
"41 204 CURVE SMOOTH",
"41 83 OFFCURVE",
"129 0 OFFCURVE",
"271 0 CURVE SMOOTH"
);
},
{
closed = 1;
nodes = (
"342 326 OFFCURVE",
"306 332 OFFCURVE",
"273 353 CURVE",
"305 373 OFFCURVE",
"342 380 OFFCURVE",
"366 380 CURVE SMOOTH",
"394 380 OFFCURVE",
"407 368 OFFCURVE",
"407 353 CURVE SMOOTH",
"407 338 OFFCURVE",
"394 326 OFFCURVE",
"366 326 CURVE SMOOTH"
);
}
);
width = 572;
},
{
hints = (
{
place = "{41, 142}";
type = Stem;
},
{
place = "{407, 114}";
type = Stem;
},
{
horizontal = 1;
place = "{0, 126}";
type = Stem;
},
{
horizontal = 1;
place = "{212, 114}";
type = Stem;
},
{
horizontal = 1;
place = "{380, 114}";
type = Stem;
},
{
horizontal = 1;
place = "{574, 126}";
type = Stem;
}
);
layerId = "32E5C913-0890-451E-8980-44FAA246AB8A";
paths = (
{
closed = 1;
nodes = (
"569 0 LINE",
"569 165 LINE",
"303 165 LINE SMOOTH",
"266 165 OFFCURVE",
"244 184 OFFCURVE",
"243 217 CURVE SMOOTH",
"243 223 OFFCURVE",
"245 229 OFFCURVE",
"248 234 CURVE",
"287 218 OFFCURVE",
"331 211 OFFCURVE",
"373 211 CURVE SMOOTH",
"512 211 OFFCURVE",
"549 292 OFFCURVE",
"549 352 CURVE SMOOTH",
"549 412 OFFCURVE",
"512 494 OFFCURVE",
"373 494 CURVE SMOOTH",
"331 494 OFFCURVE",
"287 487 OFFCURVE",
"247 470 CURVE",
"245 476 OFFCURVE",
"243 481 OFFCURVE",
"243 488 CURVE SMOOTH",
"244 510 OFFCURVE",
"259 535 OFFCURVE",
"303 535 CURVE SMOOTH",
"569 535 LINE",
"569 700 LINE",
"284 700 LINE SMOOTH",
"168 700 OFFCURVE",
"29 647 OFFCURVE",
"29 489 CURVE SMOOTH",
"29 442 OFFCURVE",
"51 394 OFFCURVE",
"87 353 CURVE",
"50 310 OFFCURVE",
"29 259 OFFCURVE",
"29 214 CURVE SMOOTH",
"29 87 OFFCURVE",
"127 0 OFFCURVE",
"284 0 CURVE SMOOTH"
);
},
{
closed = 1;
nodes = (
"316 325 OFFCURVE",
"284 344 OFFCURVE",
"276 353 CURVE",
"284 362 OFFCURVE",
"314 380 OFFCURVE",
"357 380 CURVE SMOOTH",
"386 380 OFFCURVE",
"401 370 OFFCURVE",
"401 353 CURVE SMOOTH",
"401 336 OFFCURVE",
"387 325 OFFCURVE",
"357 325 CURVE SMOOTH"
);
}
);
width = 605;
}
);
leftKerningGroup = H_2nd;
rightKerningGroup = E_1st;
},
{
color = 4;
glyphname = Eogonek.ss01;
layers = (
{
background = {
paths = (
{
closed = 1;
nodes = (
"398 14 LINE",
"373 -23 OFFCURVE",
"349 -69 OFFCURVE",
"349 -111 CURVE SMOOTH",
"349 -181 OFFCURVE",
"398 -218 OFFCURVE",
"471 -218 CURVE SMOOTH",
"497 -218 OFFCURVE",
"516 -212 OFFCURVE",
"522 -210 CURVE",
"522 -185 LINE",
"501 -191 OFFCURVE",
"484 -194 OFFCURVE",
"468 -194 CURVE SMOOTH",
"410 -194 OFFCURVE",
"375 -164 OFFCURVE",
"375 -113 CURVE SMOOTH",
"375 -71 OFFCURVE",
"401 -23 OFFCURVE",
"427 14 CURVE"
);
},
{
closed = 1;
nodes = (
"427 14 LINE",
"450 46 OFFCURVE",
"472 70 OFFCURVE",
"476 74 CURVE",
"457 86 LINE",
"453 82 OFFCURVE",
"425 53 OFFCURVE",
"398 14 CURVE"
);
}
);
};
components = (
{
name = E.ss01;
}
);
hints = (
{
place = "{40, 143}";
type = Stem;
},
{
horizontal = 1;
place = "{0, 126}";
type = Stem;
},
{
horizontal = 1;
place = "{293, 126}";
type = Stem;
},
{
horizontal = 1;
place = "{574, 126}";
type = Stem;
},
{
place = "{349, 85}";
type = Stem;
},
{
place = "{349, 183}";
type = Stem;
},
{
horizontal = 1;
place = "{-218, 21}";
target = up;
type = BottomGhost;
},
{
place = "{349, 85}";
type = Stem;
},
{
place = "{349, 183}";
type = Stem;
},
{
horizontal = 1;
place = "{-218, 21}";
target = up;
type = BottomGhost;
}
);
layerId = "5dd0c03f-0ac1-43be-b978-266741ffc02a";
paths = (
{
closed = 1;
nodes = (
"473 -218 OFFCURVE",
"492 -212 OFFCURVE",
"498 -210 CURVE",
"498 -185 LINE",
"477 -191 OFFCURVE",
"460 -194 OFFCURVE",
"444 -194 CURVE SMOOTH",
"386 -194 OFFCURVE",
"351 -164 OFFCURVE",
"351 -113 CURVE SMOOTH",
"351 -71 OFFCURVE",
"377 -23 OFFCURVE",
"403 14 CURVE",
"374 14 LINE",
"349 -23 OFFCURVE",
"325 -69 OFFCURVE",
"325 -111 CURVE SMOOTH",
"325 -181 OFFCURVE",
"374 -218 OFFCURVE",
"447 -218 CURVE SMOOTH"
);
}
);
width = 548;
},
{
background = {
components = (
{
alignment = -1;
name = E;
},
{
alignment = -1;
name = ogonek;
transform = "{1, 0, 0, 1, 342, 0}";
}
);
};
components = (
{
alignment = -1;
name = E.ss01;
}
);
hints = (
{
place = "{40, 143}";
type = Stem;
},
{
horizontal = 1;
place = "{0, 126}";
type = Stem;
},
{
horizontal = 1;
place = "{293, 126}";
type = Stem;
},
{
horizontal = 1;
place = "{574, 126}";
type = Stem;
},
{
place = "{349, 85}";
type = Stem;
},
{
place = "{349, 183}";
type = Stem;
},
{
horizontal = 1;
place = "{-218, 21}";
target = up;
type = BottomGhost;
},
{
place = "{349, 85}";
type = Stem;
},
{
place = "{349, 183}";
type = Stem;
},
{
horizontal = 1;
place = "{-218, 21}";
target = up;
type = BottomGhost;
}
);
layerId = "41AFA816-2F69-4745-BF67-F6DEA15443A0";
paths = (
{
closed = 1;
nodes = (
"494 -218 OFFCURVE",
"518 -215 OFFCURVE",
"532 -211 CURVE",
"532 -126 LINE",
"518 -131 OFFCURVE",
"504 -134 OFFCURVE",
"489 -134 CURVE SMOOTH",
"458 -134 OFFCURVE",
"434 -112 OFFCURVE",
"434 -80 CURVE SMOOTH",
"434 -29 OFFCURVE",
"493 57 OFFCURVE",
"499 66 CURVE",
"464 86 LINE",
"457 78 OFFCURVE",
"349 -33 OFFCURVE",
"349 -104 CURVE SMOOTH",
"349 -181 OFFCURVE",
"408 -218 OFFCURVE",
"480 -218 CURVE SMOOTH"
);
}
);
width = 572;
},
{
components = (
{
alignment = -1;
name = E.ss01;
}
);
hints = (
{
place = "{10, 35.75}";
type = Stem;
},
{
horizontal = 1;
place = "{0, 126}";
type = Stem;
},
{
horizontal = 1;
place = "{293, 126}";
type = Stem;
},
{
horizontal = 1;
place = "{574, 126}";
type = Stem;
},
{
place = "{87.25, 21.25}";
type = Stem;
},
{
place = "{349, 109.5}";
type = Stem;
},
{
horizontal = 1;
place = "{-54.5, 5.25}";
target = up;
type = BottomGhost;
},
{
place = "{117.25, 128.5}";
type = Stem;
},
{
place = "{349, 183}";
type = Stem;
},
{
horizontal = 1;
place = "{-218, 21}";
target = up;
type = BottomGhost;
}
);
layerId = "32E5C913-0890-451E-8980-44FAA246AB8A";
paths = (
{
closed = 1;
nodes = (
"519 -219 OFFCURVE",
"551 -215 OFFCURVE",
"569 -210 CURVE",
"569 -117 LINE",
"557 -121 OFFCURVE",
"541 -124 OFFCURVE",
"524 -124 CURVE SMOOTH",
"490 -124 OFFCURVE",
"472 -104 OFFCURVE",
"472 -77 CURVE SMOOTH",
"472 -29 OFFCURVE",
"537 62 OFFCURVE",
"542 69 CURVE",
"485 95 LINE",
"478 87 OFFCURVE",
"363 -26 OFFCURVE",
"362 -106 CURVE SMOOTH",
"361 -186 OFFCURVE",
"420 -219 OFFCURVE",
"497 -219 CURVE SMOOTH"
);
}
);
width = 605;
}
);
leftKerningGroup = H_2nd;
leftMetricsKey = E.ss01;
rightKerningGroup = E_1st;
rightMetricsKey = E.ss01;
},
{
color = 1;
glyphname = G.ss01;
layers = (
{
background = {
paths = (
{
closed = 1;
nodes = (
"60 158 OFFCURVE",
"201 4 OFFCURVE",
"419 0 CURVE",
"520 0 LINE",
"520 -203 LINE",
"663 -203 LINE",
"663 405 LINE",
"397 405 LINE",
"397 279 LINE",
"520 279 LINE",
"520 126 LINE",
"422 126 LINE",
"295 128 OFFCURVE",
"203 222 OFFCURVE",
"203 350 CURVE SMOOTH",
"203 477 OFFCURVE",
"295 572 OFFCURVE",
"422 574 CURVE",
"639 574 LINE",
"639 700 LINE",
"419 700 LINE",
"201 696 OFFCURVE",
"60 542 OFFCURVE",
"60 350 CURVE SMOOTH"
);
}
);
};
hints = (
{
place = "{30, 143}";
type = Stem;
},
{
place = "{490, 143}";
type = Stem;
},
{
horizontal = 1;
place = "{0, 126}";
type = Stem;
},
{
horizontal = 1;
place = "{279, 126}";
type = Stem;
},
{
horizontal = 1;
place = "{574, 126}";
type = Stem;
},
{
horizontal = 1;
place = "{-203, 21}";
target = up;
type = BottomGhost;
}
);
layerId = "5dd0c03f-0ac1-43be-b978-266741ffc02a";
paths = (
{
closed = 1;
nodes = (
"629 -239 LINE",
"629 352 LINE",
"457 352 LINE",
"457 328 LINE",
"601 328 LINE",
"601 24 LINE",
"413 24 LINE SMOOTH",
"223 24 OFFCURVE",
"87 164 OFFCURVE",
"87 350 CURVE SMOOTH",
"87 534 OFFCURVE",
"225 676 OFFCURVE",
"415 676 CURVE SMOOTH",
"610 676 LINE",
"610 699 LINE",
"413 699 LINE SMOOTH",
"202 699 OFFCURVE",
"60 539 OFFCURVE",
"60 350 CURVE SMOOTH",
"60 160 OFFCURVE",
"202 0 OFFCURVE",
"413 0 CURVE SMOOTH",
"601 0 LINE",
"601 -239 LINE"
);
}
);
width = 714;
},
{
hints = (
{
place = "{30, 143}";
type = Stem;
},
{
place = "{490, 143}";
type = Stem;
},
{
horizontal = 1;
place = "{0, 126}";
type = Stem;
},
{
horizontal = 1;
place = "{279, 126}";
type = Stem;
},
{
horizontal = 1;
place = "{574, 126}";
type = Stem;
},
{
horizontal = 1;
place = "{-203, 21}";
target = up;
type = BottomGhost;
}
);
layerId = "41AFA816-2F69-4745-BF67-F6DEA15443A0";
paths = (
{
closed = 1;
nodes = (
"633 -203 LINE",
"633 405 LINE",
"367 405 LINE",
"367 279 LINE",
"490 279 LINE",
"490 126 LINE",
"392 126 LINE",
"265 128 OFFCURVE",
"173 222 OFFCURVE",
"173 350 CURVE SMOOTH",
"173 477 OFFCURVE",
"265 572 OFFCURVE",
"392 574 CURVE",
"609 574 LINE",
"609 700 LINE",
"389 700 LINE",
"171 696 OFFCURVE",
"30 542 OFFCURVE",
"30 350 CURVE SMOOTH",
"30 158 OFFCURVE",
"171 4 OFFCURVE",
"389 0 CURVE",
"490 0 LINE",
"490 -203 LINE"
);
}
);
width = 698;
},
{
hints = (
{
place = "{216.75, 130.25}";
type = Stem;
},
{
place = "{552.25, 131}";
type = Stem;
},
{
horizontal = 1;
place = "{430.5, 126}";
type = Stem;
},
{
horizontal = 1;
place = "{500.25, 126}";
type = Stem;
},
{
horizontal = 1;
place = "{574, 126}";
type = Stem;
},
{
horizontal = 1;
place = "{-203, 21}";
target = up;
type = BottomGhost;
}
);
layerId = "32E5C913-0890-451E-8980-44FAA246AB8A";
paths = (
{
closed = 1;
nodes = (
"686 -203 LINE",
"686 419 LINE",
"382 419 LINE",
"382 254 LINE",
"482 254 LINE",
"482 165 LINE",
"409 165 LINE",
"307 166 OFFCURVE",
"246 245 OFFCURVE",
"246 350 CURVE SMOOTH",
"246 454 OFFCURVE",
"307 535 OFFCURVE",
"409 535 CURVE",
"655 535 LINE",
"655 700 LINE",
"402 700 LINE",
"174 699 OFFCURVE",
"26 558 OFFCURVE",
"26 350 CURVE SMOOTH",
"26 142 OFFCURVE",
"173 1 OFFCURVE",
"402 0 CURVE",
"482 0 LINE",
"482 -203 LINE"
);
}
);
width = 729;
}
);
leftKerningGroup = O_2nd;
rightKerningGroup = H_1st;
},
{
glyphname = J.ss01;
layers = (
{
background = {
paths = (
{
closed = 1;
nodes = (
"105 573 LINE",
"283 573 LINE",
"283 192 LINE SMOOTH",
"283 156 OFFCURVE",
"254 126 OFFCURVE",
"218 126 CURVE SMOOTH",
"18 126 LINE",
"18 0 LINE",
"218 0 LINE SMOOTH",
"343 0 OFFCURVE",
"426 94 OFFCURVE",
"426 209 CURVE SMOOTH",
"426 700 LINE",
"105 700 LINE"
);
}
);
};
hints = (
{
place = "{305, 143}";
type = Stem;
},
{
horizontal = 1;
place = "{0, 126}";
type = Stem;
},
{
horizontal = 1;
place = "{573, 127}";
type = Stem;
},
{
place = "{58, 143}";
type = Stem;
},
{
place = "{543, 143}";
type = Stem;
},
{
horizontal = 1;
place = "{0, 126}";
type = Stem;
},
{
horizontal = 1;
place = "{573, 127}";
type = Stem;
},
{
place = "{576, 143}";
type = Stem;
},
{
place = "{91, 143}";
type = Stem;
},
{
horizontal = 1;
place = "{0, 126}";
type = Stem;
},
{
horizontal = 1;
place = "{573, 127}";
type = Stem;
}
);
layerId = "5dd0c03f-0ac1-43be-b978-266741ffc02a";
paths = (
{
closed = 1;
nodes = (
"205 0 LINE SMOOTH",
"301 0 OFFCURVE",
"355 59 OFFCURVE",
"355 154 CURVE SMOOTH",
"355 700 LINE",
"132 700 LINE",
"132 677 LINE",
"330 677 LINE",
"330 149 LINE SMOOTH",
"330 74 OFFCURVE",
"284 23 OFFCURVE",
"203 23 CURVE SMOOTH",
"45 23 LINE",
"45 0 LINE"
);
}
);
width = 440;
},
{
hints = (
{
place = "{305, 143}";
type = Stem;
},
{
horizontal = 1;
place = "{0, 126}";
type = Stem;
},
{
horizontal = 1;
place = "{573, 127}";
type = Stem;
}
);
layerId = "41AFA816-2F69-4745-BF67-F6DEA15443A0";
paths = (
{
closed = 1;
nodes = (
"235 0 LINE SMOOTH",
"360 0 OFFCURVE",
"443 94 OFFCURVE",
"443 209 CURVE SMOOTH",
"443 700 LINE",
"122 700 LINE",
"122 573 LINE",
"300 573 LINE",
"300 192 LINE SMOOTH",
"300 156 OFFCURVE",
"271 126 OFFCURVE",
"235 126 CURVE SMOOTH",
"35 126 LINE",
"35 0 LINE"
);
}
);
width = 501;
},
{
hints = (
{
place = "{76.25, 130.25}";
type = Stem;
},
{
horizontal = 1;
place = "{429.75, 126.75}";
type = Stem;
},
{
horizontal = 1;
place = "{573.75, 126.25}";
type = Stem;
}
);
layerId = "32E5C913-0890-451E-8980-44FAA246AB8A";
paths = (
{
closed = 1;
nodes = (
"198 0 LINE SMOOTH",
"332 0 OFFCURVE",
"430 93 OFFCURVE",
"430 219 CURVE SMOOTH",
"430 700 LINE",
"73 700 LINE",
"73 531 LINE",
"221 531 LINE",
"221 207 LINE SMOOTH",
"221 185 OFFCURVE",
"204 168 OFFCURVE",
"183 168 CURVE SMOOTH",
"24 168 LINE",
"24 0 LINE"
);
}
);
width = 470;
}
);
leftKerningGroup = J_2nd;
rightKerningGroup = H_1st;
},
{
glyphname = K.ss01;
layers = (
{
hints = (
{
place = "{70, 143}";
type = Stem;
},
{
horizontal = 1;
place = "{293, 126}";
type = Stem;
},
{
horizontal = 1;
place = "{0, 21}";
target = up;
type = BottomGhost;
},
{
horizontal = 1;
place = "{700, -20}";
target = down;
type = TopGhost;
}
);
layerId = "5dd0c03f-0ac1-43be-b978-266741ffc02a";
paths = (
{
closed = 1;
nodes = (
"110 0 LINE",
"110 345 LINE",
"362 345 LINE",
"591 0 LINE",
"622 0 LINE",
"380 358 LINE",
"614 700 LINE",
"585 700 LINE",
"359 368 LINE",
"110 368 LINE",
"110 700 LINE",
"85 700 LINE",
"85 0 LINE"
);
}
);
width = 637;
},
{
hints = (
{
place = "{70, 143}";
type = Stem;
},
{
horizontal = 1;
place = "{293, 126}";
type = Stem;
},
{
horizontal = 1;
place = "{0, 21}";
target = up;
type = BottomGhost;
},
{
horizontal = 1;
place = "{700, -20}";
target = down;
type = TopGhost;
}
);
layerId = "41AFA816-2F69-4745-BF67-F6DEA15443A0";
paths = (
{
closed = 1;
nodes = (
"213 0 LINE",
"213 293 LINE",
"339 293 LINE",
"521 0 LINE",
"691 0 LINE",
"456 364 LINE",
"685 700 LINE",
"520 700 LINE",
"336 419 LINE",
"213 419 LINE",
"213 700 LINE",
"70 700 LINE",
"70 0 LINE"
);
}
);
width = 691;
},
{
hints = (
{
place = "{187.178, 136.014}";
type = Stem;
},
{
horizontal = 1;
place = "{293, 126}";
type = Stem;
},
{
horizontal = 1;
place = "{0, 21}";
target = up;
type = BottomGhost;
},
{
horizontal = 1;
place = "{801.436, -20}";
target = down;
type = TopGhost;
}
);
layerId = "32E5C913-0890-451E-8980-44FAA246AB8A";
paths = (
{
closed = 1;
nodes = (
"260 0 LINE",
"260 269 LINE",
"352 269 LINE",
"482 0 LINE",
"728 0 LINE",
"537 373 LINE",
"712 700 LINE",
"479 700 LINE",
"351 438 LINE",
"260 438 LINE",
"260 700 LINE",
"44 700 LINE",
"44 0 LINE"
);
}
);
width = 732;
}
);
leftKerningGroup = H_2nd;
rightKerningGroup = K_1st;
},
{
glyphname = L.ss01;
layers = (
{
background = {
paths = (
{
closed = 1;
nodes = (
"266 126 LINE SMOOTH",
"230 126 OFFCURVE",
"201 156 OFFCURVE",
"201 192 CURVE SMOOTH",
"201 700 LINE",
"58 700 LINE",
"58 209 LINE SMOOTH",
"58 94 OFFCURVE",
"141 0 OFFCURVE",
"266 0 CURVE SMOOTH",
"336 0 LINE",
"336 126 LINE"
);
}
);
};
hints = (
{
place = "{58, 143}";
type = Stem;
},
{
place = "{543, 143}";
type = Stem;
},
{
horizontal = 1;
place = "{0, 126}";
type = Stem;
},
{
horizontal = 1;
place = "{573, 127}";
type = Stem;
}
);
layerId = "5dd0c03f-0ac1-43be-b978-266741ffc02a";
paths = (
{
closed = 1;
nodes = (
"277 0 LINE",
"277 23 LINE",
"237 23 LINE SMOOTH",
"156 23 OFFCURVE",
"110 74 OFFCURVE",
"110 149 CURVE SMOOTH",
"110 700 LINE",
"85 700 LINE",
"85 154 LINE SMOOTH",
"85 59 OFFCURVE",
"139 0 OFFCURVE",
"235 0 CURVE SMOOTH"
);
}
);
width = 356;
},
{
hints = (
{
place = "{58, 143}";
type = Stem;
},
{
place = "{543, 143}";
type = Stem;
},
{
horizontal = 1;
place = "{0, 126}";
type = Stem;
},
{
horizontal = 1;
place = "{573, 127}";
type = Stem;
}
);
layerId = "41AFA816-2F69-4745-BF67-F6DEA15443A0";
paths = (
{
closed = 1;
nodes = (
"336 0 LINE",
"336 126 LINE",
"266 126 LINE SMOOTH",
"230 126 OFFCURVE",
"201 156 OFFCURVE",
"201 192 CURVE SMOOTH",
"201 700 LINE",
"58 700 LINE",
"58 209 LINE SMOOTH",
"58 94 OFFCURVE",
"141 0 OFFCURVE",
"266 0 CURVE SMOOTH"
);
}
);
width = 356;
},
{
hints = (
{
place = "{58, 143}";
type = Stem;
},
{
place = "{543, 143}";
type = Stem;
},
{
horizontal = 1;
place = "{0, 126}";
type = Stem;
},
{
horizontal = 1;
place = "{573, 127}";
type = Stem;
}
);
layerId = "32E5C913-0890-451E-8980-44FAA246AB8A";
paths = (
{
closed = 1;
nodes = (
"401 0 LINE",
"401 169 LINE",
"303 169 LINE SMOOTH",
"276 169 OFFCURVE",
"257 191 OFFCURVE",
"257 217 CURVE SMOOTH",
"257 700 LINE",
"41 700 LINE",
"41 219 LINE SMOOTH",
"41 99 OFFCURVE",
"134 0 OFFCURVE",
"276 0 CURVE SMOOTH"
);
}
);
width = 417;
}
);
leftKerningGroup = H_2nd;
rightKerningGroup = L_1st;
},
{
color = 4;
glyphname = Lslash.ss01;
layers = (
{
background = {
paths = (
{
closed = 1;
nodes = (
"324 424 LINE",
"324 448 LINE",
"1 371 LINE",
"1 347 LINE"
);
}
);
};
components = (
{
name = L.ss01;
}
);
hints = (
{
place = "{58, 143}";
type = Stem;
},
{
horizontal = 1;
place = "{0, 126}";
type = Stem;
},
{
horizontal = 1;
place = "{700, -20}";
target = down;
type = TopGhost;
}
);
layerId = "5dd0c03f-0ac1-43be-b978-266741ffc02a";
paths = (
{
closed = 1;
nodes = (
"324 424 LINE",
"324 448 LINE",
"1 371 LINE",
"1 347 LINE"
);
}
);
width = 356;
},
{
background = {
paths = (
{
closed = 1;
nodes = (
"324 389 LINE",
"324 468 LINE",
"1 391 LINE",
"1 312 LINE"
);
}
);
};
components = (
{
name = L.ss01;
}
);
hints = (
{
place = "{58, 143}";
type = Stem;
},
{
horizontal = 1;
place = "{0, 126}";
type = Stem;
},
{
horizontal = 1;
place = "{700, -20}";
target = down;
type = TopGhost;
}
);
layerId = "41AFA816-2F69-4745-BF67-F6DEA15443A0";
paths = (
{
closed = 1;
nodes = (
"324 389 LINE",
"324 468 LINE",
"1 391 LINE",
"1 312 LINE"
);
}
);
width = 356;
},
{
components = (
{
alignment = -1;
name = L.ss01;
}
);
hints = (
{
place = "{58, 143}";
type = Stem;
},
{
horizontal = 1;
place = "{0, 126}";
type = Stem;
},
{
horizontal = 1;
place = "{700, -20}";
target = down;
type = TopGhost;
}
);
layerId = "32E5C913-0890-451E-8980-44FAA246AB8A";
paths = (
{
closed = 1;
nodes = (
"368 394 LINE",
"368 508 LINE",
"-9 411 LINE",
"-9 297 LINE"
);
}
);
width = 417;
}
);
leftKerningGroup = H_2nd;
rightKerningGroup = L_1st;
},
{
glyphname = M.ss01;
layers = (
{
background = {
paths = (
{
closed = 1;
nodes = (
"641 77 OFFCURVE",
"707 152 OFFCURVE",
"707 256 CURVE SMOOTH",
"707 541 LINE SMOOTH",
"707 623 OFFCURVE",
"767 690 OFFCURVE",
"846 690 CURVE SMOOTH",
"923 690 OFFCURVE",
"984 623 OFFCURVE",
"984 541 CURVE SMOOTH",
"984 0 LINE",
"1011 0 LINE",
"1011 534 LINE SMOOTH",
"1011 638 OFFCURVE",
"940 713 OFFCURVE",
"846 713 CURVE SMOOTH",
"750 713 OFFCURVE",
"680 638 OFFCURVE",
"680 534 CURVE SMOOTH",
"680 249 LINE SMOOTH",
"680 165 OFFCURVE",
"621 100 OFFCURVE",
"549 100 CURVE SMOOTH",
"477 100 OFFCURVE",
"414 165 OFFCURVE",
"414 249 CURVE SMOOTH",
"414 534 LINE SMOOTH",
"414 638 OFFCURVE",
"343 713 OFFCURVE",
"249 713 CURVE SMOOTH",
"153 713 OFFCURVE",
"83 638 OFFCURVE",
"83 534 CURVE SMOOTH",
"83 0 LINE",
"110 0 LINE",
"110 541 LINE SMOOTH",
"110 623 OFFCURVE",
"172 690 OFFCURVE",
"249 690 CURVE SMOOTH",
"324 690 OFFCURVE",
"387 623 OFFCURVE",
"387 541 CURVE SMOOTH",
"387 256 LINE SMOOTH",
"387 152 OFFCURVE",
"457 77 OFFCURVE",
"549 77 CURVE SMOOTH"
);
}
);
};
hints = (
{
place = "{60, 143}";
type = Stem;
},
{
place = "{334, 143}";
type = Stem;
},
{
place = "{608, 143}";
type = Stem;
},
{
place = "{882, 143}";
type = Stem;
},
{
horizontal = 1;
place = "{54, 126}";
type = Stem;
},
{
horizontal = 1;
place = "{586, 126}";
type = Stem;
},
{
horizontal = 1;
place = "{0, 21}";
target = up;
type = BottomGhost;
},
{
place = "{60, 143}";
type = Stem;
},
{
place = "{334, 143}";
type = Stem;
},
{
place = "{608, 143}";
type = Stem;
},
{
place = "{882, 143}";
type = Stem;
},
{
horizontal = 1;
place = "{-11, 126}";
type = Stem;
},
{
horizontal = 1;
place = "{586, 126}";
type = Stem;
}
);
layerId = "5dd0c03f-0ac1-43be-b978-266741ffc02a";
paths = (
{
closed = 1;
nodes = (
"110 0 LINE",
"110 541 LINE SMOOTH",
"110 623 OFFCURVE",
"172 690 OFFCURVE",
"249 690 CURVE SMOOTH",
"324 690 OFFCURVE",
"388 623 OFFCURVE",
"388 541 CURVE SMOOTH",
"388 256 LINE SMOOTH",
"388 152 OFFCURVE",
"457 77 OFFCURVE",
"549 77 CURVE SMOOTH",
"641 77 OFFCURVE",
"706 152 OFFCURVE",
"706 256 CURVE SMOOTH",
"706 541 LINE SMOOTH",
"706 623 OFFCURVE",
"767 690 OFFCURVE",
"846 690 CURVE SMOOTH",
"923 690 OFFCURVE",
"984 623 OFFCURVE",
"984 541 CURVE SMOOTH",
"984 0 LINE",
"1009 0 LINE",
"1009 534 LINE SMOOTH",
"1009 638 OFFCURVE",
"940 713 OFFCURVE",
"846 713 CURVE SMOOTH",
"750 713 OFFCURVE",
"681 638 OFFCURVE",
"681 534 CURVE SMOOTH",
"681 249 LINE SMOOTH",
"681 165 OFFCURVE",
"621 100 OFFCURVE",
"549 100 CURVE SMOOTH",
"477 100 OFFCURVE",
"413 165 OFFCURVE",
"413 249 CURVE SMOOTH",
"413 534 LINE SMOOTH",
"413 638 OFFCURVE",
"343 713 OFFCURVE",
"249 713 CURVE SMOOTH",
"153 713 OFFCURVE",
"85 638 OFFCURVE",
"85 534 CURVE SMOOTH",
"85 0 LINE"
);
}
);
width = 1094;
},
{
hints = (
{
place = "{60, 143}";
type = Stem;
},
{
place = "{334, 143}";
type = Stem;
},
{
place = "{608, 143}";
type = Stem;
},
{
place = "{882, 143}";
type = Stem;
},
{
horizontal = 1;
place = "{54, 126}";
type = Stem;
},
{
horizontal = 1;
place = "{586, 126}";
type = Stem;
},
{
horizontal = 1;
place = "{0, 21}";
target = up;
type = BottomGhost;
}
);
layerId = "41AFA816-2F69-4745-BF67-F6DEA15443A0";
paths = (
{
closed = 1;
nodes = (
"203 0 LINE",
"203 520 LINE SMOOTH",
"203 556 OFFCURVE",
"232 586 OFFCURVE",
"268 586 CURVE SMOOTH",
"304 586 OFFCURVE",
"334 556 OFFCURVE",
"334 520 CURVE SMOOTH",
"334 263 LINE SMOOTH",
"334 148 OFFCURVE",
"417 54 OFFCURVE",
"542 54 CURVE SMOOTH",
"667 54 OFFCURVE",
"751 149 OFFCURVE",
"751 263 CURVE SMOOTH",
"751 520 LINE SMOOTH",
"751 556 OFFCURVE",
"781 586 OFFCURVE",
"817 586 CURVE SMOOTH",
"853 586 OFFCURVE",
"882 556 OFFCURVE",
"882 520 CURVE SMOOTH",
"882 0 LINE",
"1025 0 LINE",
"1025 503 LINE SMOOTH",
"1025 618 OFFCURVE",
"942 712 OFFCURVE",
"817 712 CURVE SMOOTH",
"692 712 OFFCURVE",
"608 618 OFFCURVE",
"608 503 CURVE SMOOTH",
"608 246 LINE SMOOTH",
"608 210 OFFCURVE",
"578 180 OFFCURVE",
"542 180 CURVE SMOOTH",
"506 180 OFFCURVE",
"477 209 OFFCURVE",
"477 246 CURVE SMOOTH",
"477 503 LINE SMOOTH",
"477 618 OFFCURVE",
"393 712 OFFCURVE",
"268 712 CURVE SMOOTH",
"143 712 OFFCURVE",
"60 618 OFFCURVE",
"60 503 CURVE SMOOTH",
"60 0 LINE"
);
}
);
width = 1085;
},
{
hints = (
{
place = "{6.75, 130.25}";
type = Stem;
},
{
place = "{75.25, 130.25}";
type = Stem;
},
{
place = "{192.5, 130.25}";
type = Stem;
},
{
place = "{660, 130.25}";
type = Stem;
},
{
horizontal = 1;
place = "{453, 126}";
type = Stem;
},
{
horizontal = 1;
place = "{586, 126}";
type = Stem;
},
{
horizontal = 1;
place = "{0, 21}";
target = up;
type = BottomGhost;
}
);
layerId = "32E5C913-0890-451E-8980-44FAA246AB8A";
paths = (
{
closed = 1;
nodes = (
"247 0 LINE",
"247 486 LINE SMOOTH",
"247 512 OFFCURVE",
"265 528 OFFCURVE",
"289 528 CURVE SMOOTH",
"312 528 OFFCURVE",
"330 512 OFFCURVE",
"330 486 CURVE SMOOTH",
"330 282 LINE SMOOTH",
"330 135 OFFCURVE",
"448 54 OFFCURVE",
"577 54 CURVE SMOOTH",
"705 54 OFFCURVE",
"824 136 OFFCURVE",
"824 282 CURVE SMOOTH",
"824 489 LINE SMOOTH",
"824 512 OFFCURVE",
"843 528 OFFCURVE",
"866 528 CURVE SMOOTH",
"887 528 OFFCURVE",
"907 512 OFFCURVE",
"907 489 CURVE SMOOTH",
"907 0 LINE",
"1112 0 LINE",
"1112 484 LINE SMOOTH",
"1112 629 OFFCURVE",
"994 713 OFFCURVE",
"866 713 CURVE SMOOTH",
"737 713 OFFCURVE",
"619 629 OFFCURVE",
"619 484 CURVE SMOOTH",
"619 280 LINE SMOOTH",
"619 253 OFFCURVE",
"598 237 OFFCURVE",
"576 237 CURVE SMOOTH",
"556 237 OFFCURVE",
"536 253 OFFCURVE",
"536 280 CURVE SMOOTH",
"536 484 LINE SMOOTH",
"536 629 OFFCURVE",
"418 713 OFFCURVE",
"289 713 CURVE SMOOTH",
"158 713 OFFCURVE",
"41 629 OFFCURVE",
"41 484 CURVE SMOOTH",
"41 0 LINE"
);
}
);
width = 1153;
}
);
leftKerningGroup = H_2nd;
rightKerningGroup = P_1st;
},
{
glyphname = N.ss01;
layers = (
{
background = {
paths = (
{
closed = 1;
nodes = (
"65 0 LINE",
"208 0 LINE",
"208 433 LINE SMOOTH",
"208 517 OFFCURVE",
"265 586 OFFCURVE",
"356 586 CURVE SMOOTH",
"447 586 OFFCURVE",
"504 517 OFFCURVE",
"504 433 CURVE SMOOTH",
"504 0 LINE",
"647 0 LINE",
"647 424 LINE SMOOTH",
"647 602 OFFCURVE",
"526 712 OFFCURVE",
"356 712 CURVE SMOOTH",
"186 712 OFFCURVE",
"65 602 OFFCURVE",
"65 424 CURVE SMOOTH"
);
}
);
};
hints = (
{
place = "{65, 143}";
type = Stem;
},
{
place = "{504, 143}";
type = Stem;
},
{
horizontal = 1;
place = "{586, 126}";
type = Stem;
},
{
horizontal = 1;
place = "{0, 21}";
target = up;
type = BottomGhost;
},
{
place = "{65, -143}";
type = Stem;
},
{
place = "{504, -143}";
type = Stem;
},
{
horizontal = 1;
place = "{712, -126}";
type = Stem;
},
{
horizontal = 1;
place = "{0, 21}";
target = up;
type = BottomGhost;
}
);
layerId = "5dd0c03f-0ac1-43be-b978-266741ffc02a";
paths = (
{
closed = 1;
nodes = (
"110 0 LINE",
"110 447 LINE SMOOTH",
"110 580 OFFCURVE",
"199 689 OFFCURVE",
"343 689 CURVE SMOOTH",
"486 689 OFFCURVE",
"575 580 OFFCURVE",
"575 447 CURVE SMOOTH",
"575 0 LINE",
"600 0 LINE",
"600 436 LINE SMOOTH",
"600 607 OFFCURVE",
"493 713 OFFCURVE",
"343 713 CURVE SMOOTH",
"192 713 OFFCURVE",
"85 607 OFFCURVE",
"85 436 CURVE SMOOTH",
"85 0 LINE"
);
}
);
width = 685;
},
{
hints = (
{
place = "{65, 143}";
type = Stem;
},
{
place = "{504, 143}";
type = Stem;
},
{
horizontal = 1;
place = "{586, 126}";
type = Stem;
},
{
horizontal = 1;
place = "{0, 21}";
target = up;
type = BottomGhost;
}
);
layerId = "41AFA816-2F69-4745-BF67-F6DEA15443A0";
paths = (
{
closed = 1;
nodes = (
"208 0 LINE",
"208 433 LINE SMOOTH",
"208 517 OFFCURVE",
"265 586 OFFCURVE",
"356 586 CURVE SMOOTH",
"447 586 OFFCURVE",
"504 517 OFFCURVE",
"504 433 CURVE SMOOTH",
"504 0 LINE",
"647 0 LINE",
"647 424 LINE SMOOTH",
"647 602 OFFCURVE",
"526 712 OFFCURVE",
"356 712 CURVE SMOOTH",
"186 712 OFFCURVE",
"65 602 OFFCURVE",
"65 424 CURVE SMOOTH",
"65 0 LINE"
);
}
);
width = 712;
},
{
hints = (
{
place = "{321.5, -58.75}";
type = Stem;
},
{
place = "{565.5, 130.25}";
type = Stem;
},
{
horizontal = 1;
place = "{680.5, -63}";
type = Stem;
},
{
horizontal = 1;
place = "{525, 21}";
target = up;
type = BottomGhost;
}
);
layerId = "32E5C913-0890-451E-8980-44FAA246AB8A";
paths = (
{
closed = 1;
nodes = (
"255 0 LINE",
"255 428 LINE SMOOTH",
"255 493 OFFCURVE",
"294 539 OFFCURVE",
"355 539 CURVE SMOOTH",
"416 539 OFFCURVE",
"455 493 OFFCURVE",
"455 428 CURVE SMOOTH",
"455 0 LINE",
"667 0 LINE",
"667 419 LINE SMOOTH",
"667 600 OFFCURVE",
"538 712 OFFCURVE",
"355 712 CURVE SMOOTH",
"173 712 OFFCURVE",
"43 600 OFFCURVE",
"43 419 CURVE SMOOTH",
"43 0 LINE"
);
}
);
width = 709;
}
);
leftKerningGroup = H_2nd;
rightKerningGroup = P_1st;
},
{
color = 4;
glyphname = Eng.ss01;
layers = (
{
components = (
{
name = N.ss01;
}
);
hints = (
{
place = "{391, 133}";
type = Stem;
},
{
place = "{609, 142}";
type = Stem;
},
{
horizontal = 1;
place = "{-218, 128}";
type = Stem;
},
{
horizontal = 1;
place = "{574, 126}";
type = Stem;
},
{
place = "{643, 172}";
type = Stem;
},
{
place = "{661, 137}";
type = Stem;
},
{
horizontal = 1;
place = "{-310, 117}";
type = Stem;
},
{
horizontal = 1;
place = "{467, 172}";
type = Stem;
},
{
place = "{692, 137}";
type = Stem;
},
{
horizontal = 1;
place = "{-107, 117}";
type = Stem;
},
{
horizontal = 1;
place = "{286, 117}";
type = Stem;
},
{
horizontal = 1;
place = "{531, -20}";
target = down;
type = TopGhost;
},
{
place = "{681, -137}";
type = Stem;
},
{
horizontal = 1;
place = "{10, -117}";
type = Stem;
},
{
horizontal = 1;
place = "{403, 21}";
target = up;
type = BottomGhost;
},
{
place = "{1061, 137}";
type = Stem;
},
{
horizontal = 1;
place = "{286, 117}";
type = Stem;
},
{
horizontal = 1;
place = "{506, 117}";
type = Stem;
},
{
horizontal = 1;
place = "{-107, 21}";
target = up;
type = BottomGhost;
},
{
place = "{1054, 137}";
type = Stem;
},
{
horizontal = 1;
place = "{507, 117}";
type = Stem;
},
{
horizontal = 1;
place = "{114, 21}";
target = up;
type = BottomGhost;
}
);
layerId = "5dd0c03f-0ac1-43be-b978-266741ffc02a";
paths = (
{
closed = 1;
nodes = (
"454 -216 LINE SMOOTH",
"545 -216 OFFCURVE",
"600 -161 OFFCURVE",
"600 -71 CURVE SMOOTH",
"600 100 LINE",
"575 100 LINE",
"575 -61 LINE SMOOTH",
"575 -146 OFFCURVE",
"534 -193 OFFCURVE",
"448 -193 CURVE SMOOTH",
"413 -193 LINE",
"412 -216 LINE"
);
}
);
width = 685;
},
{
components = (
{
alignment = -1;
name = N.ss01;
}
);
hints = (
{
place = "{60, 143}";
type = Stem;
},
{
place = "{334, 143}";
type = Stem;
},
{
place = "{608, 143}";
type = Stem;
},
{
horizontal = 1;
place = "{-12, 126}";
type = Stem;
},
{
horizontal = 1;
place = "{586, 126}";
type = Stem;
},
{
place = "{391, 133}";
type = Stem;
},
{
place = "{609, 142}";
type = Stem;
},
{
horizontal = 1;
place = "{-218, 128}";
type = Stem;
},
{
horizontal = 1;
place = "{574, 126}";
type = Stem;
}
);
layerId = "41AFA816-2F69-4745-BF67-F6DEA15443A0";
paths = (
{
closed = 1;
nodes = (
"470 -216 LINE SMOOTH",
"590 -216 OFFCURVE",
"647 -131 OFFCURVE",
"647 -26 CURVE SMOOTH",
"647 100 LINE",
"504 100 LINE",
"504 -13 LINE SMOOTH",
"504 -61 OFFCURVE",
"476 -88 OFFCURVE",
"438 -88 CURVE SMOOTH",
"372 -88 LINE",
"372 -216 LINE"
);
}
);
width = 712;
},
{
components = (
{
alignment = -1;
name = N.ss01;
}
);
hints = (
{
place = "{60, 143}";
type = Stem;
},
{
place = "{334, 143}";
type = Stem;
},
{
place = "{608, 143}";
type = Stem;
},
{
horizontal = 1;
place = "{-12, 126}";
type = Stem;
},
{
horizontal = 1;
place = "{586, 126}";
type = Stem;
},
{
place = "{391, 133}";
type = Stem;
},
{
place = "{609, 142}";
type = Stem;
},
{
horizontal = 1;
place = "{-218, 128}";
type = Stem;
},
{
horizontal = 1;
place = "{574, 126}";
type = Stem;
}
);
layerId = "32E5C913-0890-451E-8980-44FAA246AB8A";
paths = (
{
closed = 1;
nodes = (
"484 -216 LINE SMOOTH",
"607 -216 OFFCURVE",
"667 -131 OFFCURVE",
"667 -26 CURVE SMOOTH",
"667 100 LINE",
"455 100 LINE",
"455 -19 LINE SMOOTH",
"455 -51 OFFCURVE",
"435 -66 OFFCURVE",
"407 -66 CURVE SMOOTH",
"314 -66 LINE",
"314 -216 LINE"
);
}
);
width = 709;
}
);
leftKerningGroup = H_2nd;
leftMetricsKey = N.ss01;
rightKerningGroup = H_1st;
rightMetricsKey = N.ss01;
},
{
glyphname = O.ss01;
layers = (
{
background = {
paths = (
{
closed = 1;
nodes = (
"637 -13 OFFCURVE",
"778 146.332 OFFCURVE",
"778 343.733 CURVE SMOOTH",
"778 522 OFFCURVE",
"661 667 OFFCURVE",
"472 693 CURVE",
"463 694 OFFCURVE",
"449 696 OFFCURVE",
"419 700 CURVE",
"202 700 OFFCURVE",
"60 541.134 OFFCURVE",
"60 343.733 CURVE SMOOTH",
"60 146.332 OFFCURVE",
"202 -13 OFFCURVE",
"419 -13 CURVE SMOOTH"
);
},
{
closed = 1;
nodes = (
"226 10 OFFCURVE",
"85 152 OFFCURVE",
"85 343.733 CURVE SMOOTH",
"85 533 OFFCURVE",
"226 677 OFFCURVE",
"419 677 CURVE SMOOTH",
"612 677 OFFCURVE",
"753 534 OFFCURVE",
"753 343.733 CURVE SMOOTH",
"753 152 OFFCURVE",
"612 10 OFFCURVE",
"419 10 CURVE SMOOTH"
);
},
{
closed = 1;
nodes = (
"419 677 LINE",
"803 677 LINE",
"803 700 LINE",
"419 700 LINE"
);
}
);
};
hints = (
{
place = "{30, 143}";
type = Stem;
},
{
place = "{621, 143}";
type = Stem;
},
{
horizontal = 1;
place = "{-12, 126}";
type = Stem;
},
{
horizontal = 1;
place = "{573, 127}";
type = Stem;
},
{
place = "{30, 140.439}";
type = Stem;
},
{
place = "{621, 140.439}";
type = Stem;
},
{
horizontal = 1;
place = "{-11.785, 123.744}";
type = Stem;
},
{
horizontal = 1;
place = "{575.507, 123.744}";
type = Stem;
}
);
layerId = "5dd0c03f-0ac1-43be-b978-266741ffc02a";
paths = (
{
closed = 1;
nodes = (
"637 -13 OFFCURVE",
"778 146 OFFCURVE",
"778 344 CURVE SMOOTH",
"778 499 OFFCURVE",
"689 629 OFFCURVE",
"542 677 CURVE",
"803 677 LINE",
"803 700 LINE",
"419 700 LINE SMOOTH",
"202 700 OFFCURVE",
"60 541 OFFCURVE",
"60 344 CURVE SMOOTH",
"60 146 OFFCURVE",
"202 -13 OFFCURVE",
"419 -13 CURVE SMOOTH"
);
},
{
closed = 1;
nodes = (
"226 10 OFFCURVE",
"85 152 OFFCURVE",
"85 344 CURVE SMOOTH",
"85 533 OFFCURVE",
"226 677 OFFCURVE",
"419 677 CURVE SMOOTH",
"612 677 OFFCURVE",
"753 534 OFFCURVE",
"753 344 CURVE SMOOTH",
"753 152 OFFCURVE",
"612 10 OFFCURVE",
"419 10 CURVE SMOOTH"
);
}
);
width = 838;
},
{
hints = (
{
place = "{30, 143}";
type = Stem;
},
{
place = "{621, 143}";
type = Stem;
},
{
horizontal = 1;
place = "{-12, 126}";
type = Stem;
},
{
horizontal = 1;
place = "{573, 127}";
type = Stem;
}
);
layerId = "41AFA816-2F69-4745-BF67-F6DEA15443A0";
paths = (
{
closed = 1;
nodes = (
"620 -12 OFFCURVE",
"764 148 OFFCURVE",
"764 344 CURVE SMOOTH",
"764 432 OFFCURVE",
"731 512 OFFCURVE",
"674 574 CURVE",
"770 574 LINE",
"770 700 LINE",
"397 700 LINE SMOOTH",
"174 700 OFFCURVE",
"30 542 OFFCURVE",
"30 344 CURVE SMOOTH",
"30 148 OFFCURVE",
"174 -12 OFFCURVE",
"397 -12 CURVE SMOOTH"
);
},
{
closed = 1;
nodes = (
"268 114 OFFCURVE",
"173 214 OFFCURVE",
"173 344 CURVE SMOOTH",
"173 478 OFFCURVE",
"268 573 OFFCURVE",
"397 573 CURVE SMOOTH",
"526 573 OFFCURVE",
"621 478 OFFCURVE",
"621 344 CURVE SMOOTH",
"621 214 OFFCURVE",
"526 114 OFFCURVE",
"397 114 CURVE SMOOTH"
);
}
);
width = 794;
},
{
hints = (
{
place = "{-1.339, 128.558}";
type = Stem;
},
{
place = "{585, 131}";
type = Stem;
},
{
horizontal = 1;
place = "{428.63, 124.308}";
type = Stem;
},
{
horizontal = 1;
place = "{582.75, 126.25}";
type = Stem;
}
);
layerId = "32E5C913-0890-451E-8980-44FAA246AB8A";
paths = (
{
closed = 1;
nodes = (
"627 -13 OFFCURVE",
"784 140 OFFCURVE",
"784 344 CURVE SMOOTH",
"784 414 OFFCURVE",
"764 478 OFFCURVE",
"729 531 CURVE",
"804 531 LINE",
"804 700 LINE",
"405 700 LINE SMOOTH",
"183 700 OFFCURVE",
"26 549 OFFCURVE",
"26 344 CURVE SMOOTH",
"26 140 OFFCURVE",
"183 -13 OFFCURVE",
"405 -13 CURVE SMOOTH"
);
},
{
closed = 1;
nodes = (
"306 159 OFFCURVE",
"244 241 OFFCURVE",
"244 344 CURVE SMOOTH",
"244 447 OFFCURVE",
"306 529 OFFCURVE",
"405 529 CURVE SMOOTH",
"504 529 OFFCURVE",
"566 447 OFFCURVE",
"566 344 CURVE SMOOTH",
"566 241 OFFCURVE",
"504 159 OFFCURVE",
"405 159 CURVE SMOOTH"
);
}
);
width = 810;
}
);
leftKerningGroup = O_2nd;
rightKerningGroup = O.alt1_1st;
},
{
color = 4;
glyphname = Oogonek.ss01;
layers = (
{
background = {
paths = (
{
closed = 1;
nodes = (
"408 -1 LINE",
"384 -37 OFFCURVE",
"363 -80 OFFCURVE",
"363 -119 CURVE SMOOTH",
"363 -189 OFFCURVE",
"412 -226 OFFCURVE",
"485 -226 CURVE SMOOTH",
"511 -226 OFFCURVE",
"530 -220 OFFCURVE",
"536 -218 CURVE",
"536 -193 LINE",
"515 -199 OFFCURVE",
"498 -202 OFFCURVE",
"482 -202 CURVE SMOOTH",
"424 -202 OFFCURVE",
"389 -172 OFFCURVE",
"389 -121 CURVE SMOOTH",
"389 -81 OFFCURVE",
"412 -36 OFFCURVE",
"437 -1 CURVE"
);
},
{
closed = 1;
nodes = (
"437 -1 LINE",
"461 35 OFFCURVE",
"486 62 OFFCURVE",
"490 66 CURVE",
"471 78 LINE",
"467 74 OFFCURVE",
"436 41 OFFCURVE",
"408 -1 CURVE"
);
}
);
};
components = (
{
name = O.ss01;
}
);
hints = (
{
place = "{30, 143}";
type = Stem;
},
{
place = "{621, 143}";
type = Stem;
},
{
horizontal = 1;
place = "{-12, 126}";
type = Stem;
},
{
horizontal = 1;
place = "{586, 126}";
type = Stem;
},
{
place = "{581, 85}";
type = Stem;
},
{
place = "{581, 183}";
type = Stem;
},
{
horizontal = 1;
place = "{-218, 21}";
target = up;
type = BottomGhost;
},
{
place = "{319, 85}";
type = Stem;
},
{
place = "{319, 183}";
type = Stem;
},
{
horizontal = 1;
place = "{-226, 21}";
target = up;
type = BottomGhost;
},
{
place = "{363, 85}";
type = Stem;
},
{
place = "{363, 183}";
type = Stem;
},
{
horizontal = 1;
place = "{-226, 21}";
target = up;
type = BottomGhost;
}
);
layerId = "5dd0c03f-0ac1-43be-b978-266741ffc02a";
paths = (
{
closed = 1;
nodes = (
"539 -226 OFFCURVE",
"558 -220 OFFCURVE",
"564 -218 CURVE",
"564 -193 LINE",
"543 -199 OFFCURVE",
"526 -202 OFFCURVE",
"510 -202 CURVE SMOOTH",
"452 -202 OFFCURVE",
"417 -172 OFFCURVE",
"417 -121 CURVE SMOOTH",
"417 -81 OFFCURVE",
"440 -36 OFFCURVE",
"465 -1 CURVE",
"436 -1 LINE",
"412 -37 OFFCURVE",
"391 -80 OFFCURVE",
"391 -119 CURVE SMOOTH",
"391 -189 OFFCURVE",
"440 -226 OFFCURVE",
"513 -226 CURVE SMOOTH"
);
}
);
width = 838;
},
{
background = {
components = (
{
alignment = -1;
name = O;
},
{
alignment = -1;
name = ogonek;
transform = "{1, 0, 0, 1, 312, -8}";
}
);
};
components = (
{
alignment = -1;
name = O.ss01;
}
);
hints = (
{
place = "{30, 143}";
type = Stem;
},
{
place = "{621, 143}";
type = Stem;
},
{
horizontal = 1;
place = "{-12, 126}";
type = Stem;
},
{
horizontal = 1;
place = "{586, 126}";
type = Stem;
},
{
place = "{581, 85}";
type = Stem;
},
{
place = "{581, 183}";
type = Stem;
},
{
horizontal = 1;
place = "{-218, 21}";
target = up;
type = BottomGhost;
},
{
place = "{319, 85}";
type = Stem;
},
{
place = "{319, 183}";
type = Stem;
},
{
horizontal = 1;
place = "{-226, 21}";
target = up;
type = BottomGhost;
},
{
place = "{319, 85}";
type = Stem;
},
{
place = "{319, 183}";
type = Stem;
},
{
horizontal = 1;
place = "{-226, 21}";
target = up;
type = BottomGhost;
}
);
layerId = "41AFA816-2F69-4745-BF67-F6DEA15443A0";
paths = (
{
closed = 1;
nodes = (
"464 -226 OFFCURVE",
"488 -223 OFFCURVE",
"502 -219 CURVE",
"502 -134 LINE",
"488 -139 OFFCURVE",
"474 -142 OFFCURVE",
"459 -142 CURVE SMOOTH",
"428 -142 OFFCURVE",
"404 -120 OFFCURVE",
"404 -88 CURVE SMOOTH",
"404 -37 OFFCURVE",
"463 49 OFFCURVE",
"469 58 CURVE",
"434 78 LINE",
"427 70 OFFCURVE",
"319 -41 OFFCURVE",
"319 -112 CURVE SMOOTH",
"319 -189 OFFCURVE",
"378 -226 OFFCURVE",
"450 -226 CURVE SMOOTH"
);
}
);
width = 794;
},
{
components = (
{
alignment = -1;
name = O.ss01;
}
);
hints = (
{
place = "{30, 143}";
type = Stem;
},
{
place = "{621, 143}";
type = Stem;
},
{
horizontal = 1;
place = "{-12, 126}";
type = Stem;
},
{
horizontal = 1;
place = "{586, 126}";
type = Stem;
},
{
place = "{581, 85}";
type = Stem;
},
{
place = "{581, 183}";
type = Stem;
},
{
horizontal = 1;
place = "{-218, 21}";
target = up;
type = BottomGhost;
},
{
place = "{319, 85}";
type = Stem;
},
{
place = "{319, 183}";
type = Stem;
},
{
horizontal = 1;
place = "{-226, 21}";
target = up;
type = BottomGhost;
},
{
place = "{319, 85}";
type = Stem;
},
{
place = "{319, 183}";
type = Stem;
},
{
horizontal = 1;
place = "{-226, 21}";
target = up;
type = BottomGhost;
}
);
layerId = "32E5C913-0890-451E-8980-44FAA246AB8A";
paths = (
{
closed = 1;
nodes = (
"464 -227 OFFCURVE",
"496 -223 OFFCURVE",
"514 -218 CURVE",
"514 -125 LINE",
"502 -129 OFFCURVE",
"486 -132 OFFCURVE",
"470 -132 CURVE SMOOTH",
"436 -132 OFFCURVE",
"418 -112 OFFCURVE",
"418 -85 CURVE SMOOTH",
"418 -37 OFFCURVE",
"483 54 OFFCURVE",
"487 61 CURVE",
"430 87 LINE",
"423 79 OFFCURVE",
"308 -34 OFFCURVE",
"307 -114 CURVE SMOOTH",
"306 -194 OFFCURVE",
"365 -227 OFFCURVE",
"443 -227 CURVE SMOOTH"
);
}
);
width = 810;
}
);
leftKerningGroup = O_2nd;
leftMetricsKey = O.ss01;
rightKerningGroup = O_1st;
rightMetricsKey = O.ss01;
},
